Winston-Italic[wght].glyphspackage
{
color = 11;
glyphname = exclam;
layers = (
{
layerId = "AA9127E2-66D7-45E5-8D77-9FE81E534461";
shapes = (
{
closed = 1;
nodes = (
(363.999,490,l),
(616.283,1472,l),
(174.283,1472,l),
(145.999,490,l)
);
},
{
closed = 1;
nodes = (
(370,0,l),
(422.856,370,l),
(48.856,370,l),
(-4,0,l)
);
}
);
width = 550;
},
{
layerId = "780D6C53-D363-41D3-A45B-4CEB198897BB";
shapes = (
{
closed = 1;
nodes = (
(265,404,l),
(481,1472,l),
(228,1472,l),
(139,404,l)
);
},
{
closed = 1;
nodes = (
(263,0,l),
(297,241,l),
(57,241,l),
(23,0,l)
);
}
);
width = 468;
},
{
layerId = "15DD03C9-6E3F-4F53-9575-CC59ABE7D50E";
shapes = (
{
closed = 1;
nodes = (
(188.857,328,l),
(374.283,1472,l),
(286.283,1472,l),
(142.857,328,l)
);
},
{
closed = 1;
nodes = (
(180,0,l),
(198.285,128,l),
(76.285,128,l),
(58,0,l)
);
}
);
width = 418;
}
);
leftKerningGroup = exclam;
rightKerningGroup = exclam;
unicode = 33;
}
{
color = 11;
glyphname = numbersign;
layers = (
{
layerId = "AA9127E2-66D7-45E5-8D77-9FE81E534461";
shapes = (
{
closed = 1;
nodes = (
(292,0,l),
(398,334,l),
(576,334,l),
(468,0,l),
(698,0,l),
(808,334,l),
(1016,334,l),
(1047,552,l),
(881,552,l),
(1004,936,l),
(1148,936,l),
(1179,1156,l),
(1079,1156,l),
(1182,1472,l),
(950,1472,l),
(845,1156,l),
(669,1156,l),
(774,1472,l),
(540,1472,l),
(437,1156,l),
(231,1156,l),
(200,936,l),
(364,936,l),
(239,552,l),
(101,552,l),
(70,334,l),
(166,334,l),
(58,0,l)
);
},
{
closed = 1;
nodes = (
(596,936,l),
(774,936,l),
(649,552,l),
(473,552,l)
);
}
);
width = 1212;
},
{
layerId = "780D6C53-D363-41D3-A45B-4CEB198897BB";
shapes = (
{
closed = 1;
nodes = (
(233,0,l),
(352,371,l),
(645,371,l),
(524,0,l),
(674,0,l),
(796,371,l),
(1054,371,l),
(1074,512,l),
(841,512,l),
(994,976,l),
(1181,976,l),
(1201,1118,l),
(1041,1118,l),
(1157,1472,l),
(1006,1472,l),
(891,1118,l),
(598,1118,l),
(713,1472,l),
(563,1472,l),
(449,1118,l),
(191,1118,l),
(171,976,l),
(403,976,l),
(249,512,l),
(63,512,l),
(43,371,l),
(204,371,l),
(81,0,l)
);
},
{
closed = 1;
nodes = (
(551,976,l),
(845,976,l),
(692,512,l),
(399,512,l)
);
}
);
width = 1211;
},
{
layerId = "15DD03C9-6E3F-4F53-9575-CC59ABE7D50E";
shapes = (
{
closed = 1;
nodes = (
(180,0,l),
(312,404,l),
(706,404,l),
(574,0,l),
(652,0,l),
(786,404,l),
(1088,404,l),
(1098,476,l),
(806,476,l),
(985,1012,l),
(1211,1012,l),
(1221,1084,l),
(1007,1084,l),
(1134,1472,l),
(1056,1472,l),
(931,1084,l),
(535,1084,l),
(660,1472,l),
(584,1472,l),
(459,1084,l),
(155,1084,l),
(145,1012,l),
(437,1012,l),
(258,476,l),
(30,476,l),
(20,404,l),
(238,404,l),
(102,0,l)
);
},
{
closed = 1;
nodes = (
(511,1012,l),
(907,1012,l),
(730,476,l),
(334,476,l)
);
}
);
width = 1210;
}
);
leftKerningGroup = numbersign;
rightKerningGroup = numbersign;
unicode = 35;
}
{
color = 11;
glyphname = dollar;
layers = (
{
layerId = "DFDA7944-A323-4357-A6CD-3EE161AE16F3";
shapes = (
{
closed = 1;
nodes = (
(713,-240,l),
(753,42,l),
(694,-6,l),
(973,26,o),
(1183,196,o),
(1219,450,cs),
(1249,660,o),
(1148,794,o),
(909,852,cs),
(690,902,ls),
(578,930,o),
(546,972,o),
(554,1032,cs),
(567,1120,o),
(656,1182,o),
(796,1182,cs),
(944,1182,o),
(1069,1136,o),
(1154,1054,c),
(1293,1328,l),
(1210,1418,o),
(1060,1474,o),
(903,1484,c),
(953,1444,l),
(992,1712,l),
(712,1712,l),
(673,1444,l),
(738,1480,l),
(448,1448,o),
(234,1266,o),
(198,1016,cs),
(167,796,o),
(269,660,o),
(505,604,cs),
(724,550,ls),
(838,524,o),
(872,484,o),
(863,422,cs),
(853,348,o),
(784,290,o),
(618,290,cs),
(460,290,o),
(298,346,o),
(190,430,c),
(50,144,l),
(156,50,o),
(334,-4,o),
(525,-12,c),
(473,42,l),
(433,-240,l)
);
}
);
width = 1255;
},
{
layerId = "E40C1264-1582-41D6-8175-F4C1F2081197";
shapes = (
{
closed = 1;
nodes = (
(658,-240,l),
(696,29,l),
(653,-7,l),
(921,12,o),
(1127,167,o),
(1162,410,cs),
(1190,610,o),
(1086,729,o),
(840,786,cs),
(641,831,ls),
(488,867,o),
(434,935,o),
(450,1051,cs),
(472,1202,o),
(605,1303,o),
(793,1303,cs),
(949,1303,o),
(1071,1254,o),
(1160,1148,c),
(1249,1307,l),
(1163,1417,o),
(1015,1474,o),
(871,1481,c),
(899,1449,l),
(937,1712,l),
(769,1712,l),
(731,1449,l),
(767,1480,l),
(491,1464,o),
(284,1288,o),
(249,1045,cs),
(219,834,o),
(317,708,o),
(551,654,cs),
(749,607,ls),
(915,569,o),
(974,506,o),
(959,398,cs),
(940,263,o),
(827,169,o),
(611,169,cs),
(430,169,o),
(296,223,o),
(186,326,c),
(93,161,l),
(203,48,o),
(374,-6,o),
(564,-10,c),
(528,28,l),
(490,-240,l)
);
}
);
width = 1255;
},
{
layerId = "9BC0C71B-A637-49D9-92D6-4EFEC3ADCDB0";
shapes = (
{
closed = 1;
nodes = (
(610,-240,l),
(647,18,l),
(617,-8,l),
(876,0,o),
(1078,142,o),
(1111,374,cs),
(1139,566,o),
(1032,672,o),
(780,728,cs),
(598,768,ls),
(410,812,o),
(335,902,o),
(359,1068,cs),
(388,1274,o),
(561,1410,o),
(791,1410,cs),
(955,1410,o),
(1074,1358,o),
(1166,1230,c),
(1210,1288,l),
(1124,1416,o),
(977,1474,o),
(843,1478,c),
(852,1454,l),
(889,1712,l),
(821,1712,l),
(784,1454,l),
(793,1480,l),
(531,1478,o),
(329,1308,o),
(295,1070,cs),
(266,868,o),
(361,750,o),
(594,698,cs),
(772,658,ls),
(985,608,o),
(1065,526,o),
(1044,376,cs),
(1017,188,o),
(865,62,o),
(605,62,cs),
(405,62,o),
(294,114,o),
(181,234,c),
(133,176,l),
(245,46,o),
(411,-8,o),
(599,-8,c),
(578,16,l),
(542,-240,l)
);
}
);
width = 1255;
}
);
unicode = 36;
}
{
color = 11;
glyphname = percent;
layers = (
{
layerId = "AB3199DD-655E-4C0F-A34B-FD02744555A7";
shapes = (
{
closed = 1;
nodes = (
(1591,1410,l),
(1388,1540,l),
(363,62,l),
(569,-66,l)
);
},
{
closed = 1;
nodes = (
(671,596,o),
(830,770,o),
(869,1046,cs),
(909,1322,o),
(798,1496,o),
(558,1496,cs),
(322,1496,o),
(162,1328,o),
(121,1046,cs),
(82,770,o),
(189,596,o),
(429,596,cs)
);
},
{
closed = 1;
nodes = (
(400,814,o),
(376,868,o),
(401,1046,cs),
(427,1224,o),
(466,1276,o),
(526,1276,cs),
(588,1276,o),
(612,1220,o),
(587,1046,cs),
(563,872,o),
(522,814,o),
(460,814,cs)
);
},
{
closed = 1;
nodes = (
(1637,-24,o),
(1797,150,o),
(1837,428,cs),
(1876,702,o),
(1763,876,o),
(1527,876,cs),
(1289,876,o),
(1125,708,o),
(1085,428,cs),
(1045,150,o),
(1157,-24,o),
(1399,-24,cs)
);
},
{
closed = 1;
nodes = (
(1366,194,o),
(1344,252,o),
(1369,428,cs),
(1395,606,o),
(1432,658,o),
(1496,658,cs),
(1554,658,o),
(1580,602,o),
(1555,428,cs),
(1531,256,o),
(1488,194,o),
(1430,194,cs)
);
}
);
width = 1924;
},
{
layerId = "64C9CF7B-5345-44EA-861F-4D3695E3DC07";
shapes = (
{
closed = 1;
nodes = (
(1527,1449,l),
(1403,1527,l),
(364,22,l),
(491,-55,l)
);
},
{
closed = 1;
nodes = (
(658,591,o),
(808,756,o),
(849,1042,cs),
(890,1325,o),
(783,1491,o),
(566,1491,cs),
(350,1491,o),
(198,1328,o),
(157,1042,cs),
(116,756,o),
(219,591,o),
(437,591,cs)
);
},
{
closed = 1;
nodes = (
(345,728,o),
(296,822,o),
(326,1042,cs),
(358,1259,o),
(434,1353,o),
(546,1353,cs),
(658,1353,o),
(709,1257,o),
(678,1042,cs),
(648,824,o),
(569,728,o),
(457,728,cs)
);
},
{
closed = 1;
nodes = (
(1545,-20,o),
(1695,146,o),
(1736,431,cs),
(1776,714,o),
(1672,880,o),
(1455,880,cs),
(1237,880,o),
(1083,717,o),
(1042,431,cs),
(1001,145,o),
(1106,-20,o),
(1327,-20,cs)
);
},
{
closed = 1;
nodes = (
(1232,118,o),
(1184,214,o),
(1215,431,cs),
(1246,650,o),
(1321,742,o),
(1435,742,cs),
(1546,742,o),
(1597,648,o),
(1566,431,cs),
(1536,215,o),
(1457,118,o),
(1346,118,cs)
);
}
);
width = 1860;
},
{
layerId = "C792CAD3-12E8-4938-96FB-ECD54646BE96";
shapes = (
{
closed = 1;
nodes = (
(1480,1484,l),
(1425,1516,l),
(374,-14,l),
(431,-46,l)
);
},
{
closed = 1;
nodes = (
(656,586,o),
(798,744,o),
(840,1038,cs),
(882,1328,o),
(780,1486,o),
(582,1486,cs),
(384,1486,o),
(240,1328,o),
(198,1038,cs),
(156,744,o),
(254,586,o),
(454,586,cs)
);
},
{
closed = 1;
nodes = (
(305,652,o),
(234,782,o),
(270,1038,cs),
(306,1290,o),
(415,1420,o),
(573,1420,cs),
(729,1420,o),
(804,1290,o),
(768,1038,cs),
(732,782,o),
(619,652,o),
(463,652,cs)
);
},
{
closed = 1;
nodes = (
(1474,-16,o),
(1614,142,o),
(1656,434,cs),
(1697,724,o),
(1602,884,o),
(1400,884,cs),
(1200,884,o),
(1055,724,o),
(1014,434,cs),
(972,140,o),
(1070,-16,o),
(1272,-16,cs)
);
},
{
closed = 1;
nodes = (
(1123,50,o),
(1052,180,o),
(1088,434,cs),
(1124,688,o),
(1233,816,o),
(1391,816,cs),
(1549,816,o),
(1622,688,o),
(1586,434,cs),
(1549,178,o),
(1439,50,o),
(1281,50,cs)
);
}
);
width = 1822;
}
);
leftKerningGroup = percent;
rightKerningGroup = percent;
unicode = 37;
}
{
color = 11;
glyphname = ampersand;
layers = (
{
layerId = "DFDA7944-A323-4357-A6CD-3EE161AE16F3";
shapes = (
{
closed = 1;
nodes = (
(766,-24,o),
(936,46,o),
(1080,160,c),
(1006,160,l),
(1137,0,l),
(1573,0,l),
(1236,384,l),
(1224,302,l),
(1363,462,o),
(1462,678,o),
(1502,906,c),
(1212,906,l),
(1179,754,o),
(1127,618,o),
(1047,502,c),
(1123,504,l),
(869,814,l),
(856,746,l),
(1056,844,o),
(1169,980,o),
(1193,1150,cs),
(1223,1360,o),
(1095,1496,o),
(857,1496,cs),
(593,1496,o),
(393,1344,o),
(361,1120,cs),
(344,1000,o),
(380,878,o),
(472,780,c),
(534,844,l),
(463,812,l),
(274,710,o),
(150,584,o),
(124,400,cs),
(88,144,o),
(270,-24,o),
(592,-24,cs)
);
},
{
closed = 1;
nodes = (
(532,246,o),
(466,312,o),
(481,422,cs),
(496,522,o),
(555,600,o),
(657,656,c),
(708,682,l),
(560,680,l),
(895,278,l),
(914,360,l),
(834,286,o),
(754,246,o),
(658,246,cs)
);
},
{
closed = 1;
nodes = (
(896,1264,o),
(930,1222,o),
(918,1138,cs),
(904,1044,o),
(845,982,o),
(698,918,c),
(776,918,l),
(704,998,o),
(676,1060,o),
(686,1126,cs),
(698,1210,o),
(750,1264,o),
(826,1264,cs)
);
}
);
width = 1535;
},
{
layerId = "E40C1264-1582-41D6-8175-F4C1F2081197";
shapes = (
{
closed = 1;
nodes = (
(717,-20,o),
(891,60,o),
(1024,198,c),
(978,198,l),
(1122,0,l),
(1369,0,l),
(1106,335,l),
(1102,281,l),
(1218,430,o),
(1308,637,o),
(1348,870,c),
(1175,870,l),
(1141,688,o),
(1082,522,o),
(1001,405,c),
(1046,407,l),
(746,819,l),
(736,778,l),
(972,913,o),
(1067,1031,o),
(1090,1187,cs),
(1116,1373,o),
(1001,1492,o),
(808,1492,cs),
(586,1492,o),
(423,1358,o),
(395,1160,cs),
(378,1046,o),
(414,938,o),
(517,801,c),
(550,839,l),
(486,802,l),
(266,664,o),
(151,546,o),
(125,362,cs),
(92,130,o),
(245,-20,o),
(533,-20,cs)
);
},
{
closed = 1;
nodes = (
(392,141,o),
(307,227,o),
(328,372,cs),
(347,503,o),
(418,589,o),
(590,700,c),
(649,735,l),
(571,733,l),
(919,264,l),
(930,323,l),
(830,204,o),
(713,141,o),
(569,141,cs)
);
},
{
closed = 1;
nodes = (
(885,1347,o),
(939,1284,o),
(924,1177,cs),
(909,1070,o),
(836,992,o),
(642,881,c),
(692,885,l),
(598,1012,o),
(571,1077,o),
(583,1162,cs),
(599,1274,o),
(680,1347,o),
(788,1347,cs)
);
}
);
width = 1397;
},
{
layerId = "9BC0C71B-A637-49D9-92D6-4EFEC3ADCDB0";
shapes = (
{
closed = 1;
nodes = (
(694,-16,o),
(870,72,o),
(995,232,c),
(973,232,l),
(1128,0,l),
(1208,0,l),
(1012,292,l),
(1013,262,l),
(1111,402,o),
(1192,600,o),
(1232,838,c),
(1162,838,l),
(1128,630,o),
(1061,438,o),
(980,320,c),
(998,322,l),
(658,824,l),
(651,806,l),
(919,974,o),
(998,1076,o),
(1018,1220,cs),
(1042,1384,o),
(939,1488,o),
(785,1488,cs),
(601,1488,o),
(470,1370,o),
(445,1196,cs),
(429,1086,o),
(463,990,o),
(577,820,c),
(583,834,l),
(525,794,ls),
(277,624,o),
(171,512,o),
(145,328,cs),
(115,118,o),
(244,-16,o),
(502,-16,cs)
);
},
{
closed = 1;
nodes = (
(289,48,o),
(188,152,o),
(213,328,cs),
(235,486,o),
(317,580,o),
(551,738,cs),
(616,782,l),
(599,780,l),
(960,252,l),
(963,290,l),
(847,132,o),
(697,48,o),
(511,48,cs)
);
},
{
closed = 1;
nodes = (
(897,1420,o),
(967,1338,o),
(949,1212,cs),
(932,1092,o),
(847,1000,o),
(611,848,c),
(638,856,l),
(524,1024,o),
(498,1092,o),
(513,1194,cs),
(532,1330,o),
(639,1420,o),
(775,1420,cs)
);
}
);
width = 1314;
}
);
leftKerningGroup = ampersand;
rightKerningGroup = ampersand;
unicode = 38;
}
{
color = 11;
glyphname = quotesingle;
layers = (
{
layerId = "AB3199DD-655E-4C0F-A34B-FD02744555A7";
shapes = (
{
closed = 1;
nodes = (
(439.141,946,l),
(591.997,1582,l),
(221.997,1582,l),
(193.141,946,l)
);
}
);
width = 542;
},
{
layerId = "64C9CF7B-5345-44EA-861F-4D3695E3DC07";
shapes = (
{
closed = 1;
nodes = (
(345,965,l),
(465,1554,l),
(251,1554,l),
(204,965,l)
);
}
);
width = 453;
},
{
layerId = "C792CAD3-12E8-4938-96FB-ECD54646BE96";
shapes = (
{
closed = 1;
nodes = (
(274.284,982,l),
(366.569,1530,l),
(290.569,1530,l),
(226.284,982,l)
);
}
);
width = 400;
}
);
leftKerningGroup = quotesingle;
rightKerningGroup = quotesingle;
unicode = 39;
}
{
color = 11;
glyphname = parenleft;
layers = (
{
layerId = "3A3913E4-B7FD-45BB-947A-8DA8E535625F";
associatedMasterId = "DFDA7944-A323-4357-A6CD-3EE161AE16F3";
name = "21년 12월 18일 16:40";
shapes = (
{
closed = 1;
nodes = (
(748,-130,l),
(626,198,o),
(580,430,o),
(580,736,cs),
(580,1038,o),
(626,1272,o),
(748,1600,c),
(512,1700,l),
(272,1394,o),
(194,1076,o),
(194,736,cs),
(194,394,o),
(280,76,o),
(512,-228,c)
);
}
);
width = 818;
},
{
layerId = "DFDA7944-A323-4357-A6CD-3EE161AE16F3";
shapes = (
{
closed = 1;
nodes = (
(751,-68,l),
(608,162,o),
(576,416,o),
(622,736,cs),
(668,1056,o),
(766,1308,o),
(979,1538,c),
(718,1700,l),
(434,1394,o),
(311,1076,o),
(262,736,cs),
(213,394,o),
(254,76,o),
(442,-228,c)
);
}
);
width = 819;
},
{
layerId = "E40C1264-1582-41D6-8175-F4C1F2081197";
shapes = (
{
closed = 1;
nodes = (
(561,-131,l),
(448,139,o),
(420,416,o),
(466,736,cs),
(512,1055,o),
(615,1330,o),
(808,1602,c),
(652,1690,l),
(423,1379,o),
(307,1068,o),
(259,736,cs),
(212,403,o),
(243,90,o),
(380,-218,c)
);
}
);
width = 652;
},
{
layerId = "34D2B962-D1F3-48C6-A1E9-AE48D498A80A";
associatedMasterId = "9BC0C71B-A637-49D9-92D6-4EFEC3ADCDB0";
name = "21년 12월 18일 16:41";
shapes = (
{
closed = 1;
nodes = (
(478,-192,l),
(350,110,o),
(282,424,o),
(282,736,cs),
(282,1046,o),
(350,1362,o),
(478,1662,c),
(416,1682,l),
(280,1366,o),
(212,1060,o),
(212,736,cs),
(212,410,o),
(280,102,o),
(416,-210,c)
);
}
);
width = 550;
},
{
layerId = "9BC0C71B-A637-49D9-92D6-4EFEC3ADCDB0";
shapes = (
{
closed = 1;
nodes = (
(418,-186,l),
(330,118,o),
(306,416,o),
(352,736,cs),
(398,1054,o),
(506,1350,o),
(682,1658,c),
(619,1682,l),
(438,1366,o),
(326,1060,o),
(280,736,cs),
(234,410,o),
(258,102,o),
(349,-210,c)
);
}
);
width = 552;
}
);
leftKerningGroup = parenleft;
rightKerningGroup = braceleft;
unicode = 40;
}
{
color = 11;
glyphname = parenright;
layers = (
{
layerId = "A4FDB69F-EDF7-46AC-8EE9-08C6BB3444DB";
name = "Black.21년 12월 18일 16:41";
shapes = (
{
closed = 1;
nodes = (
(308,-228,l),
(540,76,o),
(624,394,o),
(624,736,cs),
(624,1076,o),
(540,1394,o),
(308,1700,c),
(72,1598,l),
(192,1270,o),
(238,1038,o),
(238,736,cs),
(238,432,o),
(192,200,o),
(72,-128,c)
);
}
);
width = 818;
},
{
layerId = "163B1851-D59A-425D-A5BB-2DEF5ADBD151";
name = "Thin.21년 12월 18일 16:41";
shapes = (
{
closed = 1;
nodes = (
(132,-210,l),
(272,102,o),
(342,410,o),
(342,736,cs),
(342,1058,o),
(272,1364,o),
(132,1682,c),
(72,1662,l),
(202,1356,o),
(268,1042,o),
(268,736,cs),
(268,428,o),
(202,114,o),
(72,-192,c)
);
}
);
width = 550;
},
{
layerId = "74BA431A-305A-4713-B55D-0EBBAE8D1CDE";
shapes = (
{
closed = 1;
nodes = (
(152,1540,l),
(293,1310,o),
(325,1054,o),
(279,736,cs),
(233,416,o),
(129,162,o),
(-78,-68,c),
(185,-228,l),
(461,76,o),
(590,394,o),
(639,736,cs),
(688,1076,o),
(649,1394,o),
(461,1700,c)
);
}
);
width = 818;
},
{
layerId = "0037C824-E55C-4C72-8B66-C5A151689C78";
shapes = (
{
closed = 1;
nodes = (
(172,1603,l),
(287,1330,o),
(316,1053,o),
(270,736,cs),
(224,416,o),
(117,139,o),
(-76,-131,c),
(81,-218,l),
(309,90,o),
(430,403,o),
(477,736,cs),
(525,1066,o),
(493,1378,o),
(354,1690,c)
);
}
);
width = 651;
},
{
layerId = "6219A2BD-1940-4437-A1C4-EF2412E3F892";
shapes = (
{
closed = 1;
nodes = (
(213,1658,l),
(305,1348,o),
(330,1052,o),
(285,736,cs),
(239,416,o),
(129,118,o),
(-51,-186,c),
(12,-210,l),
(197,102,o),
(311,410,o),
(357,736,cs),
(403,1058,o),
(377,1364,o),
(282,1682,c)
);
}
);
width = 550;
}
);
leftKerningGroup = braceright;
rightKerningGroup = parenright;
unicode = 41;
}
{
color = 11;
glyphname = asterisk;
layers = (
{
layerId = "DFDA7944-A323-4357-A6CD-3EE161AE16F3";
shapes = (
{
closed = 1;
nodes = (
(597,1014,l),
(557,1014,l),
(637,724,l),
(865,846,l),
(716,1122,l),
(656,1048,l),
(986,1020,l),
(1020,1260,l),
(682,1234,l),
(721,1156,l),
(949,1432,l),
(756,1556,l),
(593,1268,l),
(633,1268,l),
(550,1556,l),
(323,1434,l),
(471,1154,l),
(534,1234,l),
(200,1260,l),
(166,1022,l),
(506,1048,l),
(466,1122,l),
(237,846,l),
(430,728,l)
);
}
);
width = 939;
},
{
layerId = "E40C1264-1582-41D6-8175-F4C1F2081197";
shapes = (
{
closed = 1;
nodes = (
(593,1075,l),
(569,1075,l),
(672,780,l),
(813,856,l),
(671,1142,l),
(637,1103,l),
(978,1086,l),
(1000,1237,l),
(653,1220,l),
(676,1178,l),
(901,1467,l),
(781,1542,l),
(593,1248,l),
(617,1248,l),
(511,1542,l),
(373,1468,l),
(514,1177,l),
(548,1220,l),
(207,1237,l),
(185,1087,l),
(531,1103,l),
(509,1142,l),
(284,856,l),
(402,781,l)
);
}
);
width = 930;
},
{
layerId = "9BC0C71B-A637-49D9-92D6-4EFEC3ADCDB0";
shapes = (
{
closed = 1;
nodes = (
(590,1128,l),
(580,1128,l),
(704,830,l),
(768,864,l),
(633,1160,l),
(622,1152,l),
(972,1144,l),
(983,1216,l),
(630,1208,l),
(638,1198,l),
(859,1498,l),
(804,1530,l),
(595,1230,l),
(605,1230,l),
(478,1530,l),
(417,1498,l),
(554,1198,l),
(562,1208,l),
(213,1216,l),
(202,1144,l),
(554,1152,l),
(549,1160,l),
(326,864,l),
(377,828,l)
);
}
);
width = 924;
}
);
leftKerningGroup = asterisk;
rightKerningGroup = asterisk;
unicode = 42;
}
{
color = 11;
glyphname = plus;
layers = (
{
layerId = "AB3199DD-655E-4C0F-A34B-FD02744555A7";
shapes = (
{
closed = 1;
nodes = (
(669,242,l),
(723,624,l),
(1095,624,l),
(1129,862,l),
(757,862,l),
(810,1232,l),
(560,1232,l),
(507,862,l),
(137,862,l),
(103,624,l),
(473,624,l),
(419,242,l)
);
}
);
width = 1200;
},
{
layerId = "64C9CF7B-5345-44EA-861F-4D3695E3DC07";
shapes = (
{
closed = 1;
nodes = (
(621,242,l),
(682,669,l),
(1101,669,l),
(1123,815,l),
(703,815,l),
(762,1232,l),
(608,1232,l),
(548,815,l),
(131,815,l),
(109,669,l),
(527,669,l),
(467,242,l)
);
}
);
width = 1200;
},
{
layerId = "C792CAD3-12E8-4938-96FB-ECD54646BE96";
shapes = (
{
closed = 1;
nodes = (
(579,242,l),
(645,708,l),
(1107,708,l),
(1117,774,l),
(655,774,l),
(720,1232,l),
(650,1232,l),
(585,774,l),
(125,774,l),
(115,708,l),
(575,708,l),
(509,242,l)
);
}
);
width = 1200;
}
);
unicode = 43;
}
{
color = 11;
glyphname = comma;
layers = (
{
layerId = "5EA03069-F5A4-4CF4-B90F-BC31837FDDBC";
name = "Black.21년 12월 18일 14:29";
shapes = (
{
closed = 1;
nodes = (
(258,-320,l),
(408,-168,o),
(460,-36,o),
(460,134,cs),
(460,370,l),
(86,370,l),
(86,0,l),
(344,0,l),
(268,86,l),
(268,-22,o),
(222,-108,o),
(122,-212,c)
);
}
);
width = 550;
},
{
layerId = "7848A900-6C75-4CCE-B6D5-AF0727BD1A94";
name = "Thin.21년 12월 18일 14:30";
shapes = (
{
closed = 1;
nodes = (
(190,-196,l),
(254,-136,o),
(270,-60,o),
(270,22,cs),
(270,128,l),
(148,128,l),
(148,0,l),
(220,0,l),
(204,8,l),
(204,-48,o),
(196,-100,o),
(142,-162,c)
);
}
);
width = 418;
},
{
layerId = "74BA431A-305A-4713-B55D-0EBBAE8D1CDE";
shapes = (
{
closed = 1;
nodes = (
(81,-376,l),
(382,260,l),
(12,260,l),
(-165,-376,l)
);
}
);
width = 500;
},
{
layerId = "0037C824-E55C-4C72-8B66-C5A151689C78";
shapes = (
{
closed = 1;
nodes = (
(52,-376,l),
(310,213,l),
(96,213,l),
(-90,-376,l)
);
}
);
width = 500;
},
{
layerId = "6219A2BD-1940-4437-A1C4-EF2412E3F892";
shapes = (
{
closed = 1;
nodes = (
(27,-376,l),
(246,172,l),
(170,172,l),
(-23,-376,l)
);
}
);
width = 500;
}
);
leftKerningGroup = period;
rightKerningGroup = period;
unicode = 44;
}
{
color = 11;
glyphname = hyphen;
layers = (
{
layerId = "AB3199DD-655E-4C0F-A34B-FD02744555A7";
shapes = (
{
closed = 1;
nodes = (
(823.999,602,l),
(862.284,870,l),
(162.284,870,l),
(123.999,602,l)
);
}
);
width = 956;
},
{
layerId = "64C9CF7B-5345-44EA-861F-4D3695E3DC07";
shapes = (
{
closed = 1;
nodes = (
(775,657,l),
(797,815,l),
(165,815,l),
(143,657,l)
);
}
);
width = 909;
},
{
layerId = "C792CAD3-12E8-4938-96FB-ECD54646BE96";
shapes = (
{
closed = 1;
nodes = (
(736.856,706,l),
(745.427,766,l),
(173.427,766,l),
(164.856,706,l)
);
}
);
width = 880;
}
);
leftKerningGroup = hyphen;
rightKerningGroup = hyphen;
unicode = 45;
}
{
color = 11;
glyphname = period;
layers = (
{
layerId = "AA9127E2-66D7-45E5-8D77-9FE81E534461";
shapes = (
{
closed = 1;
nodes = (
(347,0,l),
(399.856,370,l),
(25.856,370,l),
(-27,0,l)
);
}
);
width = 500;
},
{
layerId = "780D6C53-D363-41D3-A45B-4CEB198897BB";
shapes = (
{
closed = 1;
nodes = (
(280,0,l),
(314,241,l),
(74,241,l),
(40,0,l)
);
}
);
width = 500;
},
{
layerId = "15DD03C9-6E3F-4F53-9575-CC59ABE7D50E";
shapes = (
{
closed = 1;
nodes = (
(221,0,l),
(239.285,128,l),
(117.285,128,l),
(99,0,l)
);
}
);
width = 500;
}
);
leftKerningGroup = period;
rightKerningGroup = period;
unicode = 46;
}
{
color = 11;
glyphname = slash;
layers = (
{
layerId = "AB3199DD-655E-4C0F-A34B-FD02744555A7";
shapes = (
{
closed = 1;
nodes = (
(873,1548,l),
(622,1622,l),
(-139,-74,l),
(113,-150,l)
);
}
);
width = 704;
},
{
layerId = "64C9CF7B-5345-44EA-861F-4D3695E3DC07";
shapes = (
{
closed = 1;
nodes = (
(755,1548,l),
(605,1593,l),
(-146,-76,l),
(6,-121,l)
);
}
);
width = 579;
},
{
layerId = "C792CAD3-12E8-4938-96FB-ECD54646BE96";
shapes = (
{
closed = 1;
nodes = (
(667,1548,l),
(606,1568,l),
(-135,-78,l),
(-72,-96,l)
);
}
);
width = 504;
}
);
leftKerningGroup = slash;
rightKerningGroup = slash;
unicode = 47;
}
{
glyphname = zero;
layers = (
{
layerId = "AB3199DD-655E-4C0F-A34B-FD02744555A7";
shapes = (
{
closed = 1;
nodes = (
(895,-18,o),
(1132,250,o),
(1201,738,cs),
(1269,1214,o),
(1110,1486,o),
(748,1486,cs),
(392,1486,o),
(151,1214,o),
(84,740,cs),
(14,250,o),
(177,-18,o),
(533,-18,cs)
);
},
{
closed = 1;
nodes = (
(433,258,o),
(389,400,o),
(437,738,cs),
(485,1068,o),
(569,1208,o),
(709,1208,cs),
(851,1208,o),
(895,1070,o),
(847,738,cs),
(799,402,o),
(715,258,o),
(573,258,cs)
);
}
);
width = 1254;
},
{
layerId = "64C9CF7B-5345-44EA-861F-4D3695E3DC07";
shapes = (
{
closed = 1;
nodes = (
(875,-17,o),
(1096,246,o),
(1166,738,cs),
(1236,1226,o),
(1090,1487,o),
(749,1487,cs),
(410,1487,o),
(187,1224,o),
(117,736,cs),
(47,245,o),
(195,-17,o),
(534,-17,cs)
);
},
{
closed = 1;
nodes = (
(343,153,o),
(268,335,o),
(325,738,cs),
(383,1138,o),
(509,1317,o),
(724,1317,cs),
(943,1317,o),
(1016,1140,o),
(958,738,cs),
(900,334,o),
(776,153,o),
(558,153,cs)
);
}
);
width = 1254;
},
{
layerId = "C792CAD3-12E8-4938-96FB-ECD54646BE96";
shapes = (
{
closed = 1;
nodes = (
(858,-16,o),
(1065,242,o),
(1135,738,cs),
(1207,1236,o),
(1073,1488,o),
(749,1488,cs),
(425,1488,o),
(218,1232,o),
(147,732,cs),
(76,240,o),
(210,-16,o),
(534,-16,cs)
);
},
{
closed = 1;
nodes = (
(263,60,o),
(162,278,o),
(227,738,cs),
(293,1200,o),
(456,1414,o),
(738,1414,cs),
(1024,1414,o),
(1122,1202,o),
(1055,738,cs),
(989,274,o),
(829,60,o),
(545,60,cs)
);
}
);
width = 1254;
}
);
leftKerningGroup = zero;
rightKerningGroup = zero;
unicode = 48;
}
{
glyphname = one;
layers = (
{
layerId = "AB3199DD-655E-4C0F-A34B-FD02744555A7";
shapes = (
{
closed = 1;
nodes = (
(794,0,l),
(1004,1472,l),
(744,1472,l),
(214,1192,l),
(311,928,l),
(765,1166,l),
(593,1170,l),
(426,0,l)
);
},
{
closed = 1;
nodes = (
(1112,0,l),
(1154,296,l),
(154,296,l),
(112,0,l)
);
}
);
width = 1254;
},
{
layerId = "64C9CF7B-5345-44EA-861F-4D3695E3DC07";
shapes = (
{
closed = 1;
nodes = (
(706,0,l),
(916,1472,l),
(764,1472,l),
(322,1220,l),
(388,1068,l),
(791,1295,l),
(683,1309,l),
(496,0,l)
);
},
{
closed = 1;
nodes = (
(1023,0,l),
(1047,173,l),
(194,173,l),
(169,0,l)
);
}
);
width = 1254;
},
{
layerId = "C792CAD3-12E8-4938-96FB-ECD54646BE96";
shapes = (
{
closed = 1;
nodes = (
(628,0,l),
(838,1472,l),
(782,1472,l),
(418,1244,l),
(456,1191,l),
(813,1409,l),
(763,1432,l),
(558,0,l)
);
},
{
closed = 1;
nodes = (
(944,0,l),
(953,64,l),
(229,64,l),
(220,0,l)
);
}
);
width = 1254;
}
);
leftKerningGroup = one;
rightKerningGroup = one;
unicode = 49;
}
{
glyphname = two;
layers = (
{
layerId = "DFDA7944-A323-4357-A6CD-3EE161AE16F3";
shapes = (
{
closed = 1;
nodes = (
(1133,0,l),
(93,0,l),
(111,126,ls),
(127,237,o),
(166,328,o),
(222,410,cs),
(297,521,o),
(411,625,o),
(559,719,cs),
(645,774,o),
(716,830,o),
(765,882,cs),
(812,932,o),
(843,983,o),
(852,1045,cs),
(865,1136,o),
(820,1184,o),
(706,1184,cs),
(592,1184,o),
(436,1131,o),
(315,1052,c),
(233,1332,l),
(362,1426,o),
(578,1488,o),
(774,1488,cs),
(1092,1488,o),
(1278,1326,o),
(1241,1065,cs),
(1224,943,o),
(1163,839,o),
(1081,747,cs),
(1026,685,o),
(957,624,o),
(844,545,cs),
(782,501,o),
(719,453,o),
(688,424,cs),
(645,384,o),
(622,342,o),
(618,314,c),
(618,314,l),
(1178,314,l)
);
}
);
width = 1255;
},
{
layerId = "E40C1264-1582-41D6-8175-F4C1F2081197";
shapes = (
{
closed = 1;
nodes = (
(1099,0,l),
(140,0,l),
(157,116,ls),
(173,228,o),
(222,326,o),
(298,418,cs),
(378,515,o),
(498,619,o),
(690,717,cs),
(758,752,o),
(838,798,o),
(899,871,cs),
(948,929,o),
(981,1000,o),
(992,1078,cs),
(1014,1233,o),
(936,1317,o),
(764,1317,cs),
(630,1317,o),
(460,1253,o),
(338,1158,c),
(289,1311,l),
(417,1417,o),
(622,1487,o),
(806,1487,cs),
(1077,1487,o),
(1233,1336,o),
(1197,1082,cs),
(1181,972,o),
(1134,874,o),
(1058,786,cs),
(991,707,o),
(890,623,o),
(692,516,cs),
(649,493,o),
(572,450,o),
(496,374,cs),
(438,316,o),
(407,265,o),
(397,195,cs),
(394,172,l),
(1124,172,l)
);
}
);
width = 1255;
},
{
layerId = "9BC0C71B-A637-49D9-92D6-4EFEC3ADCDB0";
shapes = (
{
closed = 1;
nodes = (
(1075,0,l),
(175,0,l),
(190,108,ls),
(207,221,o),
(261,324,o),
(346,414,cs),
(436,510,o),
(560,592,o),
(706,655,cs),
(838,713,o),
(927,775,o),
(989,854,cs),
(1046,926,o),
(1082,1012,o),
(1094,1101,cs),
(1123,1304,o),
(1021,1414,o),
(807,1414,cs),
(657,1414,o),
(477,1343,o),
(356,1236,c),
(330,1296,l),
(458,1410,o),
(655,1486,o),
(829,1486,cs),
(1067,1486,o),
(1199,1344,o),
(1163,1090,cs),
(1149,993,o),
(1113,899,o),
(1045,817,cs),
(965,723,o),
(843,646,o),
(703,580,cs),
(555,511,o),
(466,447,o),
(417,397,cs),
(340,319,o),
(276,191,o),
(264,108,cs),
(259,68,l),
(1085,68,l)
);
}
);
width = 1255;
}
);
leftKerningGroup = two;
rightKerningGroup = two;
unicode = 50;
}
{
glyphname = three;
layers = (
{
layerId = "AA9127E2-66D7-45E5-8D77-9FE81E534461";
shapes = (
{
closed = 1;
nodes = (
(1187,1256,l),
(1218,1472,l),
(282,1472,l),
(240,1178,l),
(878,1178,l)
);
},
{
closed = 1;
nodes = (
(384,866,l),
(353,648,l),
(569,648,ls),
(721,648,o),
(797,582,o),
(779,456,cs),
(762,334,o),
(666,268,o),
(514,268,cs),
(386,268,o),
(255,316,o),
(135,402,c),
(-12,142,l),
(87,38,o),
(286,-16,o),
(492,-16,cs),
(836,-16,o),
(1089,174,o),
(1129,456,cs),
(1170,742,o),
(971,934,o),
(627,934,c)
);
},
{
closed = 1;
nodes = (
(1187,1256,l),
(1088,1472,l),
(384,866,l),
(475,648,l)
);
}
);
width = 1254;
},
{
layerId = "780D6C53-D363-41D3-A45B-4CEB198897BB";
shapes = (
{
closed = 1;
nodes = (
(1165,1344,l),
(1183,1472,l),
(311,1472,l),
(286,1300,l),
(1005,1300,l)
);
},
{
closed = 1;
nodes = (
(439,851,l),
(420,721,l),
(613,721,ls),
(807,721,o),
(901,620,o),
(876,439,cs),
(850,258,o),
(726,156,o),
(532,156,cs),
(384,156,o),
(252,211,o),
(133,319,c),
(39,162,l),
(144,50,o),
(321,-15,o),
(513,-15,cs),
(816,-15,o),
(1040,167,o),
(1079,439,cs),
(1118,713,o),
(945,893,o),
(642,893,c)
);
},
{
closed = 1;
nodes = (
(1165,1344,l),
(1100,1472,l),
(439,851,l),
(503,722,l)
);
}
);
width = 1254;
},
{
layerId = "15DD03C9-6E3F-4F53-9575-CC59ABE7D50E";
shapes = (
{
closed = 1;
nodes = (
(1145,1422,l),
(1152,1472,l),
(336,1472,l),
(327,1408,l),
(1117,1408,l)
);
},
{
closed = 1;
nodes = (
(488,838,l),
(480,786,l),
(652,786,ls),
(882,786,o),
(993,654,o),
(961,424,cs),
(927,190,o),
(778,58,o),
(548,58,cs),
(382,58,o),
(249,118,o),
(131,246,c),
(84,180,l),
(195,60,o),
(352,-14,o),
(532,-14,cs),
(798,-14,o),
(997,160,o),
(1035,424,cs),
(1072,688,o),
(922,856,o),
(656,856,c)
);
},
{
closed = 1;
nodes = (
(1145,1422,l),
(1110,1472,l),
(488,838,l),
(527,788,l)
);
}
);
width = 1254;
}
);
leftKerningGroup = three;
rightKerningGroup = three;
unicode = 51;
}
{
glyphname = four;
layers = (
{
layerId = "4FC99450-5431-44D2-9A4D-DCE952E03FEC";
name = "#instance";
shapes = (
{
closed = 1;
nodes = (
(802,1472,l),
(84,522,l),
(60,349,l),
(1146,349,l),
(1171,531,l),
(234,531,l),
(239,448,l),
(1012,1472,l)
);
},
{
closed = 1;
nodes = (
(702,0,l),
(906,0,l),
(1029,858,l),
(825,858,l)
);
}
);
width = 1254;
},
{
layerId = "AB3199DD-655E-4C0F-A34B-FD02744555A7";
shapes = (
{
closed = 1;
nodes = (
(732,1472,l),
(63,584,l),
(23,298,l),
(1167,298,l),
(1209,592,l),
(331,592,l),
(367,510,l),
(1094,1472,l)
);
},
{
closed = 1;
nodes = (
(636,0,l),
(994,0,l),
(1117,858,l),
(759,858,l)
);
}
);
width = 1254;
},
{
layerId = "64C9CF7B-5345-44EA-861F-4D3695E3DC07";
shapes = (
{
closed = 1;
nodes = (
(802,1472,l),
(84,522,l),
(60,349,l),
(1146,349,l),
(1171,531,l),
(234,531,l),
(239,448,l),
(1012,1472,l)
);
},
{
closed = 1;
nodes = (
(702,0,l),
(906,0,l),
(1029,858,l),
(825,858,l)
);
}
);
width = 1254;
},
{
layerId = "C792CAD3-12E8-4938-96FB-ECD54646BE96";
shapes = (
{
closed = 1;
nodes = (
(864,1472,l),
(101,468,l),
(93,414,l),
(1129,414,l),
(1138,478,l),
(148,478,l),
(159,439,l),
(940,1472,l)
);
},
{
closed = 1;
nodes = (
(760,0,l),
(828,0,l),
(951,858,l),
(883,858,l)
);
}
);
width = 1254;
}
);
leftKerningGroup = four;
rightKerningGroup = four;
unicode = 52;
}
{
glyphname = five;
layers = (
{
layerId = "DFDA7944-A323-4357-A6CD-3EE161AE16F3";
shapes = (
{
closed = 1;
nodes = (
(925,-16,o),
(1181,180,o),
(1224,486,cs),
(1265,770,o),
(1098,958,o),
(824,958,cs),
(690,958,o),
(586,944,o),
(492,904,c),
(591,812,l),
(678,1194,l),
(1250,1194,l),
(1289,1472,l),
(397,1472,l),
(207,646,l),
(413,646,l),
(486,668,o),
(595,686,o),
(675,686,cs),
(821,686,o),
(898,606,o),
(878,472,cs),
(859,334,o),
(771,268,o),
(609,268,cs),
(477,268,o),
(354,312,o),
(232,402,c),
(79,142,l),
(181,42,o),
(375,-16,o),
(567,-16,cs)
);
}
);
width = 1255;
},
{
layerId = "E40C1264-1582-41D6-8175-F4C1F2081197";
shapes = (
{
closed = 1;
nodes = (
(918,-15,o),
(1146,179,o),
(1186,465,cs),
(1226,742,o),
(1073,930,o),
(792,930,cs),
(638,930,o),
(510,903,o),
(422,853,c),
(480,800,l),
(594,1305,l),
(1245,1305,l),
(1269,1472,l),
(438,1472,l),
(259,695,l),
(393,695,l),
(480,739,o),
(596,764,o),
(724,764,cs),
(910,764,o),
(1008,641,o),
(981,458,cs),
(954,269,o),
(826,156,o),
(627,156,cs),
(482,156,o),
(354,212,o),
(236,319,c),
(139,162,l),
(243,52,o),
(423,-15,o),
(602,-15,cs)
);
}
);
width = 1255;
},
{
layerId = "9BC0C71B-A637-49D9-92D6-4EFEC3ADCDB0";
shapes = (
{
closed = 1;
nodes = (
(910,-14,o),
(1113,178,o),
(1152,446,cs),
(1191,718,o),
(1049,906,o),
(763,906,cs),
(591,906,o),
(442,866,o),
(359,808,c),
(381,790,l),
(520,1402,l),
(1240,1402,l),
(1250,1472,l),
(474,1472,l),
(303,738,l),
(375,738,l),
(473,802,o),
(597,832,o),
(767,832,cs),
(987,832,o),
(1104,672,o),
(1072,446,cs),
(1038,212,o),
(874,58,o),
(642,58,cs),
(486,58,o),
(354,124,o),
(237,246,c),
(192,180,l),
(297,60,o),
(464,-14,o),
(632,-14,cs)
);
}
);
width = 1255;
}
);
leftKerningGroup = five;
rightKerningGroup = five;
unicode = 53;
}
{
glyphname = six;
layers = (
{
layerId = "AB3199DD-655E-4C0F-A34B-FD02744555A7";
shapes = (
{
closed = 1;
nodes = (
(340,992,o),
(85,788,o),
(41,486,cs),
(-2,184,o),
(196,-16,o),
(536,-16,cs),
(878,-16,o),
(1134,184,o),
(1177,486,cs),
(1221,788,o),
(1022,992,o),
(680,992,cs)
);
},
{
closed = 1;
nodes = (
(432,268,o),
(363,344,o),
(383,486,cs),
(403,626,o),
(495,704,o),
(639,704,cs),
(783,704,o),
(853,626,o),
(833,486,cs),
(813,344,o),
(720,268,o),
(576,268,cs)
);
},
{
closed = 1;
nodes = (
(756,1472,l),
(176,786,l),
(416,602,l),
(1156,1472,l)
);
}
);
width = 1256;
},
{
layerId = "64C9CF7B-5345-44EA-861F-4D3695E3DC07";
shapes = (
{
closed = 1;
nodes = (
(350,944,o),
(108,752,o),
(67,465,cs),
(26,177,o),
(213,-15,o),
(535,-15,cs),
(857,-15,o),
(1097,177,o),
(1138,465,cs),
(1180,752,o),
(994,944,o),
(672,944,cs)
);
},
{
closed = 1;
nodes = (
(346,156,o),
(242,266,o),
(271,465,cs),
(299,661,o),
(434,772,o),
(648,772,cs),
(861,772,o),
(964,661,o),
(936,465,cs),
(907,266,o),
(772,156,o),
(559,156,cs)
);
},
{
closed = 1;
nodes = (
(807,1472,l),
(206,759,l),
(346,651,l),
(1039,1472,l)
);
}
);
width = 1256;
},
{
layerId = "C792CAD3-12E8-4938-96FB-ECD54646BE96";
shapes = (
{
closed = 1;
nodes = (
(359,902,o),
(129,720,o),
(90,446,cs),
(50,170,o),
(228,-14,o),
(534,-14,cs),
(838,-14,o),
(1064,170,o),
(1104,446,cs),
(1143,720,o),
(969,902,o),
(665,902,cs)
);
},
{
closed = 1;
nodes = (
(270,58,o),
(136,198,o),
(172,446,cs),
(207,692,o),
(381,832,o),
(655,832,cs),
(929,832,o),
(1061,692,o),
(1026,446,cs),
(990,198,o),
(818,58,o),
(544,58,cs)
);
},
{
closed = 1;
nodes = (
(852,1472,l),
(233,736,l),
(285,694,l),
(936,1472,l)
);
}
);
width = 1256;
}
);
leftKerningGroup = six;
rightKerningGroup = six;
unicode = 54;
}
{
glyphname = seven;
layers = (
{
layerId = "AA9127E2-66D7-45E5-8D77-9FE81E534461";
shapes = (
{
closed = 1;
nodes = (
(1251,1198,l),
(1290,1472,l),
(204,1472,l),
(162,1178,l),
(908,1178,l),
(923,1278,l),
(42,0,l),
(434,0,l)
);
}
);
width = 1254;
},
{
layerId = "780D6C53-D363-41D3-A45B-4CEB198897BB";
shapes = (
{
closed = 1;
nodes = (
(1220,1316,l),
(1242,1472,l),
(252,1472,l),
(227,1300,l),
(1042,1300,l),
(1042,1376,l),
(128,0,l),
(352,0,l)
);
}
);
width = 1254;
},
{
layerId = "15DD03C9-6E3F-4F53-9575-CC59ABE7D50E";
shapes = (
{
closed = 1;
nodes = (
(1193,1420,l),
(1200,1472,l),
(294,1472,l),
(285,1408,l),
(1161,1408,l),
(1147,1462,l),
(204,0,l),
(280,0,l)
);
}
);
width = 1254;
}
);
leftKerningGroup = seven;
rightKerningGroup = seven;
unicode = 55;
}
{
glyphname = eight;
layers = (
{
layerId = "DFDA7944-A323-4357-A6CD-3EE161AE16F3";
shapes = (
{
closed = 1;
nodes = (
(942,-16,o),
(1184,142,o),
(1222,404,cs),
(1251,608,o),
(1154,742,o),
(947,774,c),
(942,742,l),
(1124,768,o),
(1253,902,o),
(1279,1088,cs),
(1315,1340,o),
(1131,1490,o),
(801,1490,cs),
(473,1490,o),
(243,1340,o),
(207,1088,cs),
(182,910,o),
(269,778,o),
(452,740,c),
(455,774,l),
(239,750,o),
(103,610,o),
(74,404,cs),
(36,142,o),
(232,-16,o),
(586,-16,cs)
);
},
{
closed = 1;
nodes = (
(469,260,o),
(398,322,o),
(414,434,cs),
(431,550,o),
(518,602,o),
(674,602,cs),
(832,602,o),
(905,550,o),
(888,434,cs),
(872,322,o),
(783,260,o),
(625,260,cs)
);
},
{
closed = 1;
nodes = (
(586,884,o),
(521,934,o),
(538,1050,cs),
(554,1162,o),
(629,1214,o),
(761,1214,cs),
(893,1214,o),
(950,1162,o),
(934,1050,cs),
(917,934,o),
(846,884,o),
(714,884,cs)
);
}
);
width = 1255;
},
{
layerId = "E40C1264-1582-41D6-8175-F4C1F2081197";
shapes = (
{
closed = 1;
nodes = (
(928,-15,o),
(1146,138,o),
(1182,392,cs),
(1211,595,o),
(1103,737,o),
(897,770,c),
(904,741,l),
(1084,775,o),
(1219,912,o),
(1245,1095,cs),
(1280,1339,o),
(1118,1489,o),
(801,1489,cs),
(485,1489,o),
(278,1339,o),
(243,1095,cs),
(218,915,o),
(314,779,o),
(487,740,c),
(502,770,l),
(286,740,o),
(137,596,o),
(108,392,cs),
(72,138,o),
(245,-15,o),
(586,-15,cs)
);
},
{
closed = 1;
nodes = (
(383,154,o),
(287,240,o),
(311,407,cs),
(335,572,o),
(456,663,o),
(683,663,cs),
(912,663,o),
(1007,572,o),
(983,407,cs),
(959,240,o),
(839,154,o),
(610,154,cs)
);
},
{
closed = 1;
nodes = (
(508,829,o),
(419,919,o),
(442,1078,cs),
(464,1233,o),
(577,1320,o),
(777,1320,cs),
(977,1320,o),
(1064,1233,o),
(1042,1078,cs),
(1019,919,o),
(906,829,o),
(706,829,cs)
);
}
);
width = 1255;
},
{
layerId = "9BC0C71B-A637-49D9-92D6-4EFEC3ADCDB0";
shapes = (
{
closed = 1;
nodes = (
(916,-14,o),
(1111,134,o),
(1147,382,cs),
(1175,584,o),
(1059,732,o),
(853,766,c),
(870,740,l),
(1048,782,o),
(1189,920,o),
(1215,1102,cs),
(1249,1338,o),
(1107,1488,o),
(801,1488,cs),
(495,1488,o),
(309,1338,o),
(275,1102,cs),
(249,920,o),
(353,780,o),
(518,740,c),
(543,766,l),
(327,732,o),
(167,584,o),
(139,382,cs),
(103,134,o),
(256,-14,o),
(586,-14,cs)
);
},
{
closed = 1;
nodes = (
(307,60,o),
(190,168,o),
(221,384,cs),
(251,592,o),
(400,716,o),
(690,716,cs),
(982,716,o),
(1097,592,o),
(1067,384,cs),
(1036,168,o),
(889,60,o),
(597,60,cs)
);
},
{
closed = 1;
nodes = (
(439,780,o),
(329,906,o),
(357,1102,cs),
(385,1296,o),
(530,1414,o),
(790,1414,cs),
(1050,1414,o),
(1165,1296,o),
(1137,1102,cs),
(1109,906,o),
(959,780,o),
(699,780,cs)
);
}
);
width = 1255;
}
);
leftKerningGroup = eight;
rightKerningGroup = eight;
unicode = 56;
}
{
glyphname = nine;
layers = (
{
layerId = "DFDA7944-A323-4357-A6CD-3EE161AE16F3";
shapes = (
{
closed = 1;
nodes = (
(1001,480,o),
(1258,684,o),
(1301,986,cs),
(1344,1288,o),
(1145,1488,o),
(803,1488,cs),
(463,1488,o),
(208,1288,o),
(165,986,cs),
(122,684,o),
(319,480,o),
(659,480,cs)
);
},
{
closed = 1;
nodes = (
(906,1204,o),
(977,1128,o),
(957,986,cs),
(937,846,o),
(844,768,o),
(700,768,cs),
(556,768,o),
(487,846,o),
(507,986,cs),
(527,1128,o),
(618,1204,o),
(762,1204,cs)
);
},
{
closed = 1;
nodes = (
(584,0,l),
(1164,686,l),
(922,870,l),
(186,0,l)
);
}
);
width = 1255;
},
{
layerId = "E40C1264-1582-41D6-8175-F4C1F2081197";
shapes = (
{
closed = 1;
nodes = (
(986,528,o),
(1227,720,o),
(1268,1007,cs),
(1309,1295,o),
(1123,1487,o),
(801,1487,cs),
(479,1487,o),
(238,1295,o),
(197,1007,cs),
(156,720,o),
(342,528,o),
(664,528,cs)
);
},
{
closed = 1;
nodes = (
(990,1316,o),
(1093,1206,o),
(1065,1007,cs),
(1037,811,o),
(902,700,o),
(689,700,cs),
(476,700,o),
(373,811,o),
(401,1007,cs),
(429,1206,o),
(564,1316,o),
(777,1316,cs)
);
},
{
closed = 1;
nodes = (
(529,0,l),
(1130,713,l),
(988,821,l),
(297,0,l)
);
}
);
width = 1255;
},
{
layerId = "9BC0C71B-A637-49D9-92D6-4EFEC3ADCDB0";
shapes = (
{
closed = 1;
nodes = (
(973,570,o),
(1199,752,o),
(1239,1026,cs),
(1278,1302,o),
(1104,1486,o),
(800,1486,cs),
(494,1486,o),
(264,1302,o),
(225,1026,cs),
(185,752,o),
(363,570,o),
(669,570,cs)
);
},
{
closed = 1;
nodes = (
(1064,1414,o),
(1196,1274,o),
(1161,1026,cs),
(1125,780,o),
(953,640,o),
(679,640,cs),
(405,640,o),
(271,780,o),
(307,1026,cs),
(342,1274,o),
(516,1414,o),
(790,1414,cs)
);
},
{
closed = 1;
nodes = (
(480,0,l),
(1099,736,l),
(1047,778,l),
(394,0,l)
);
}
);
width = 1255;
}
);
leftKerningGroup = nine;
rightKerningGroup = nine;
unicode = 57;
}
{
color = 11;
glyphname = colon;
layers = (
{
layerId = "AB3199DD-655E-4C0F-A34B-FD02744555A7";
shapes = (
{
closed = 1;
nodes = (
(454,750,l),
(507,1122,l),
(133,1122,l),
(80,750,l)
);
},
{
closed = 1;
nodes = (
(347,0,l),
(400,370,l),
(26,370,l),
(-27,0,l)
);
}
);
width = 500;
},
{
layerId = "64C9CF7B-5345-44EA-861F-4D3695E3DC07";
shapes = (
{
closed = 1;
nodes = (
(404,869,l),
(438,1111,l),
(198,1111,l),
(164,869,l)
);
},
{
closed = 1;
nodes = (
(280,0,l),
(314,241,l),
(74,241,l),
(40,0,l)
);
}
);
width = 500;
},
{
layerId = "C792CAD3-12E8-4938-96FB-ECD54646BE96";
shapes = (
{
closed = 1;
nodes = (
(360,974,l),
(378,1102,l),
(256,1102,l),
(238,974,l)
);
},
{
closed = 1;
nodes = (
(221,0,l),
(239,128,l),
(117,128,l),
(99,0,l)
);
}
);
width = 500;
}
);
leftKerningGroup = colon;
rightKerningGroup = colon;
unicode = 58;
}
{
color = 11;
glyphname = semicolon;
layers = (
{
layerId = "704F8ECC-47CF-446D-B14F-476EEF11F321";
name = "Black.21년 12월 18일 14:29";
shapes = (
{
closed = 1;
nodes = (
(81,-376,l),
(382,260,l),
(12,260,l),
(-165,-376,l)
);
}
);
width = 550;
},
{
layerId = "4CBFFFDF-A6E4-48EA-9D14-E0AE98B875E5";
name = "Thin.21년 12월 18일 14:30";
shapes = (
{
closed = 1;
nodes = (
(27,-376,l),
(246,172,l),
(170,172,l),
(-23,-376,l)
);
}
);
width = 418;
},
{
layerId = "AB3199DD-655E-4C0F-A34B-FD02744555A7";
shapes = (
{
closed = 1;
nodes = (
(454,750,l),
(507,1122,l),
(133,1122,l),
(80,750,l)
);
},
{
closed = 1;
nodes = (
(82,-376,l),
(383,260,l),
(13,260,l),
(-164,-376,l)
);
}
);
width = 500;
},
{
layerId = "64C9CF7B-5345-44EA-861F-4D3695E3DC07";
shapes = (
{
closed = 1;
nodes = (
(404,869,l),
(438,1111,l),
(198,1111,l),
(164,869,l)
);
},
{
closed = 1;
nodes = (
(53,-376,l),
(310,213,l),
(96,213,l),
(-89,-376,l)
);
}
);
width = 500;
},
{
layerId = "C792CAD3-12E8-4938-96FB-ECD54646BE96";
shapes = (
{
closed = 1;
nodes = (
(360,974,l),
(378,1102,l),
(256,1102,l),
(238,974,l)
);
},
{
closed = 1;
nodes = (
(27,-376,l),
(246,172,l),
(170,172,l),
(-23,-376,l)
);
}
);
width = 500;
}
);
leftKerningGroup = colon;
rightKerningGroup = colon;
unicode = 59;
}
{
color = 11;
glyphname = less;
layers = (
{
layerId = "AB3199DD-655E-4C0F-A34B-FD02744555A7";
shapes = (
{
closed = 1;
nodes = (
(1073,468,l),
(220,826,l),
(195,648,l),
(1149,1004,l),
(1188,1272,l),
(139,872,l),
(101,606,l),
(1035,202,l)
);
}
);
width = 1200;
},
{
layerId = "64C9CF7B-5345-44EA-861F-4D3695E3DC07";
shapes = (
{
closed = 1;
nodes = (
(1060,379,l),
(197,787,l),
(183,685,l),
(1162,1093,l),
(1186,1261,l),
(131,815,l),
(108,659,l),
(1036,212,l)
);
}
);
width = 1200;
},
{
layerId = "C792CAD3-12E8-4938-96FB-ECD54646BE96";
shapes = (
{
closed = 1;
nodes = (
(1049,300,l),
(177,752,l),
(173,718,l),
(1173,1172,l),
(1185,1252,l),
(123,764,l),
(115,706,l),
(1037,220,l)
);
}
);
width = 1200;
}
);
unicode = 60;
}
{
color = 11;
glyphname = equal;
layers = (
{
layerId = "74BA431A-305A-4713-B55D-0EBBAE8D1CDE";
shapes = (
{
closed = 1;
nodes = (
(1124,826,l),
(1158,1066,l),
(166,1066,l),
(132,826,l)
);
},
{
closed = 1;
nodes = (
(1064,408,l),
(1099,648,l),
(107,648,l),
(72,408,l)
);
}
);
width = 1200;
},
{
layerId = "0037C824-E55C-4C72-8B66-C5A151689C78";
shapes = (
{
closed = 1;
nodes = (
(1130,871,l),
(1152,1020,l),
(160,1020,l),
(138,871,l)
);
},
{
closed = 1;
nodes = (
(1071,454,l),
(1093,603,l),
(101,603,l),
(79,454,l)
);
}
);
width = 1200;
},
{
layerId = "6219A2BD-1940-4437-A1C4-EF2412E3F892";
shapes = (
{
closed = 1;
nodes = (
(1136,910,l),
(1146,980,l),
(154,980,l),
(144,910,l)
);
},
{
closed = 1;
nodes = (
(1077,494,l),
(1087,564,l),
(95,564,l),
(85,494,l)
);
}
);
width = 1200;
}
);
unicode = 61;
}
{
color = 11;
glyphname = greater;
layers = (
{
layerId = "74BA431A-305A-4713-B55D-0EBBAE8D1CDE";
shapes = (
{
closed = 1;
nodes = (
(1093,606,l),
(1131,872,l),
(196,1272,l),
(157,1004,l),
(1011,648,l),
(1036,824,l),
(81,468,l),
(43,202,l)
);
}
);
width = 1200;
},
{
layerId = "0037C824-E55C-4C72-8B66-C5A151689C78";
shapes = (
{
closed = 1;
nodes = (
(1100,659,l),
(1123,815,l),
(194,1261,l),
(170,1093,l),
(1033,685,l),
(1047,786,l),
(68,379,l),
(44,212,l)
);
}
);
width = 1200;
},
{
layerId = "6219A2BD-1940-4437-A1C4-EF2412E3F892";
shapes = (
{
closed = 1;
nodes = (
(1107,706,l),
(1115,764,l),
(193,1252,l),
(181,1172,l),
(1053,718,l),
(1057,752,l),
(57,300,l),
(45,220,l)
);
}
);
width = 1200;
}
);
unicode = 62;
}
{
color = 11;
glyphname = question;
layers = (
{
layerId = "AA9127E2-66D7-45E5-8D77-9FE81E534461";
shapes = (
{
closed = 1;
nodes = (
(559.999,490,l),
(583.713,558,l),
(600.57,620,o),
(637.427,682,o),
(781.141,792,c),
(929.427,892,o),
(999.712,992,o),
(1019.141,1128,cs),
(1050.569,1348,o),
(885.712,1496,o),
(607.712,1496,cs),
(435.712,1496,o),
(243.14,1436,o),
(106.855,1336,c),
(181.712,1062,l),
(302.284,1150,o),
(417.998,1190,o),
(529.998,1190,cs),
(619.998,1190,o),
(658.569,1152,o),
(648.855,1084,cs),
(639.998,1022,o),
(601.712,978,o),
(540.57,914,c),
(421.713,796,o),
(381.142,708,o),
(365.427,598,cs),
(349.999,490,l)
);
},
{
closed = 1;
nodes = (
(570,0,l),
(622.856,370,l),
(250.856,370,l),
(198,0,l)
);
}
);
width = 960;
},
{
layerId = "780D6C53-D363-41D3-A45B-4CEB198897BB";
shapes = (
{
closed = 1;
nodes = (
(455,404,l),
(468,458,ls),
(491,554,o),
(541,637,o),
(692,781,c),
(839,912,o),
(910,1011,o),
(931,1154,cs),
(960,1359,o),
(819,1492,o),
(580,1492,cs),
(407,1492,o),
(222,1423,o),
(99,1316,c),
(149,1157,l),
(274,1261,o),
(401,1312,o),
(538,1312,cs),
(669,1312,o),
(735,1248,o),
(719,1135,cs),
(705,1036,o),
(653,965,o),
(556,863,cs),
(406,706,o),
(358,601,o),
(340,474,cs),
(330,404,l)
);
},
{
closed = 1;
nodes = (
(452,0,l),
(486,241,l),
(247,241,l),
(213,0,l)
);
}
);
width = 894;
},
{
layerId = "15DD03C9-6E3F-4F53-9575-CC59ABE7D50E";
shapes = (
{
closed = 1;
nodes = (
(370.857,328,l),
(376.856,370,l),
(404.856,496,o),
(465.427,598,o),
(622.284,772,cs),
(768.855,930,o),
(840.855,1028,o),
(861.998,1176,cs),
(889.426,1368,o),
(770.569,1488,o),
(564.569,1488,cs),
(390.569,1488,o),
(213.712,1412,o),
(101.426,1298,c),
(129.141,1240,l),
(257.998,1358,o),
(396.855,1420,o),
(554.855,1420,cs),
(722.855,1420,o),
(812.283,1332,o),
(790.569,1180,cs),
(771.712,1048,o),
(708.284,954,o),
(578.856,818,cs),
(401.427,626,o),
(346.285,506,o),
(325.999,364,cs),
(320.857,328,l)
);
},
{
closed = 1;
nodes = (
(358,0,l),
(376.285,128,l),
(254.285,128,l),
(236,0,l)
);
}
);
width = 854;
}
);
leftKerningGroup = quesion;
rightKerningGroup = question;
unicode = 63;
}
{
color = 11;
glyphname = at;
layers = (
{
layerId = "DFDA7944-A323-4357-A6CD-3EE161AE16F3";
shapes = (
{
closed = 1;
nodes = (
(1142,-188,o),
(1342,-132,o),
(1479,-44,c),
(1401,170,l),
(1264,92,o),
(1118,52,o),
(952,52,cs),
(572,52,o),
(369,296,o),
(427,698,cs),
(491,1148,o),
(781,1416,o),
(1193,1416,cs),
(1573,1416,o),
(1734,1242,o),
(1680,860,cs),
(1651,656,o),
(1573,516,o),
(1497,516,cs),
(1449,516,o),
(1433,546,o),
(1443,618,cs),
(1448,652,o),
(1461,702,o),
(1480,762,cs),
(1616,1194,l),
(1312,1194,l),
(1250,1002,l),
(1306,1002,l),
(1286,1154,o),
(1215,1218,o),
(1079,1218,cs),
(831,1218,o),
(626,998,o),
(583,698,cs),
(546,444,o),
(654,284,o),
(882,284,cs),
(1050,284,o),
(1189,394,o),
(1287,628,c),
(1165,544,l),
(1176,372,o),
(1272,284,o),
(1438,284,cs),
(1688,284,o),
(1882,508,o),
(1932,862,cs),
(2002,1354,o),
(1730,1660,o),
(1228,1660,cs),
(658,1660,o),
(233,1286,o),
(149,698,cs),
(74,174,o),
(390,-188,o),
(916,-188,cs)
);
},
{
closed = 1;
nodes = (
(919,532,o),
(896,592,o),
(911,702,cs),
(935,866,o),
(1008,962,o),
(1110,962,cs),
(1182,962,o),
(1204,914,o),
(1190,818,cs),
(1164,640,o),
(1091,532,o),
(991,532,cs)
);
}
);
width = 1933;
},
{
layerId = "E40C1264-1582-41D6-8175-F4C1F2081197";
shapes = (
{
closed = 1;
nodes = (
(1143,-183,o),
(1355,-110,o),
(1501,18,c),
(1442,145,l),
(1307,29,o),
(1130,-34,o),
(929,-34,cs),
(501,-34,o),
(275,248,o),
(343,720,cs),
(412,1201,o),
(739,1505,o),
(1180,1505,cs),
(1576,1505,o),
(1781,1271,o),
(1723,870,cs),
(1685,604,o),
(1567,426,o),
(1433,426,cs),
(1362,426,o),
(1334,466,o),
(1346,555,c),
(1351,585,o),
(1360,623,o),
(1375,666,c),
(1533,1182,l),
(1357,1182,l),
(1296,986,l),
(1327,986,l),
(1314,1129,o),
(1236,1201,o),
(1093,1201,cs),
(845,1201,o),
(633,979,o),
(589,673,cs),
(555,432,o),
(653,285,o),
(865,285,cs),
(1013,285,o),
(1152,378,o),
(1245,561,c),
(1186,549,l),
(1163,383,o),
(1241,285,o),
(1401,285,cs),
(1636,285,o),
(1825,514,o),
(1877,873,cs),
(1945,1349,o),
(1676,1655,o),
(1202,1655,cs),
(670,1655,o),
(258,1283,o),
(178,720,cs),
(100,173,o),
(391,-183,o),
(907,-183,cs)
);
},
{
closed = 1;
nodes = (
(804,435,o),
(755,519,o),
(777,674,cs),
(809,897,o),
(942,1047,o),
(1101,1047,cs),
(1221,1047,o),
(1265,978,o),
(1244,833,cs),
(1211,599,o),
(1076,435,o),
(918,435,cs)
);
}
);
width = 1903;
},
{
layerId = "9BC0C71B-A637-49D9-92D6-4EFEC3ADCDB0";
shapes = (
{
closed = 1;
nodes = (
(1150,-178,o),
(1372,-90,o),
(1525,72,c),
(1482,122,l),
(1351,-26,o),
(1145,-110,o),
(913,-110,cs),
(443,-110,o),
(198,206,o),
(275,740,cs),
(347,1248,o),
(707,1584,o),
(1173,1584,cs),
(1583,1584,o),
(1826,1296,o),
(1766,878,cs),
(1721,558,o),
(1566,346,o),
(1382,346,cs),
(1290,346,o),
(1252,396,o),
(1266,500,cs),
(1270,526,o),
(1276,554,o),
(1288,582,c),
(1466,1172,l),
(1402,1172,l),
(1342,972,l),
(1350,972,l),
(1345,1106,o),
(1258,1186,o),
(1110,1186,cs),
(862,1186,o),
(644,962,o),
(600,650,cs),
(567,422,o),
(658,286,o),
(856,286,cs),
(986,286,o),
(1125,364,o),
(1215,502,c),
(1212,554,l),
(1157,392,o),
(1220,286,o),
(1374,286,cs),
(1596,286,o),
(1781,520,o),
(1833,882,cs),
(1899,1344,o),
(1635,1650,o),
(1185,1650,cs),
(687,1650,o),
(286,1280,o),
(209,740,cs),
(128,172,o),
(398,-178,o),
(904,-178,cs)
);
},
{
closed = 1;
nodes = (
(709,350,o),
(636,454,o),
(664,650,cs),
(703,924,o),
(887,1122,o),
(1097,1122,cs),
(1259,1122,o),
(1325,1034,o),
(1298,846,cs),
(1257,562,o),
(1069,350,o),
(859,350,cs)
);
}
);
width = 1885;
}
);
leftKerningGroup = O;
rightKerningGroup = O;
unicode = 64;
}
{
color = 11;
glyphname = A;
layers = (
{
anchors = (
{
name = bottom;
position = "{654, 0}";
},
{
name = ogonek;
position = "{1282, 0}";
},
{
name = top;
position = "{864, 1472}";
}
);
layerId = "74BA431A-305A-4713-B55D-0EBBAE8D1CDE";
shapes = (
{
closed = 1;
nodes = (
(252,0,l),
(461.428,402,l),
(306.857,300,l),
(1082.857,300,l),
(957.428,402,l),
(1052,0,l),
(1430,0,l),
(1014.283,1472,l),
(714.283,1472,l),
(-126,0,l)
);
},
{
closed = 1;
nodes = (
(807.427,1074,l),
(936.571,494,l),
(998.57,592,l),
(472.57,592,l),
(508.571,494,l),
(803.427,1074,l)
);
}
);
width = 1486;
},
{
anchors = (
{
name = bottom;
position = "{614, 0}";
},
{
name = ogonek;
position = "{1232, 0}";
},
{
name = top;
position = "{824, 1472}";
}
);
layerId = "0037C824-E55C-4C72-8B66-C5A151689C78";
shapes = (
{
closed = 1;
nodes = (
(142,0,l),
(358,415,l),
(261,363,l),
(1065,363,l),
(982,415,l),
(1082,0,l),
(1298,0,l),
(911,1472,l),
(735,1472,l),
(-72,0,l)
);
},
{
closed = 1;
nodes = (
(791,1236,l),
(968,484,l),
(1016,533,l),
(358,533,l),
(395,484,l),
(787,1236,l)
);
}
);
width = 1406;
},
{
anchors = (
{
name = bottom;
position = "{590, 0}";
},
{
name = ogonek;
position = "{1200, 0}";
},
{
name = top;
position = "{800, 1472}";
}
);
layerId = "6219A2BD-1940-4437-A1C4-EF2412E3F892";
shapes = (
{
closed = 1;
nodes = (
(56,0,l),
(278.856,426,l),
(231.714,418,l),
(1059.714,418,l),
(1014.856,426,l),
(1120,0,l),
(1192,0,l),
(832.283,1472,l),
(764.283,1472,l),
(-14,0,l)
);
},
{
closed = 1;
nodes = (
(786.855,1378,l),
(1007.999,476,l),
(1042.571,480,l),
(268.571,480,l),
(305.999,476,l),
(782.855,1378,l)
);
}
);
width = 1358;
}
);
leftKerningGroup = A;
rightKerningGroup = A;
unicode = 65;
}
{
color = 11;
glyphname = B;
layers = (
{
anchors = (
{
name = bottom;
position = "{661, 0}";
},
{
name = top;
position = "{871, 1472}";
}
);
layerId = "DFDA7944-A323-4357-A6CD-3EE161AE16F3";
shapes = (
{
closed = 1;
nodes = (
(787,0,ls),
(1095,0,o),
(1306,160,o),
(1343,418,cs),
(1371,614,o),
(1285,742,o),
(1096,780,c),
(1086,746,l),
(1258,790,o),
(1372,916,o),
(1397,1092,cs),
(1430,1326,o),
(1277,1472,o),
(973,1472,cs),
(303,1472,l),
(93,0,l)
);
},
{
closed = 1;
nodes = (
(536,608,l),
(824,608,ls),
(960,608,o),
(1012,556,o),
(996,442,cs),
(980,330,o),
(910,274,o),
(774,274,cs),
(488,274,l)
);
},
{
closed = 1;
nodes = (
(620,1198,l),
(866,1198,ls),
(1000,1198,o),
(1053,1150,o),
(1038,1044,cs),
(1023,936,o),
(953,884,o),
(821,884,cs),
(575,884,l)
);
}
);
width = 1405;
},
{
anchors = (
{
name = bottom;
position = "{643, 0}";
},
{
name = top;
position = "{852, 1472}";
}
);
layerId = "E40C1264-1582-41D6-8175-F4C1F2081197";
shapes = (
{
closed = 1;
nodes = (
(730,0,ls),
(1029,0,o),
(1226,147,o),
(1263,406,cs),
(1292,612,o),
(1195,742,o),
(1001,770,c),
(992,739,l),
(1171,780,o),
(1294,906,o),
(1321,1090,cs),
(1355,1331,o),
(1207,1472,o),
(913,1472,cs),
(335,1472,l),
(125,0,l)
);
},
{
closed = 1;
nodes = (
(423,663,l),
(804,663,ls),
(1002,663,o),
(1085,585,o),
(1060,414,cs),
(1036,245,o),
(929,165,o),
(731,165,cs),
(352,165,l)
);
},
{
closed = 1;
nodes = (
(515,1307,l),
(857,1307,ls),
(1051,1307,o),
(1137,1228,o),
(1115,1070,cs),
(1092,913,o),
(980,828,o),
(789,828,cs),
(446,828,l)
);
}
);
width = 1356;
},
{
anchors = (
{
name = bottom;
position = "{635, 0}";
},
{
name = top;
position = "{843, 1472}";
}
);
layerId = "9BC0C71B-A637-49D9-92D6-4EFEC3ADCDB0";
shapes = (
{
closed = 1;
nodes = (
(687,0,ls),
(979,0,o),
(1162,136,o),
(1200,396,cs),
(1230,610,o),
(1123,742,o),
(924,762,c),
(916,732,l),
(1103,772,o),
(1233,898,o),
(1260,1088,cs),
(1296,1336,o),
(1153,1472,o),
(867,1472,cs),
(371,1472,l),
(161,0,l)
);
},
{
closed = 1;
nodes = (
(331,712,l),
(793,712,ls),
(1047,712,o),
(1156,610,o),
(1125,390,cs),
(1093,170,o),
(953,68,o),
(699,68,cs),
(239,68,l)
);
},
{
closed = 1;
nodes = (
(430,1404,l),
(856,1404,ls),
(1104,1404,o),
(1218,1296,o),
(1189,1092,cs),
(1160,892,o),
(1012,778,o),
(768,778,cs),
(340,778,l)
);
}
);
width = 1327;
}
);
leftKerningGroup = H;
rightKerningGroup = B;
unicode = 66;
}
{
color = 11;
glyphname = C;
layers = (
{
anchors = (
{
name = bottom;
position = "{706, 0}";
},
{
name = top;
position = "{914, 1472}";
}
);
layerId = "AB3199DD-655E-4C0F-A34B-FD02744555A7";
shapes = (
{
closed = 1;
nodes = (
(1025.426,1186,o),
(1129.712,1132,o),
(1235.427,1046,c),
(1384.855,1336,l),
(1292.569,1432,o),
(1115.712,1496,o),
(931.712,1496,cs),
(501.712,1496,o),
(175.141,1198,o),
(109.427,738,cs),
(43.428,276,o),
(282.571,-24,o),
(714.571,-24,cs),
(898.571,-24,o),
(1093.714,40,o),
(1213.428,136,c),
(1146.856,426,l),
(1016.571,340,o),
(896.857,286,o),
(758.857,286,cs),
(550.857,286,o),
(454.285,450,o),
(495.427,738,cs),
(536.57,1026,o),
(679.426,1186,o),
(887.426,1186,cs)
);
}
);
width = 1352;
},
{
anchors = (
{
name = bottom;
position = "{685, 0}";
},
{
name = top;
position = "{896, 1472}";
}
);
layerId = "64C9CF7B-5345-44EA-861F-4D3695E3DC07";
shapes = (
{
closed = 1;
nodes = (
(1031,1310,o),
(1144,1256,o),
(1251,1148,c),
(1346,1314,l),
(1252,1428,o),
(1089,1492,o),
(897,1492,cs),
(493,1492,o),
(198,1203,o),
(131,738,cs),
(65,271,o),
(278,-20,o),
(681,-20,cs),
(873,-20,o),
(1054,44,o),
(1181,158,c),
(1133,325,l),
(996,217,o),
(866,162,o),
(707,162,cs),
(427,162,o),
(300,370,o),
(352,738,cs),
(405,1104,o),
(591,1310,o),
(871,1310,cs)
);
}
);
width = 1332;
},
{
anchors = (
{
name = bottom;
position = "{668, 0}";
},
{
name = top;
position = "{882, 1472}";
}
);
layerId = "C792CAD3-12E8-4938-96FB-ECD54646BE96";
shapes = (
{
closed = 1;
nodes = (
(1038.855,1420,o),
(1159.14,1366,o),
(1266.855,1238,c),
(1312.855,1294,l),
(1217.426,1424,o),
(1066.569,1488,o),
(868.569,1488,cs),
(486.569,1488,o),
(220.569,1208,o),
(153.427,738,cs),
(86.,266,o),
(275.714,-16,o),
(653.714,-16,cs),
(851.714,-16,o),
(1020.857,48,o),
(1153.428,178,c),
(1123.714,236,l),
(979.428,108,o),
(841.428,52,o),
(663.428,52,cs),
(319.428,52,o),
(164.857,300,o),
(227.427,738,cs),
(289.426,1172,o),
(514.855,1420,o),
(858.855,1420,cs)
);
}
);
width = 1320;
}
);
leftKerningGroup = O;
rightKerningGroup = C;
unicode = 67;
}
{
color = 11;
glyphname = D;
layers = (
{
anchors = (
{
name = bottom;
position = "{709, 0}";
},
{
name = center;
position = "{474, 748}";
},
{
name = top;
position = "{919, 1472}";
}
);
layerId = "DFDA7944-A323-4357-A6CD-3EE161AE16F3";
shapes = (
{
closed = 1;
nodes = (
(655,0,ls),
(1114,0,o),
(1412,218,o),
(1479,668,cs),
(1500,807,ls),
(1567,1255,o),
(1324,1472,o),
(865,1472,cs),
(291,1472,l),
(81,0,l)
);
},
{
closed = 1;
nodes = (
(627,1160,l),
(797,1160,ls),
(1037,1160,o),
(1150,1084,o),
(1108,807,cs),
(1087,668,ls),
(1046,389,o),
(918,312,o),
(676,312,cs),
(506,312,l)
);
}
);
width = 1511;
},
{
anchors = (
{
name = bottom;
position = "{670, 0}";
},
{
name = center;
position = "{427, 748}";
},
{
name = top;
position = "{880, 1472}";
}
);
layerId = "E40C1264-1582-41D6-8175-F4C1F2081197";
shapes = (
{
closed = 1;
nodes = (
(596,0,ls),
(1026,0,o),
(1306,213,o),
(1375,669,cs),
(1395,802,ls),
(1462,1256,o),
(1236,1472,o),
(806,1472,cs),
(322,1472,l),
(112,0,l)
);
},
{
closed = 1;
nodes = (
(509,1292,l),
(765,1292,ls),
(1082,1292,o),
(1227,1158,o),
(1174,802,cs),
(1154,669,ls),
(1099,311,o),
(924,180,o),
(606,180,cs),
(350,180,l)
);
}
);
width = 1425;
},
{
anchors = (
{
name = bottom;
position = "{649, 0}";
},
{
name = center;
position = "{398, 748}";
},
{
name = top;
position = "{859, 1472}";
}
);
layerId = "9BC0C71B-A637-49D9-92D6-4EFEC3ADCDB0";
shapes = (
{
closed = 1;
nodes = (
(557,0,ls),
(963,0,o),
(1235,240,o),
(1301,702,cs),
(1312,774,ls),
(1377,1234,o),
(1173,1472,o),
(767,1472,cs),
(363,1472,l),
(153,0,l)
);
},
{
closed = 1;
nodes = (
(418,1408,l),
(750,1408,ls),
(1134,1408,o),
(1302,1200,o),
(1242,774,cs),
(1231,702,ls),
(1170,274,o),
(942,64,o),
(558,64,cs),
(226,64,l)
);
}
);
width = 1373;
}
);
leftKerningGroup = H;
rightKerningGroup = O;
unicode = 68;
}
{
color = 11;
glyphname = E;
layers = (
{
anchors = (
{
name = bottom;
position = "{592, 0}";
},
{
name = ogonek;
position = "{946, 0}";
},
{
name = top;
position = "{802, 1472}";
},
{
name = topleft;
position = "{160, 1472}";
}
);
layerId = "AB3199DD-655E-4C0F-A34B-FD02744555A7";
shapes = (
{
closed = 1;
nodes = (
(1064,0,l),
(1105.142,288,l),
(437.142,288,l),
(482.285,604,l),
(1102.285,604,l),
(1143.141,890,l),
(523.141,890,l),
(565.141,1184,l),
(1233.141,1184,l),
(1274.283,1472,l),
(250.283,1472,l),
(40,0,l)
);
}
);
width = 1260;
},
{
anchors = (
{
name = bottom;
position = "{573, 0}";
},
{
name = ogonek;
position = "{928, 0}";
},
{
name = top;
position = "{783, 1472}";
},
{
name = topleft;
position = "{166, 1472}";
}
);
layerId = "64C9CF7B-5345-44EA-861F-4D3695E3DC07";
shapes = (
{
closed = 1;
nodes = (
(1012,0,l),
(1036,170,l),
(299,170,l),
(370,662,l),
(1061,662,l),
(1085,832,l),
(394,832,l),
(461,1302,l),
(1198,1302,l),
(1222,1472,l),
(282,1472,l),
(72,0,l)
);
}
);
width = 1201;
},
{
anchors = (
{
name = bottom;
position = "{564, 0}";
},
{
name = ogonek;
position = "{920, 0}";
},
{
name = top;
position = "{774, 1472}";
},
{
name = topleft;
position = "{178, 1472}";
}
);
layerId = "C792CAD3-12E8-4938-96FB-ECD54646BE96";
shapes = (
{
closed = 1;
nodes = (
(974,0,l),
(983.428,66,l),
(185.428,66,l),
(277.999,714,l),
(1031.999,714,l),
(1041.427,780,l),
(287.427,780,l),
(376.855,1406,l),
(1174.855,1406,l),
(1184.283,1472,l),
(318.283,1472,l),
(108,0,l)
);
}
);
width = 1166;
}
);
leftKerningGroup = H;
rightKerningGroup = E;
unicode = 69;
}
{
color = 11;
glyphname = F;
layers = (
{
anchors = (
{
name = bottom;
position = "{585, 0}";
},
{
name = top;
position = "{807, 1472}";
}
);
layerId = "DFDA7944-A323-4357-A6CD-3EE161AE16F3";
shapes = (
{
closed = 1;
nodes = (
(461,0,l),
(545,590,l),
(1145,590,l),
(1186,876,l),
(586,876,l),
(630,1184,l),
(1274,1184,l),
(1315,1472,l),
(303,1472,l),
(93,0,l)
);
}
);
width = 1191;
},
{
anchors = (
{
name = bottom;
position = "{579, 0}";
},
{
name = top;
position = "{793, 1472}";
}
);
layerId = "E40C1264-1582-41D6-8175-F4C1F2081197";
shapes = (
{
closed = 1;
nodes = (
(333,0,l),
(427,656,l),
(1101,656,l),
(1125,825,l),
(451,825,l),
(519,1302,l),
(1234,1302,l),
(1258,1472,l),
(335,1472,l),
(125,0,l)
);
}
);
width = 1135;
},
{
anchors = (
{
name = bottom;
position = "{581, 0}";
},
{
name = top;
position = "{789, 1472}";
}
);
layerId = "9BC0C71B-A637-49D9-92D6-4EFEC3ADCDB0";
shapes = (
{
closed = 1;
nodes = (
(227,0,l),
(329,714,l),
(1069,714,l),
(1078,780,l),
(338,780,l),
(428,1406,l),
(1206,1406,l),
(1215,1472,l),
(371,1472,l),
(161,0,l)
);
}
);
width = 1101;
}
);
leftKerningGroup = H;
rightKerningGroup = F;
unicode = 70;
}
{
color = 11;
glyphname = G;
layers = (
{
anchors = (
{
name = bottom;
position = "{718, 0}";
},
{
name = top;
position = "{928, 1472}";
}
);
layerId = "74BA431A-305A-4713-B55D-0EBBAE8D1CDE";
shapes = (
{
closed = 1;
nodes = (
(799,-24,o),
(898,10,o),
(975,65,cs),
(1037,109,o),
(1121,201,o),
(1180,289,cs),
(1366,562,l),
(1010,562,l),
(982,366,o),
(909,286,o),
(759,286,cs),
(551,286,o),
(454,450,o),
(495,738,cs),
(537,1026,o),
(679,1186,o),
(887,1186,cs),
(1025,1186,o),
(1130,1132,o),
(1235,1046,c),
(1385,1336,l),
(1293,1432,o),
(1116,1496,o),
(932,1496,cs),
(502,1496,o),
(175,1198,o),
(109,738,cs),
(43,276,o),
(283,-24,o),
(715,-24,cs)
);
},
{
closed = 1;
nodes = (
(776,828,l),
(738,562,l),
(1366,562,l),
(1404,828,l)
);
},
{
closed = 1;
nodes = (
(1076,0,l),
(1286,0,l),
(1366,562,l),
(1096,562,l),
(1076,422,l)
);
}
);
width = 1528;
},
{
anchors = (
{
name = bottom;
position = "{683, 0}";
},
{
name = top;
position = "{893, 1472}";
}
);
layerId = "0037C824-E55C-4C72-8B66-C5A151689C78";
shapes = (
{
closed = 1;
nodes = (
(772,-20,o),
(872,9,o),
(958,60,cs),
(1039,107,o),
(1145,227,o),
(1188,321,cs),
(1327,619,l),
(1122,619,l),
(1077,308,o),
(944,162,o),
(706,162,cs),
(426,162,o),
(298,370,o),
(351,738,cs),
(403,1104,o),
(590,1310,o),
(870,1310,cs),
(1030,1310,o),
(1143,1256,o),
(1250,1148,c),
(1345,1314,l),
(1251,1428,o),
(1088,1492,o),
(897,1492,cs),
(492,1492,o),
(197,1203,o),
(130,738,cs),
(64,271,o),
(277,-20,o),
(681,-20,cs)
);
},
{
closed = 1;
nodes = (
(745,779,l),
(722,619,l),
(1327,619,l),
(1349,779,l)
);
},
{
closed = 1;
nodes = (
(1102,0,l),
(1238,0,l),
(1327,619,l),
(1162,619,l),
(1127,377,l)
);
}
);
width = 1491;
},
{
anchors = (
{
name = bottom;
position = "{656, 0}";
},
{
name = top;
position = "{866, 1472}";
}
);
layerId = "6219A2BD-1940-4437-A1C4-EF2412E3F892";
shapes = (
{
closed = 1;
nodes = (
(752,-16,o),
(853,8,o),
(946,55,cs),
(1045,105,o),
(1169,250,o),
(1199,349,cs),
(1296,670,l),
(1224,670,l),
(1165,256,o),
(979,52,o),
(663,52,cs),
(319,52,o),
(165,300,o),
(227,738,cs),
(289,1172,o),
(515,1420,o),
(859,1420,cs),
(1039,1420,o),
(1159,1366,o),
(1267,1238,c),
(1313,1294,l),
(1217,1424,o),
(1067,1488,o),
(869,1488,cs),
(487,1488,o),
(221,1208,o),
(153,738,cs),
(86,266,o),
(276,-16,o),
(654,-16,cs)
);
},
{
closed = 1;
nodes = (
(721,736,l),
(712,670,l),
(1296,670,l),
(1305,736,l)
);
},
{
closed = 1;
nodes = (
(1128,0,l),
(1200,0,l),
(1296,670,l),
(1224,670,l),
(1176,338,l)
);
}
);
width = 1468;
}
);
leftKerningGroup = O;
rightKerningGroup = O;
unicode = 71;
}
{
color = 11;
glyphname = H;
layers = (
{
anchors = (
{
name = bottom;
position = "{692, 0}";
},
{
name = center;
position = "{861, 1186}";
},
{
name = top;
position = "{904, 1472}";
},
{
name = topleft;
position = "{160, 1472}";
}
);
layerId = "74BA431A-305A-4713-B55D-0EBBAE8D1CDE";
shapes = (
{
closed = 1;
nodes = (
(408,0,l),
(492.57,592,l),
(1064.57,592,l),
(980,0,l),
(1350,0,l),
(1560.283,1472,l),
(1190.283,1472,l),
(1108.57,900,l),
(536.57,900,l),
(618.283,1472,l),
(250.283,1472,l),
(40,0,l)
);
}
);
width = 1570;
},
{
anchors = (
{
name = bottom;
position = "{672, 0}";
},
{
name = center;
position = "{838, 1161}";
},
{
name = top;
position = "{882, 1472}";
},
{
name = topleft;
position = "{167, 1472}";
}
);
layerId = "0037C824-E55C-4C72-8B66-C5A151689C78";
shapes = (
{
closed = 1;
nodes = (
(281,0,l),
(375,657,l),
(1156,657,l),
(1062,0,l),
(1272,0,l),
(1482,1472,l),
(1272,1472,l),
(1181,836,l),
(400,836,l),
(491,1472,l),
(283,1472,l),
(73,0,l)
);
}
);
width = 1523;
},
{
anchors = (
{
name = bottom;
position = "{660, 0}";
},
{
name = center;
position = "{823, 1138}";
},
{
name = top;
position = "{868, 1472}";
},
{
name = topleft;
position = "{178, 1472}";
}
);
layerId = "6219A2BD-1940-4437-A1C4-EF2412E3F892";
shapes = (
{
closed = 1;
nodes = (
(174,0,l),
(275.999,714,l),
(1241.999,714,l),
(1140,0,l),
(1208,0,l),
(1418.283,1472,l),
(1350.283,1472,l),
(1251.427,780,l),
(285.427,780,l),
(384.283,1472,l),
(318.283,1472,l),
(108,0,l)
);
}
);
width = 1494;
}
);
leftKerningGroup = H;
rightKerningGroup = H;
unicode = 72;
}
{
color = 11;
glyphname = I;
layers = (
{
anchors = (
{
name = bottom;
position = "{224, 0}";
},
{
name = ogonek;
position = "{318, 0}";
},
{
name = top;
position = "{434, 1472}";
},
{
name = topleft;
position = "{160, 1472}";
}
);
layerId = "74BA431A-305A-4713-B55D-0EBBAE8D1CDE";
shapes = (
{
closed = 1;
nodes = (
(408,0,l),
(618.283,1472,l),
(250.283,1472,l),
(40,0,l)
);
}
);
width = 628;
},
{
anchors = (
{
name = bottom;
position = "{171, 0}";
},
{
name = ogonek;
position = "{237, 0}";
},
{
name = top;
position = "{381, 1472}";
},
{
name = topleft;
position = "{162, 1472}";
}
);
layerId = "0037C824-E55C-4C72-8B66-C5A151689C78";
shapes = (
{
closed = 1;
nodes = (
(276,0,l),
(486,1472,l),
(278,1472,l),
(68,0,l)
);
}
);
width = 524;
},
{
anchors = (
{
name = bottom;
position = "{140, 0}";
},
{
name = ogonek;
position = "{180, 0}";
},
{
name = top;
position = "{350, 1472}";
},
{
name = topleft;
position = "{178, 1472}";
}
);
layerId = "6219A2BD-1940-4437-A1C4-EF2412E3F892";
shapes = (
{
closed = 1;
nodes = (
(174,0,l),
(384.283,1472,l),
(318.283,1472,l),
(108,0,l)
);
}
);
width = 462;
}
);
leftKerningGroup = H;
rightKerningGroup = H;
unicode = 73;
}
{
color = 11;
glyphname = J;
layers = (
{
anchors = (
{
name = bottom;
position = "{494, 0}";
},
{
name = top;
position = "{1052, 1472}";
}
);
layerId = "74BA431A-305A-4713-B55D-0EBBAE8D1CDE";
shapes = (
{
closed = 1;
nodes = (
(846.571,-24,o),
(1053.428,150,o),
(1103.428,500,cs),
(1242.283,1472,l),
(876.283,1472,l),
(737.428,500,ls),
(716.856,356,o),
(648.857,286,o),
(534.857,286,cs),
(422.857,286,o),
(372.856,356,o),
(393.428,500,c),
(27.428,500,l),
(-24.857,148,o),
(136.571,-24,o),
(494.571,-24,cs)
);
}
);
width = 1252;
},
{
anchors = (
{
name = bottom;
position = "{420, 0}";
},
{
name = top;
position = "{987, 1472}";
}
);
layerId = "0037C824-E55C-4C72-8B66-C5A151689C78";
shapes = (
{
closed = 1;
nodes = (
(724,-20,o),
(905,140,o),
(949,451,cs),
(1095,1472,l),
(886,1472,l),
(740,451,ls),
(712,255,o),
(615,161,o),
(443,161,cs),
(273,161,o),
(200,255,o),
(228,451,c),
(22,451,l),
(-23,140,o),
(113,-20,o),
(420,-20,cs)
);
}
);
width = 1130;
},
{
anchors = (
{
name = bottom;
position = "{372, 0}";
},
{
name = top;
position = "{946, 1472}";
}
);
layerId = "6219A2BD-1940-4437-A1C4-EF2412E3F892";
shapes = (
{
closed = 1;
nodes = (
(633.714,-16,o),
(790.857,132,o),
(830.285,408,cs),
(982.283,1472,l),
(912.283,1472,l),
(760.285,408,ls),
(725.714,166,o),
(601.143,50,o),
(379.143,50,cs),
(157.143,50,o),
(65.714,166,o),
(100.285,408,c),
(34.285,408,l),
(-5.143,132,o),
(109.714,-16,o),
(371.714,-16,cs)
);
}
);
width = 1056;
}
);
leftKerningGroup = J;
rightKerningGroup = J;
unicode = 74;
}
{
color = 11;
glyphname = K;
layers = (
{
anchors = (
{
name = bottom;
position = "{596, 0}";
},
{
name = top;
position = "{806, 1472}";
},
{
name = topleft;
position = "{160, 1472}";
}
);
layerId = "AB3199DD-655E-4C0F-A34B-FD02744555A7";
shapes = (
{
closed = 1;
nodes = (
(1570.283,1472,l),
(1130.283,1472,l),
(535.998,868,l),
(618.283,1472,l),
(250.283,1472,l),
(40,0,l),
(408,0,l),
(456.571,340,l)
);
},
{
closed = 1;
nodes = (
(590.856,580,l),
(962,0,l),
(1386,0,l),
(851.998,840,l)
);
}
);
width = 1396;
},
{
anchors = (
{
name = bottom;
position = "{538, 0}";
},
{
name = top;
position = "{747, 1472}";
},
{
name = topleft;
position = "{159, 1472}";
}
);
layerId = "64C9CF7B-5345-44EA-861F-4D3695E3DC07";
shapes = (
{
closed = 1;
nodes = (
(1381,1472,l),
(1126,1472,l),
(379,725,l),
(483,1472,l),
(275,1472,l),
(65,0,l),
(273,0,l),
(333,422,l)
);
},
{
closed = 1;
nodes = (
(516,667,l),
(965,0,l),
(1210,0,l),
(667,816,l)
);
}
);
width = 1252;
},
{
anchors = (
{
name = bottom;
position = "{508, 0}";
},
{
name = top;
position = "{716, 1472}";
},
{
name = topleft;
position = "{178, 1472}";
}
);
layerId = "C792CAD3-12E8-4938-96FB-ECD54646BE96";
shapes = (
{
closed = 1;
nodes = (
(1234.283,1472,l),
(1144.283,1472,l),
(259.427,598,l),
(384.283,1472,l),
(318.283,1472,l),
(108,0,l),
(174,0,l),
(244.571,494,l)
);
},
{
closed = 1;
nodes = (
(470.284,744,l),
(988,0,l),
(1076,0,l),
(523.427,794,l)
);
}
);
width = 1166;
}
);
leftKerningGroup = H;
rightKerningGroup = K;
unicode = 75;
}
{
color = 11;
glyphname = L;
layers = (
{
anchors = (
{
name = bottom;
position = "{607, 0}";
},
{
name = center;
position = "{486, 808}";
},
{
name = dot;
position = "{982, 832}";
},
{
name = top;
position = "{487, 1472}";
},
{
name = topright;
position = "{881, 1472}";
}
);
layerId = "DFDA7944-A323-4357-A6CD-3EE161AE16F3";
shapes = (
{
closed = 1;
nodes = (
(1115,0,l),
(1159,310,l),
(505,310,l),
(671,1472,l),
(303,1472,l),
(93,0,l)
);
}
);
width = 1205;
},
{
anchors = (
{
name = bottom;
position = "{582, 0}";
},
{
name = center;
position = "{432, 808}";
},
{
name = dot;
position = "{900, 817}";
},
{
name = top;
position = "{436, 1472}";
},
{
name = topright;
position = "{769, 1472}";
}
);
layerId = "E40C1264-1582-41D6-8175-F4C1F2081197";
shapes = (
{
closed = 1;
nodes = (
(1056,0,l),
(1082,180,l),
(357,180,l),
(541,1472,l),
(333,1472,l),
(123,0,l)
);
}
);
width = 1128;
},
{
anchors = (
{
name = bottom;
position = "{571, 0}";
},
{
name = center;
position = "{396, 808}";
},
{
name = dot;
position = "{838, 804}";
},
{
name = top;
position = "{403, 1472}";
},
{
name = topright;
position = "{681, 1472}";
}
);
layerId = "9BC0C71B-A637-49D9-92D6-4EFEC3ADCDB0";
shapes = (
{
closed = 1;
nodes = (
(1015,0,l),
(1024,66,l),
(236,66,l),
(437,1472,l),
(371,1472,l),
(161,0,l)
);
}
);
width = 1081;
}
);
leftKerningGroup = H;
rightKerningGroup = L;
unicode = 76;
}
{
color = 11;
glyphname = M;
layers = (
{
anchors = (
{
name = bottom;
position = "{847, 0}";
},
{
name = top;
position = "{1057, 1472}";
}
);
layerId = "DFDA7944-A323-4357-A6CD-3EE161AE16F3";
shapes = (
{
closed = 1;
nodes = (
(433,0,l),
(560,892,l),
(514,892,l),
(777,222,l),
(977,222,l),
(1428,890,l),
(1388,890,l),
(1261,0,l),
(1599,0,l),
(1809,1472,l),
(1501,1472,l),
(897,558,l),
(967,558,l),
(619,1472,l),
(307,1472,l),
(97,0,l)
);
}
);
width = 1769;
},
{
anchors = (
{
name = bottom;
position = "{821, 0}";
},
{
name = top;
position = "{1031, 1472}";
}
);
layerId = "E40C1264-1582-41D6-8175-F4C1F2081197";
shapes = (
{
closed = 1;
nodes = (
(320,0,l),
(487,1171,l),
(440,1171,l),
(789,226,l),
(915,226,l),
(1530,1169,l),
(1487,1169,l),
(1320,0,l),
(1512,0,l),
(1722,1472,l),
(1546,1472,l),
(849,395,l),
(910,395,l),
(516,1472,l),
(339,1472,l),
(129,0,l)
);
}
);
width = 1714;
},
{
anchors = (
{
name = bottom;
position = "{805, 0}";
},
{
name = top;
position = "{1015, 1472}";
}
);
layerId = "9BC0C71B-A637-49D9-92D6-4EFEC3ADCDB0";
shapes = (
{
closed = 1;
nodes = (
(227,0,l),
(430,1418,l),
(382,1418,l),
(808,230,l),
(868,230,l),
(1627,1416,l),
(1581,1416,l),
(1379,0,l),
(1443,0,l),
(1653,1472,l),
(1593,1472,l),
(815,252,l),
(869,252,l),
(433,1472,l),
(375,1472,l),
(165,0,l)
);
}
);
width = 1681;
}
);
leftKerningGroup = H;
rightKerningGroup = H;
unicode = 77;
}
{
color = 11;
glyphname = N;
layers = (
{
anchors = (
{
name = bottom;
position = "{666, 0}";
},
{
name = top;
position = "{876, 1472}";
}
);
layerId = "AB3199DD-655E-4C0F-A34B-FD02744555A7";
shapes = (
{
closed = 1;
nodes = (
(384,0,l),
(517.998,938,l),
(455.998,938,l),
(1020,0,l),
(1294,0,l),
(1504.283,1472,l),
(1158.283,1472,l),
(1024.285,534,l),
(1088.285,534,l),
(520.283,1472,l),
(250.283,1472,l),
(40,0,l)
);
}
);
width = 1514;
},
{
anchors = (
{
name = bottom;
position = "{650, 0}";
},
{
name = top;
position = "{860, 1472}";
}
);
layerId = "64C9CF7B-5345-44EA-861F-4D3695E3DC07";
shapes = (
{
closed = 1;
nodes = (
(268,0,l),
(438,1192,l),
(386,1192,l),
(1068,0,l),
(1227,0,l),
(1437,1472,l),
(1241,1472,l),
(1071,280,l),
(1124,280,l),
(443,1472,l),
(284,1472,l),
(74,0,l)
);
}
);
width = 1479;
},
{
anchors = (
{
name = bottom;
position = "{640, 0}";
},
{
name = top;
position = "{850, 1472}";
}
);
layerId = "C792CAD3-12E8-4938-96FB-ECD54646BE96";
shapes = (
{
closed = 1;
nodes = (
(170,0,l),
(372.283,1416,l),
(328.283,1416,l),
(1114,0,l),
(1172,0,l),
(1382.283,1472,l),
(1318.283,1472,l),
(1116.,56,l),
(1160.,56,l),
(378.283,1472,l),
(318.283,1472,l),
(108,0,l)
);
}
);
width = 1458;
}
);
leftKerningGroup = H;
rightKerningGroup = H;
unicode = 78;
}
{
color = 11;
glyphname = O;
leftMetricsKey = "=111";
rightMetricsKey = "=111";
layers = (
{
anchors = (
{
name = Qtail;
position = "{766, -24}";
},
{
name = bottom;
position = "{769, 0}";
},
{
name = center;
position = "{872, 738}";
},
{
name = ogonek;
position = "{893, 0}";
},
{
name = top;
position = "{979, 1472}";
},
{
name = topleft;
position = "{227, 1472}";
},
{
name = topright;
position = "{1109, 1472}";
}
);
layerId = "DFDA7944-A323-4357-A6CD-3EE161AE16F3";
leftMetricsKey = "=96";
rightMetricsKey = "=96";
shapes = (
{
closed = 1;
nodes = (
(1176,-24,o),
(1516,243,o),
(1576,668,cs),
(1596,807,ls),
(1657,1230,o),
(1393,1496,o),
(985,1496,cs),
(577,1496,o),
(235,1229,o),
(174,807,cs),
(154,668,ls),
(94,245,o),
(358,-24,o),
(768,-24,cs)
);
},
{
closed = 1;
nodes = (
(622,286,o),
(508,423,o),
(541,668,cs),
(560,807,ls),
(593,1052,o),
(749,1186,o),
(940,1186,cs),
(1130,1186,o),
(1246,1049,o),
(1211,807,cs),
(1191,668,ls),
(1157,424,o),
(1002,286,o),
(812,286,cs)
);
}
);
width = 1615;
},
{
anchors = (
{
name = Qtail;
position = "{728, -20}";
},
{
name = bottom;
position = "{731, 0}";
},
{
name = center;
position = "{837, 738}";
},
{
name = ogonek;
position = "{847, 0}";
},
{
name = top;
position = "{941, 1472}";
},
{
name = topleft;
position = "{221, 1472}";
},
{
name = topright;
position = "{1080, 1472}";
}
);
layerId = "E40C1264-1582-41D6-8175-F4C1F2081197";
shapes = (
{
closed = 1;
nodes = (
(1124,-20,o),
(1427,257,o),
(1491,708,cs),
(1500,768,ls),
(1564,1216,o),
(1342,1492,o),
(945,1492,cs),
(549,1492,o),
(248,1215,o),
(184,768,cs),
(175,708,ls),
(111,259,o),
(334,-20,o),
(729,-20,cs)
);
},
{
closed = 1;
nodes = (
(482,162,o),
(346,359,o),
(396,708,cs),
(405,768,ls),
(454,1115,o),
(646,1310,o),
(919,1310,cs),
(1193,1310,o),
(1330,1114,o),
(1281,768,cs),
(1272,708,ls),
(1222,360,o),
(1028,162,o),
(755,162,cs)
);
}
);
width = 1540;
},
{
anchors = (
{
name = Qtail;
position = "{707, -16}";
},
{
name = bottom;
position = "{709, 0}";
},
{
name = center;
position = "{818, 738}";
},
{
name = ogonek;
position = "{817, 0}";
},
{
name = top;
position = "{919, 1472}";
},
{
name = topleft;
position = "{227, 1472}";
},
{
name = topright;
position = "{1065, 1472}";
}
);
layerId = "9BC0C71B-A637-49D9-92D6-4EFEC3ADCDB0";
leftMetricsKey = "=138";
rightMetricsKey = "=136";
shapes = (
{
closed = 1;
nodes = (
(1076,-16,o),
(1355,251,o),
(1419,702,cs),
(1430,774,ls),
(1494,1222,o),
(1295,1488,o),
(922,1488,cs),
(549,1488,o),
(276,1222,o),
(212,774,cs),
(201,702,ls),
(137,252,o),
(338,-16,o),
(707,-16,cs)
);
},
{
closed = 1;
nodes = (
(381,52,o),
(216,286,o),
(275,702,cs),
(286,774,ls),
(344,1186,o),
(577,1420,o),
(912,1420,cs),
(1249,1420,o),
(1415,1188,o),
(1356,774,cs),
(1345,702,ls),
(1286,286,o),
(1051,52,o),
(716,52,cs)
);
}
);
width = 1494;
}
);
leftKerningGroup = O;
rightKerningGroup = O;
unicode = 79;
}
{
color = 11;
glyphname = P;
layers = (
{
anchors = (
{
name = bottom;
position = "{647, 0}";
},
{
name = top;
position = "{855, 1472}";
}
);
layerId = "DFDA7944-A323-4357-A6CD-3EE161AE16F3";
shapes = (
{
closed = 1;
nodes = (
(461,0,l),
(534,512,l),
(842,512,ls),
(1158,512,o),
(1368,692,o),
(1411,994,cs),
(1454,1292,o),
(1295,1472,o),
(979,1472,cs),
(303,1472,l),
(93,0,l)
);
},
{
closed = 1;
nodes = (
(630,1184,l),
(870,1184,ls),
(1006,1184,o),
(1075,1122,o),
(1057,994,cs),
(1038,862,o),
(951,798,o),
(815,798,cs),
(575,798,l)
);
}
);
width = 1353;
},
{
anchors = (
{
name = bottom;
position = "{612, 0}";
},
{
name = top;
position = "{821, 1472}";
}
);
layerId = "E40C1264-1582-41D6-8175-F4C1F2081197";
shapes = (
{
closed = 1;
nodes = (
(331,0,l),
(413,574,l),
(784,574,ls),
(1089,574,o),
(1286,739,o),
(1326,1023,cs),
(1367,1307,o),
(1217,1472,o),
(912,1472,cs),
(333,1472,l),
(123,0,l)
);
},
{
closed = 1;
nodes = (
(517,1302,l),
(858,1302,ls),
(1056,1302,o),
(1147,1207,o),
(1121,1023,cs),
(1095,839,o),
(976,743,o),
(778,743,cs),
(437,743,l)
);
}
);
width = 1273;
},
{
anchors = (
{
name = bottom;
position = "{593, 0}";
},
{
name = top;
position = "{803, 1472}";
}
);
layerId = "9BC0C71B-A637-49D9-92D6-4EFEC3ADCDB0";
shapes = (
{
closed = 1;
nodes = (
(227,0,l),
(317,628,l),
(745,628,ls),
(1039,628,o),
(1224,780,o),
(1263,1048,cs),
(1302,1320,o),
(1159,1472,o),
(865,1472,cs),
(371,1472,l),
(161,0,l)
);
},
{
closed = 1;
nodes = (
(428,1406,l),
(858,1406,ls),
(1112,1406,o),
(1222,1282,o),
(1189,1048,cs),
(1156,818,o),
(1010,694,o),
(756,694,cs),
(326,694,l)
);
}
);
width = 1225;
}
);
leftKerningGroup = H;
rightKerningGroup = P;
unicode = 80;
}
{
color = 11;
glyphname = R;
layers = (
{
anchors = (
{
name = bottom;
position = "{677, 0}";
},
{
name = top;
position = "{887, 1472}";
}
);
layerId = "DFDA7944-A323-4357-A6CD-3EE161AE16F3";
shapes = (
{
closed = 1;
nodes = (
(630,1184,l),
(870,1184,ls),
(1006,1184,o),
(1076,1126,o),
(1058,1002,cs),
(1040,876,o),
(953,814,o),
(817,814,cs),
(577,814,l)
);
},
{
closed = 1;
nodes = (
(848,552,ls),
(1164,552,o),
(1373,728,o),
(1414,1014,cs),
(1455,1300,o),
(1295,1472,o),
(979,1472,cs),
(303,1472,l),
(93,0,l),
(461,0,l),
(540,552,l)
);
},
{
closed = 1;
nodes = (
(674,704,l),
(953,0,l),
(1363,0,l),
(1084,704,l)
);
}
);
width = 1415;
},
{
anchors = (
{
name = bottom;
position = "{646, 0}";
},
{
name = top;
position = "{856, 1472}";
}
);
layerId = "E40C1264-1582-41D6-8175-F4C1F2081197";
shapes = (
{
closed = 1;
nodes = (
(517,1302,l),
(854,1302,ls),
(1055,1302,o),
(1148,1212,o),
(1123,1037,cs),
(1098,860,o),
(978,766,o),
(777,766,cs),
(440,766,l)
);
},
{
closed = 1;
nodes = (
(789,609,ls),
(1094,609,o),
(1290,768,o),
(1329,1041,cs),
(1368,1315,o),
(1217,1472,o),
(912,1472,cs),
(333,1472,l),
(123,0,l),
(331,0,l),
(418,609,l)
);
},
{
closed = 1;
nodes = (
(752,704,l),
(1031,0,l),
(1262,0,l),
(982,704,l)
);
}
);
width = 1345;
},
{
anchors = (
{
name = bottom;
position = "{629, 0}";
},
{
name = top;
position = "{839, 1472}";
}
);
layerId = "9BC0C71B-A637-49D9-92D6-4EFEC3ADCDB0";
shapes = (
{
closed = 1;
nodes = (
(428,1406,l),
(852,1406,ls),
(1110,1406,o),
(1223,1288,o),
(1192,1068,cs),
(1160,846,o),
(1012,724,o),
(754,724,cs),
(330,724,l)
);
},
{
closed = 1;
nodes = (
(749,660,ls),
(1043,660,o),
(1228,804,o),
(1265,1064,cs),
(1303,1328,o),
(1159,1472,o),
(865,1472,cs),
(371,1472,l),
(161,0,l),
(227,0,l),
(321,660,l)
);
},
{
closed = 1;
nodes = (
(832,704,l),
(1111,0,l),
(1185,0,l),
(904,704,l)
);
}
);
width = 1303;
}
);
leftKerningGroup = H;
rightKerningGroup = R;
unicode = 82;
}
{
color = 11;
glyphname = S;
layers = (
{
anchors = (
{
name = bottom;
position = "{625, 0}";
},
{
name = top;
position = "{849, 1472}";
}
);
layerId = "DFDA7944-A323-4357-A6CD-3EE161AE16F3";
shapes = (
{
closed = 1;
nodes = (
(974,-24,o),
(1234,162,o),
(1274,444,cs),
(1305,656,o),
(1200,790,o),
(951,852,cs),
(724,904,ls),
(610,930,o),
(574,976,o),
(583,1038,cs),
(596,1130,o),
(687,1190,o),
(837,1190,cs),
(987,1190,o),
(1118,1144,o),
(1207,1066,c),
(1350,1340,l),
(1252,1434,o),
(1073,1496,o),
(883,1496,cs),
(527,1496,o),
(259,1304,o),
(218,1016,cs),
(187,798,o),
(292,662,o),
(537,604,cs),
(762,550,ls),
(880,522,o),
(918,482,o),
(908,414,cs),
(897,336,o),
(823,282,o),
(655,282,cs),
(489,282,o),
(321,336,o),
(209,420,c),
(66,132,l),
(184,38,o),
(392,-24,o),
(612,-24,cs)
);
}
);
width = 1305;
},
{
anchors = (
{
name = bottom;
position = "{596, 0}";
},
{
name = top;
position = "{804, 1472}";
}
);
layerId = "E40C1264-1582-41D6-8175-F4C1F2081197";
shapes = (
{
closed = 1;
nodes = (
(915,-20,o),
(1146,149,o),
(1183,403,cs),
(1211,605,o),
(1104,724,o),
(848,786,cs),
(640,833,ls),
(482,868,o),
(425,940,o),
(442,1059,cs),
(464,1213,o),
(600,1312,o),
(800,1312,cs),
(959,1312,o),
(1083,1262,o),
(1183,1160,c),
(1274,1320,l),
(1177,1429,o),
(1015,1492,o),
(826,1492,cs),
(510,1492,o),
(271,1314,o),
(233,1049,cs),
(203,837,o),
(308,711,o),
(550,655,cs),
(757,606,ls),
(928,567,o),
(989,503,o),
(973,390,cs),
(953,250,o),
(835,160,o),
(613,160,cs),
(425,160,o),
(283,213,o),
(166,314,c),
(74,147,l),
(189,42,o),
(370,-20,o),
(587,-20,cs)
);
}
);
width = 1235;
},
{
anchors = (
{
name = bottom;
position = "{581, 0}";
},
{
name = top;
position = "{775, 1472}";
}
);
layerId = "9BC0C71B-A637-49D9-92D6-4EFEC3ADCDB0";
shapes = (
{
closed = 1;
nodes = (
(875,-16,o),
(1081,138,o),
(1113,366,cs),
(1141,560,o),
(1032,666,o),
(769,728,cs),
(577,770,ls),
(381,814,o),
(305,908,o),
(329,1078,cs),
(359,1286,o),
(536,1420,o),
(780,1420,cs),
(946,1420,o),
(1064,1366,o),
(1172,1242,c),
(1217,1302,l),
(1122,1424,o),
(976,1488,o),
(788,1488,cs),
(508,1488,o),
(292,1322,o),
(257,1078,cs),
(228,872,o),
(333,754,o),
(571,700,cs),
(763,656,ls),
(982,606,o),
(1064,522,o),
(1042,368,cs),
(1014,174,o),
(856,52,o),
(586,52,cs),
(378,52,o),
(262,104,o),
(138,220,c),
(92,160,l),
(204,46,o),
(363,-16,o),
(577,-16,cs)
);
}
);
width = 1193;
}
);
leftKerningGroup = S;
rightKerningGroup = S;
unicode = 83;
}
{
color = 11;
glyphname = T;
layers = (
{
anchors = (
{
name = bottom;
position = "{556, 0}";
},
{
name = center;
position = "{661, 748}";
},
{
name = top;
position = "{764, 1472}";
}
);
layerId = "AA9127E2-66D7-45E5-8D77-9FE81E534461";
shapes = (
{
closed = 1;
nodes = (
(740,0,l),
(907.141,1170,l),
(1351.141,1170,l),
(1394.283,1472,l),
(134.283,1472,l),
(91.141,1170,l),
(537.141,1170,l),
(370,0,l)
);
}
);
width = 1290;
},
{
anchors = (
{
name = bottom;
position = "{516, 0}";
},
{
name = center;
position = "{622, 748}";
},
{
name = top;
position = "{725, 1472}";
}
);
layerId = "780D6C53-D363-41D3-A45B-4CEB198897BB";
shapes = (
{
closed = 1;
nodes = (
(620,0,l),
(805,1295,l),
(1300,1295,l),
(1325,1472,l),
(125,1472,l),
(100,1295,l),
(597,1295,l),
(412,0,l)
);
}
);
width = 1211;
},
{
anchors = (
{
name = bottom;
position = "{492, 0}";
},
{
name = center;
position = "{599, 748}";
},
{
name = top;
position = "{702, 1472}";
}
);
layerId = "15DD03C9-6E3F-4F53-9575-CC59ABE7D50E";
shapes = (
{
closed = 1;
nodes = (
(526,0,l),
(726.855,1406,l),
(1266.855,1406,l),
(1276.283,1472,l),
(128.283,1472,l),
(118.855,1406,l),
(660.855,1406,l),
(460,0,l)
);
}
);
width = 1164;
}
);
leftKerningGroup = T;
rightKerningGroup = T;
unicode = 84;
}
{
color = 11;
glyphname = U;
layers = (
{
anchors = (
{
name = bottom;
position = "{660, 0}";
},
{
name = ogonek;
position = "{776, 0}";
},
{
name = top;
position = "{870, 1472}";
},
{
name = topright;
position = "{1242, 1472}";
}
);
layerId = "AA9127E2-66D7-45E5-8D77-9FE81E534461";
shapes = (
{
closed = 1;
nodes = (
(1068.571,-24,o),
(1312.285,184,o),
(1373.713,614,cs),
(1496.283,1472,l),
(1132.283,1472,l),
(1008.856,608,ls),
(978.285,394,o),
(872.857,286,o),
(700.857,286,cs),
(532.857,286,o),
(456.285,394,o),
(486.856,608,cs),
(610.283,1472,l),
(238.283,1472,l),
(115.713,614,ls),
(54.285,184,o),
(244.571,-24,o),
(656.571,-24,cs)
);
}
);
width = 1494;
},
{
anchors = (
{
name = bottom;
position = "{641, 0}";
},
{
name = ogonek;
position = "{755, 0}";
},
{
name = top;
position = "{851, 1472}";
},
{
name = topright;
position = "{1268, 1472}";
}
);
layerId = "780D6C53-D363-41D3-A45B-4CEB198897BB";
shapes = (
{
closed = 1;
nodes = (
(1016,-20,o),
(1242,182,o),
(1299,579,cs),
(1426,1472,l),
(1218,1472,l),
(1092,585,ls),
(1051,299,o),
(908,162,o),
(664,162,cs),
(420,162,o),
(317,299,o),
(358,585,cs),
(484,1472,l),
(273,1472,l),
(146,579,ls),
(89,182,o),
(259,-20,o),
(638,-20,cs)
);
}
);
width = 1458;
},
{
anchors = (
{
name = bottom;
position = "{628, 0}";
},
{
name = ogonek;
position = "{740, 0}";
},
{
name = top;
position = "{838, 1472}";
},
{
name = topright;
position = "{1294, 1472}";
}
);
layerId = "15DD03C9-6E3F-4F53-9575-CC59ABE7D50E";
shapes = (
{
closed = 1;
nodes = (
(973.714,-16,o),
(1183.714,180,o),
(1236.285,548,cs),
(1368.283,1472,l),
(1298.283,1472,l),
(1168.57,564,ls),
(1118.857,216,o),
(943.428,52,o),
(635.428,52,cs),
(323.428,52,o),
(196.857,216,o),
(246.57,564,cs),
(376.283,1472,l),
(308.283,1472,l),
(176.285,548,ls),
(123.714,180,o),
(275.714,-16,o),
(625.714,-16,cs)
);
}
);
width = 1436;
}
);
leftKerningGroup = U;
rightKerningGroup = U;
unicode = 85;
}
{
color = 11;
glyphname = V;
layers = (
{
anchors = (
{
name = bottom;
position = "{694, 0}";
},
{
name = top;
position = "{902, 1472}";
}
);
layerId = "AA9127E2-66D7-45E5-8D77-9FE81E534461";
shapes = (
{
closed = 1;
nodes = (
(842,0,l),
(1662,1472,l),
(1264,1472,l),
(683,360,l),
(799,360,l),
(536,1472,l),
(140,1472,l),
(542,0,l)
);
}
);
width = 1562;
},
{
anchors = (
{
name = bottom;
position = "{599, 0}";
},
{
name = top;
position = "{807, 1472}";
}
);
layerId = "780D6C53-D363-41D3-A45B-4CEB198897BB";
shapes = (
{
closed = 1;
nodes = (
(688,0,l),
(1485,1472,l),
(1263,1472,l),
(582,183,l),
(661,183,l),
(349,1472,l),
(127,1472,l),
(508,0,l)
);
}
);
width = 1372;
},
{
anchors = (
{
name = bottom;
position = "{542, 0}";
},
{
name = top;
position = "{750, 1472}";
}
);
layerId = "15DD03C9-6E3F-4F53-9575-CC59ABE7D50E";
shapes = (
{
closed = 1;
nodes = (
(578,0,l),
(1356,1472,l),
(1288,1472,l),
(520,26,l),
(566,26,l),
(210,1472,l),
(142,1472,l),
(504,0,l)
);
}
);
width = 1258;
}
);
leftKerningGroup = V;
rightKerningGroup = V;
unicode = 86;
}
{
color = 11;
glyphname = W;
layers = (
{
anchors = (
{
name = bottom;
position = "{950, 0}";
},
{
name = top;
position = "{1160, 1472}";
}
);
layerId = "74BA431A-305A-4713-B55D-0EBBAE8D1CDE";
shapes = (
{
closed = 1;
nodes = (
(708,0,l),
(1129.713,964,l),
(1055.713,964,l),
(1202,0,l),
(1530,0,l),
(2188.283,1472,l),
(1810.283,1472,l),
(1351.428,402,l),
(1469.428,402,l),
(1322.283,1472,l),
(1010.283,1472,l),
(567.428,402,l),
(671.428,402,l),
(520.283,1472,l),
(140.283,1472,l),
(382,0,l)
);
}
);
width = 2090;
},
{
anchors = (
{
name = bottom;
position = "{894, 0}";
},
{
name = top;
position = "{1103, 1472}";
}
);
layerId = "0037C824-E55C-4C72-8B66-C5A151689C78";
shapes = (
{
closed = 1;
nodes = (
(553,0,l),
(1094,1203,l),
(1041,1203,l),
(1239,0,l),
(1426,0,l),
(2078,1472,l),
(1866,1472,l),
(1314,205,l),
(1397,205,l),
(1196,1472,l),
(1016,1472,l),
(458,205,l),
(534,205,l),
(345,1472,l),
(132,1472,l),
(366,0,l)
);
}
);
width = 1971;
},
{
anchors = (
{
name = bottom;
position = "{862, 0}";
},
{
name = top;
position = "{1070, 1472}";
}
);
layerId = "6219A2BD-1940-4437-A1C4-EF2412E3F892";
shapes = (
{
closed = 1;
nodes = (
(434,0,l),
(1079.997,1414,l),
(1043.997,1414,l),
(1288,0,l),
(1352,0,l),
(1998.283,1472,l),
(1932.283,1472,l),
(1298.571,32,l),
(1350.571,32,l),
(1102.283,1472,l),
(1038.283,1472,l),
(378.571,32,l),
(430.571,32,l),
(208.283,1472,l),
(142.283,1472,l),
(368,0,l)
);
}
);
width = 1900;
}
);
leftKerningGroup = V;
rightKerningGroup = V;
unicode = 87;
}
{
color = 11;
glyphname = X;
layers = (
{
anchors = (
{
name = bottom;
position = "{612, 0}";
},
{
name = top;
position = "{820, 1472}";
}
);
layerId = "AA9127E2-66D7-45E5-8D77-9FE81E534461";
shapes = (
{
closed = 1;
nodes = (
(292,0,l),
(747.428,556,l),
(627.428,556,l),
(924,0,l),
(1356,0,l),
(872.284,828,l),
(848.285,660,l),
(1558.283,1472,l),
(1124.283,1472,l),
(680.57,928,l),
(800.57,928,l),
(514.283,1472,l),
(80.283,1472,l),
(554.285,660,l),
(578.284,828,l),
(-140,0,l)
);
}
);
width = 1396;
},
{
anchors = (
{
name = bottom;
position = "{566, 0}";
},
{
name = top;
position = "{775, 1472}";
}
);
layerId = "780D6C53-D363-41D3-A45B-4CEB198897BB";
shapes = (
{
closed = 1;
nodes = (
(155,0,l),
(694,645,l),
(617,645,l),
(970,0,l),
(1217,0,l),
(762,792,l),
(750,709,l),
(1408,1472,l),
(1161,1472,l),
(654,859,l),
(721,859,l),
(387,1472,l),
(141,1472,l),
(576,709,l),
(588,792,l),
(-91,0,l)
);
}
);
width = 1307;
},
{
anchors = (
{
name = bottom;
position = "{538, 0}";
},
{
name = top;
position = "{748, 1472}";
}
);
layerId = "15DD03C9-6E3F-4F53-9575-CC59ABE7D50E";
shapes = (
{
closed = 1;
nodes = (
(48,0,l),
(659.427,724,l),
(621.427,724,l),
(1024,0,l),
(1108,0,l),
(678.57,760,l),
(677.427,752,l),
(1288.283,1472,l),
(1206.283,1472,l),
(643.999,798,l),
(663.999,798,l),
(288.283,1472,l),
(208.283,1472,l),
(609.427,752,l),
(610.57,760,l),
(-34,0,l)
);
}
);
width = 1254;
}
);
leftKerningGroup = X;
rightKerningGroup = X;
unicode = 88;
}
{
color = 11;
glyphname = Y;
layers = (
{
anchors = (
{
name = bottom;
position = "{558, 0}";
},
{
name = top;
position = "{764, 1472}";
},
{
name = topleft;
position = "{156, 1472}";
}
);
layerId = "AB3199DD-655E-4C0F-A34B-FD02744555A7";
shapes = (
{
closed = 1;
nodes = (
(742,0,l),
(849.427,752,l),
(742.285,548,l),
(1490.283,1472,l),
(1076.283,1472,l),
(657.427,934,l),
(729.427,934,l),
(464.283,1472,l),
(40.283,1472,l),
(522.285,548,l),
(479.427,752,l),
(372,0,l)
);
}
);
width = 1290;
},
{
anchors = (
{
name = bottom;
position = "{512, 0}";
},
{
name = top;
position = "{720, 1472}";
},
{
name = topleft;
position = "{151, 1472}";
}
);
layerId = "64C9CF7B-5345-44EA-861F-4D3695E3DC07";
shapes = (
{
closed = 1;
nodes = (
(616,0,l),
(724,759,l),
(659,626,l),
(1362,1472,l),
(1128,1472,l),
(610,839,l),
(658,839,l),
(320,1472,l),
(80,1472,l),
(539,626,l),
(515,759,l),
(407,0,l)
);
}
);
width = 1199;
},
{
anchors = (
{
name = bottom;
position = "{482, 0}";
},
{
name = top;
position = "{692, 1472}";
},
{
name = topleft;
position = "{158, 1472}";
}
);
layerId = "C792CAD3-12E8-4938-96FB-ECD54646BE96";
shapes = (
{
closed = 1;
nodes = (
(516,0,l),
(625.427,766,l),
(597.142,694,l),
(1260.283,1472,l),
(1186.283,1472,l),
(579.999,756,l),
(605.999,756,l),
(204.283,1472,l),
(126.283,1472,l),
(565.142,694,l),
(559.427,766,l),
(450,0,l)
);
}
);
width = 1144;
}
);
leftKerningGroup = Y;
rightKerningGroup = Y;
unicode = 89;
}
{
color = 11;
glyphname = Z;
layers = (
{
anchors = (
{
name = bottom;
position = "{605, 0}";
},
{
name = top;
position = "{815, 1472}";
}
);
layerId = "DFDA7944-A323-4357-A6CD-3EE161AE16F3";
shapes = (
{
closed = 1;
nodes = (
(1171,0,l),
(1214,304,l),
(446,304,l),
(432,202,l),
(1310,1198,l),
(1349,1472,l),
(265,1472,l),
(222,1168,l),
(958,1168,l),
(972,1270,l),
(94,274,l),
(55,0,l)
);
}
);
width = 1251;
},
{
anchors = (
{
name = bottom;
position = "{578, 0}";
},
{
name = top;
position = "{787, 1472}";
}
);
layerId = "E40C1264-1582-41D6-8175-F4C1F2081197";
shapes = (
{
closed = 1;
nodes = (
(1105,0,l),
(1130,178,l),
(276,178,l),
(266,106,l),
(1265,1318,l),
(1287,1472,l),
(264,1472,l),
(239,1294,l),
(1066,1294,l),
(1076,1366,l),
(76,154,l),
(54,0,l)
);
}
);
width = 1185;
},
{
anchors = (
{
name = bottom;
position = "{563, 0}";
},
{
name = top;
position = "{771, 1472}";
}
);
layerId = "9BC0C71B-A637-49D9-92D6-4EFEC3ADCDB0";
shapes = (
{
closed = 1;
nodes = (
(1057,0,l),
(1066,66,l),
(136,66,l),
(130,22,l),
(1234,1424,l),
(1241,1472,l),
(273,1472,l),
(264,1406,l),
(1170,1406,l),
(1176,1450,l),
(70,48,l),
(63,0,l)
);
}
);
width = 1145;
}
);
leftKerningGroup = Z;
rightKerningGroup = Z;
unicode = 90;
}
{
color = 11;
glyphname = bracketleft;
layers = (
{
layerId = "74BA431A-305A-4713-B55D-0EBBAE8D1CDE";
shapes = (
{
closed = 1;
nodes = (
(653,-188,l),
(691,78,l),
(487,78,l),
(675,1394,l),
(879,1394,l),
(917,1660,l),
(351,1660,l),
(87,-188,l)
);
}
);
width = 808;
},
{
layerId = "0037C824-E55C-4C72-8B66-C5A151689C78";
shapes = (
{
closed = 1;
nodes = (
(519,-188,l),
(541,-29,l),
(316,-29,l),
(535,1502,l),
(760,1502,l),
(783,1660,l),
(351,1660,l),
(87,-188,l)
);
}
);
width = 647;
},
{
layerId = "6219A2BD-1940-4437-A1C4-EF2412E3F892";
shapes = (
{
closed = 1;
nodes = (
(423,-188,l),
(432,-124,l),
(188,-124,l),
(434,1598,l),
(678,1598,l),
(687,1660,l),
(373,1660,l),
(109,-188,l)
);
}
);
width = 550;
}
);
leftKerningGroup = parenleft;
rightKerningGroup = braceleft;
unicode = 91;
}
{
color = 11;
glyphname = backslash;
layers = (
{
layerId = "AB3199DD-655E-4C0F-A34B-FD02744555A7";
shapes = (
{
closed = 1;
nodes = (
(639,-92,l),
(363,1604,l),
(91,1530,l),
(366,-170,l)
);
}
);
width = 704;
},
{
layerId = "64C9CF7B-5345-44EA-861F-4D3695E3DC07";
shapes = (
{
closed = 1;
nodes = (
(520,-93,l),
(247,1576,l),
(83,1531,l),
(356,-138,l)
);
}
);
width = 579;
},
{
layerId = "C792CAD3-12E8-4938-96FB-ECD54646BE96";
shapes = (
{
closed = 1;
nodes = (
(433,-94,l),
(164,1552,l),
(95,1532,l),
(366,-110,l)
);
}
);
width = 504;
}
);
leftKerningGroup = backslash;
rightKerningGroup = backslash;
unicode = 92;
}
{
color = 11;
glyphname = bracketright;
layers = (
{
layerId = "AA9127E2-66D7-45E5-8D77-9FE81E534461";
shapes = (
{
closed = 1;
nodes = (
(483,-188,l),
(747,1660,l),
(183,1660,l),
(145,1394,l),
(349,1394,l),
(161,78,l),
(-43,78,l),
(-81,-188,l)
);
}
);
width = 808;
},
{
layerId = "780D6C53-D363-41D3-A45B-4CEB198897BB";
shapes = (
{
closed = 1;
nodes = (
(324,-188,l),
(588,1660,l),
(157,1660,l),
(135,1502,l),
(362,1502,l),
(143,-29,l),
(-84,-29,l),
(-107,-188,l)
);
}
);
width = 647;
},
{
layerId = "15DD03C9-6E3F-4F53-9575-CC59ABE7D50E";
shapes = (
{
closed = 1;
nodes = (
(207,-188,l),
(471,1660,l),
(157,1660,l),
(148,1598,l),
(396,1598,l),
(150,-124,l),
(-98,-124,l),
(-107,-188,l)
);
}
);
width = 550;
}
);
leftKerningGroup = braceright;
rightKerningGroup = parenright;
unicode = 93;
}
{
color = 11;
glyphname = asciicircum;
layers = (
{
layerId = "09D68B3C-BAC3-4385-B1FC-84D43D19D103";
name = "Black.21년 12월 19일 02:30";
shapes = (
{
closed = 1;
nodes = (
(338,466,l),
(686,1384,l),
(512,1384,l),
(860,466,l),
(1128,466,l),
(734,1472,l),
(468,1472,l),
(72,466,l)
);
}
);
width = 1200;
},
{
layerId = "BFB449A1-67C6-4876-9AB0-1530DCC50662";
name = "Thin.21년 12월 19일 02:34";
shapes = (
{
closed = 1;
nodes = (
(170,468,l),
(618,1414,l),
(582,1414,l),
(1028,468,l),
(1106,468,l),
(630,1472,l),
(568,1472,l),
(92,468,l)
);
}
);
width = 1200;
},
{
layerId = "74BA431A-305A-4713-B55D-0EBBAE8D1CDE";
shapes = (
{
closed = 1;
nodes = (
(598,1204,l),
(522,1204,l),
(642,828,l),
(938,828,l),
(730,1472,l),
(466,1472,l),
(74,828,l),
(370,828,l)
);
}
);
width = 956;
},
{
layerId = "0037C824-E55C-4C72-8B66-C5A151689C78";
shapes = (
{
closed = 1;
nodes = (
(573,1315,l),
(533,1315,l),
(707,843,l),
(882,843,l),
(654,1472,l),
(496,1472,l),
(88,843,l),
(263,843,l)
);
}
);
width = 909;
},
{
layerId = "6219A2BD-1940-4437-A1C4-EF2412E3F892";
shapes = (
{
closed = 1;
nodes = (
(556,1412,l),
(548,1412,l),
(770,856,l),
(838,856,l),
(592,1472,l),
(528,1472,l),
(106,856,l),
(174,856,l)
);
}
);
width = 880;
}
);
unicode = 94;
}
{
color = 11;
glyphname = underscore;
layers = (
{
layerId = "DFDA7944-A323-4357-A6CD-3EE161AE16F3";
shapes = (
{
closed = 1;
nodes = (
(798,-266,l),
(837,6,l),
(5,6,l),
(-34,-266,l)
);
}
);
width = 917;
},
{
layerId = "E40C1264-1582-41D6-8175-F4C1F2081197";
shapes = (
{
closed = 1;
nodes = (
(814,-156,l),
(837,4,l),
(5,4,l),
(-18,-156,l)
);
}
);
width = 917;
},
{
layerId = "9BC0C71B-A637-49D9-92D6-4EFEC3ADCDB0";
shapes = (
{
closed = 1;
nodes = (
(829,-58,l),
(837,2,l),
(5,2,l),
(-3,-58,l)
);
}
);
width = 918;
}
);
leftKerningGroup = period;
rightKerningGroup = period;
unicode = 95;
}
{
color = 11;
glyphname = a;
layers = (
{
anchors = (
{
name = bottom;
position = "{544, 0}";
},
{
name = ogonek;
position = "{954, 0}";
},
{
name = top;
position = "{696, 1010}";
}
);
layerId = "74BA431A-305A-4713-B55D-0EBBAE8D1CDE";
shapes = (
{
closed = 1;
nodes = (
(582.571,-24,o),
(710.,70,o),
(760.857,216,c),
(742.857,216,l),
(739.,189,ls),
(730.,126,o),
(731.857,62,o),
(748,0,c),
(1074,0,l),
(1076.143,99,o),
(1086.714,201,o),
(1100.714,299,cs),
(1152.286,660,ls),
(1198.286,982,o),
(1042.857,1126,o),
(696.857,1126,cs),
(522.857,1126,o),
(297.143,1072,o),
(167.714,992,c),
(228.,742,l),
(362.571,816,o),
(510.,854,o),
(638.,854,cs),
(774.,854,o),
(824.286,814,o),
(808.571,704,cs),
(768.571,424,ls),
(750.857,300,o),
(646.571,228,o),
(526.571,228,cs),
(426.571,228,o),
(379.143,274,o),
(389.714,348,cs),
(401.429,430,o),
(476.286,478,o),
(690.286,478,cs),
(816.286,478,l),
(842.286,660,l),
(714.286,660,ls),
(232.286,660,o),
(65.714,558,o),
(34.571,340,cs),
(5.714,138,o),
(148.571,-24,o),
(408.571,-24,cs)
);
}
);
width = 1266;
},
{
anchors = (
{
name = bottom;
position = "{515, 0}";
},
{
name = ogonek;
position = "{908, 0}";
},
{
name = top;
position = "{666, 1010}";
}
);
layerId = "0037C824-E55C-4C72-8B66-C5A151689C78";
shapes = (
{
closed = 1;
nodes = (
(605.,-21,o),
(750.143,85,o),
(811.714,243,c),
(788.714,243,l),
(784.143,211,ls),
(774.143,141,o),
(772.,70,o),
(777,0,c),
(968,0,l),
(969.857,97,o),
(978.857,195,o),
(992.571,291,cs),
(1052.429,710,ls),
(1094.286,1003,o),
(958.571,1124,o),
(677.571,1124,cs),
(519.571,1124,o),
(330.429,1074,o),
(206.,994,c),
(249.571,844,l),
(378.857,923,o),
(514.143,960,o),
(648.143,960,cs),
(811.143,960,o),
(879.,896,o),
(854.857,727,cs),
(813.,434,ls),
(786.429,248,o),
(641.857,132,o),
(477.857,132,cs),
(334.857,132,o),
(257.,210,o),
(274.286,331,cs),
(293.143,463,o),
(387.857,517,o),
(733.857,517,cs),
(856.857,517,l),
(874.571,641,l),
(749.571,641,ls),
(257.571,641,o),
(98.143,547,o),
(66.571,326,cs),
(38.143,127,o),
(180.,-21,o),
(417.,-21,cs)
);
}
);
width = 1197;
},
{
anchors = (
{
name = bottom;
position = "{500, 0}";
},
{
name = ogonek;
position = "{878, 0}";
},
{
name = top;
position = "{650, 1010}";
}
);
layerId = "6219A2BD-1940-4437-A1C4-EF2412E3F892";
shapes = (
{
closed = 1;
nodes = (
(635,-18,o),
(796,98,o),
(868,266,c),
(840,266,l),
(833,217,ls),
(823,145,o),
(818,72,o),
(821,0,c),
(884,0,l),
(885,94,o),
(895,190,o),
(909,284,cs),
(976,754,ls),
(1014,1022,o),
(896,1122,o),
(672,1122,cs),
(528,1122,o),
(372,1076,o),
(250,996,c),
(279,934,l),
(405,1018,o),
(529,1054,o),
(669,1054,cs),
(855,1054,o),
(938,968,o),
(907,748,cs),
(863,442,ls),
(829,202,o),
(649,48,o),
(447,48,cs),
(265,48,o),
(160,154,o),
(183,316,cs),
(208,492,o),
(321,552,o),
(783,552,cs),
(905,552,l),
(915,624,l),
(791,624,ls),
(291,624,o),
(139,538,o),
(107,314,cs),
(79,118,o),
(219,-18,o),
(435,-18,cs)
);
}
);
width = 1156;
}
);
leftKerningGroup = a;
rightKerningGroup = n;
unicode = 97;
}
{
color = 11;
glyphname = b;
layers = (
{
anchors = (
{
name = bottom;
position = "{649, 0}";
},
{
name = top;
position = "{891, 1472}";
}
);
layerId = "DFDA7944-A323-4357-A6CD-3EE161AE16F3";
shapes = (
{
closed = 1;
nodes = (
(1067,-24,o),
(1302,170,o),
(1350,502,cs),
(1364,602,ls),
(1411,932,o),
(1231,1126,o),
(956,1126,cs),
(790,1126,o),
(632,1044,o),
(559,912,c),
(587,912,l),
(667,1472,l),
(297,1472,l),
(87,0,l),
(451,0,l),
(479,198,l),
(455,198,l),
(488,60,o),
(622,-24,o),
(792,-24,cs)
);
},
{
closed = 1;
nodes = (
(573,252,o),
(502,344,o),
(532,552,cs),
(562,760,o),
(658,850,o),
(800,850,cs),
(928,850,o),
(1016,775,o),
(991,602,cs),
(977,502,ls),
(952,329,o),
(843,252,o),
(715,252,cs)
);
}
);
width = 1388;
},
{
anchors = (
{
name = bottom;
position = "{660, 0}";
},
{
name = top;
position = "{869, 1472}";
}
);
layerId = "E40C1264-1582-41D6-8175-F4C1F2081197";
shapes = (
{
closed = 1;
nodes = (
(976,-20,o),
(1213,168,o),
(1260,498,cs),
(1276,609,ls),
(1323,937,o),
(1140,1124,o),
(865,1124,cs),
(671,1124,o),
(502,1024,o),
(423,850,c),
(451,850,l),
(540,1472,l),
(341,1472,l),
(131,0,l),
(327,0,l),
(364,257,l),
(338,257,l),
(366,80,o),
(505,-20,o),
(701,-20,cs)
);
},
{
closed = 1;
nodes = (
(476,138,o),
(367,277,o),
(406,553,cs),
(446,830,o),
(594,965,o),
(795,965,cs),
(981,965,o),
(1106,849,o),
(1072,609,cs),
(1056,498,ls),
(1022,258,o),
(863,138,o),
(677,138,cs)
);
}
);
width = 1328;
},
{
anchors = (
{
name = bottom;
position = "{669, 0}";
},
{
name = top;
position = "{851, 1472}";
}
);
layerId = "9BC0C71B-A637-49D9-92D6-4EFEC3ADCDB0";
shapes = (
{
closed = 1;
nodes = (
(907,-16,o),
(1143,167,o),
(1190,495,cs),
(1207,614,ls),
(1253,941,o),
(1068,1122,o),
(793,1122,cs),
(577,1122,o),
(401,1008,o),
(318,802,c),
(346,802,l),
(441,1472,l),
(375,1472,l),
(165,0,l),
(231,0,l),
(274,302,l),
(246,302,l),
(273,96,o),
(415,-16,o),
(631,-16,cs)
);
},
{
closed = 1;
nodes = (
(400,50,o),
(261,224,o),
(308,554,cs),
(355,884,o),
(544,1054,o),
(790,1054,cs),
(1022,1054,o),
(1176,906,o),
(1135,614,cs),
(1118,494,ls),
(1076,202,o),
(878,50,o),
(646,50,cs)
);
}
);
width = 1282;
}
);
leftKerningGroup = h;
rightKerningGroup = o;
unicode = 98;
}
{
color = 11;
glyphname = c;
layers = (
{
anchors = (
{
name = bottom;
position = "{611, 0}";
},
{
name = top;
position = "{755, 1010}";
}
);
layerId = "DFDA7944-A323-4357-A6CD-3EE161AE16F3";
shapes = (
{
closed = 1;
nodes = (
(784,-24,o),
(944,18,o),
(1049,100,c),
(973,350,l),
(892,290,o),
(794,258,o),
(712,258,cs),
(563,258,o),
(464,340,o),
(487,501,cs),
(501,602,ls),
(525,767,o),
(646,846,o),
(796,846,cs),
(880,846,o),
(969,812,o),
(1031,754,c),
(1178,1004,l),
(1098,1082,o),
(954,1126,o),
(798,1126,cs),
(454,1126,o),
(169,939,o),
(121,602,cs),
(107,502,ls),
(59,169,o),
(290,-24,o),
(634,-24,cs)
);
}
);
width = 1085;
},
{
anchors = (
{
name = bottom;
position = "{592, 0}";
},
{
name = top;
position = "{736, 1010}";
}
);
layerId = "E40C1264-1582-41D6-8175-F4C1F2081197";
shapes = (
{
closed = 1;
nodes = (
(740,-20,o),
(890,28,o),
(998,124,c),
(941,268,l),
(846,185,o),
(736,148,o),
(637,148,cs),
(441,148,o),
(314,268,o),
(347,497,cs),
(363,610,ls),
(396,842,o),
(556,958,o),
(753,958,cs),
(857,958,o),
(952,916,o),
(1022,836,c),
(1120,982,l),
(1042,1072,o),
(912,1124,o),
(760,1124,cs),
(456,1124,o),
(196,945,o),
(148,610,cs),
(132,497,ls),
(85,167,o),
(289,-20,o),
(597,-20,cs)
);
}
);
width = 1049;
},
{
anchors = (
{
name = bottom;
position = "{581, 0}";
},
{
name = top;
position = "{725, 1010}";
}
);
layerId = "9BC0C71B-A637-49D9-92D6-4EFEC3ADCDB0";
shapes = (
{
closed = 1;
nodes = (
(707,-16,o),
(848,36,o),
(958,146,c),
(919,196,l),
(812,92,o),
(690,50,o),
(576,50,cs),
(339,50,o),
(188,206,o),
(230,494,cs),
(247,614,ls),
(288,905,o),
(481,1056,o),
(720,1056,cs),
(842,1056,o),
(943,1008,o),
(1021,908,c),
(1074,962,l),
(999,1064,o),
(879,1122,o),
(731,1122,cs),
(461,1122,o),
(224,950,o),
(176,614,cs),
(159,494,ls),
(112,166,o),
(295,-16,o),
(571,-16,cs)
);
}
);
width = 1027;
}
);
leftKerningGroup = o;
rightKerningGroup = c;
unicode = 99;
}
{
color = 11;
glyphname = d;
layers = (
{
anchors = (
{
name = bottom;
position = "{659, 0}";
},
{
name = center;
position = "{716, 554}";
},
{
name = stroke;
position = "{1114, 1326}";
},
{
name = top;
position = "{846, 1324}";
},
{
name = topright;
position = "{1513, 1472}";
}
);
layerId = "DFDA7944-A323-4357-A6CD-3EE161AE16F3";
shapes = (
{
closed = 1;
nodes = (
(684,-24,o),
(846,60,o),
(913,196,c),
(891,196,l),
(863,0,l),
(1225,0,l),
(1435,1472,l),
(1065,1472,l),
(986,916,l),
(1014,916,l),
(980,1046,o),
(844,1126,o),
(678,1126,cs),
(403,1126,o),
(167,933,o),
(120,602,cs),
(106,502,ls),
(59,172,o),
(241,-24,o),
(514,-24,cs)
);
},
{
closed = 1;
nodes = (
(543,254,o),
(454,330,o),
(479,502,cs),
(493,602,ls),
(518,774,o),
(629,852,o),
(757,852,cs),
(897,852,o),
(970,760,o),
(940,554,cs),
(910,346,o),
(811,254,o),
(671,254,cs)
);
}
);
width = 1387;
},
{
anchors = (
{
name = bottom;
position = "{627, 0}";
},
{
name = center;
position = "{697, 556}";
},
{
name = stroke;
position = "{1093, 1325}";
},
{
name = top;
position = "{810, 1310}";
},
{
name = topright;
position = "{1433, 1472}";
}
);
layerId = "E40C1264-1582-41D6-8175-F4C1F2081197";
shapes = (
{
closed = 1;
nodes = (
(735,-20,o),
(905,79,o),
(979,251,c),
(954,251,l),
(918,0,l),
(1123,0,l),
(1333,1472,l),
(1125,1472,l),
(1037,857,l),
(1065,857,l),
(1038,1027,o),
(897,1124,o),
(707,1124,cs),
(428,1124,o),
(193,939,o),
(146,610,cs),
(130,497,ls),
(83,168,o),
(266,-20,o),
(543,-20,cs)
);
},
{
closed = 1;
nodes = (
(432,146,o),
(307,261,o),
(341,497,cs),
(357,610,ls),
(391,845,o),
(548,959,o),
(731,959,cs),
(928,959,o),
(1037,826,o),
(998,554,cs),
(959,281,o),
(812,146,o),
(615,146,cs)
);
}
);
width = 1321;
},
{
anchors = (
{
name = bottom;
position = "{609, 0}";
},
{
name = center;
position = "{691, 558}";
},
{
name = stroke;
position = "{1084, 1324}";
},
{
name = top;
position = "{788, 1298}";
},
{
name = topright;
position = "{1371, 1472}";
}
);
layerId = "9BC0C71B-A637-49D9-92D6-4EFEC3ADCDB0";
shapes = (
{
closed = 1;
nodes = (
(791,-16,o),
(967,96,o),
(1046,300,c),
(1018,300,l),
(975,0,l),
(1043,0,l),
(1253,1472,l),
(1187,1472,l),
(1092,804,l),
(1120,804,l),
(1097,1010,o),
(953,1122,o),
(741,1122,cs),
(456,1122,o),
(223,941,o),
(177,614,cs),
(160,494,ls),
(113,166,o),
(296,-16,o),
(579,-16,cs)
);
},
{
closed = 1;
nodes = (
(342,50,o),
(188,202,o),
(230,494,cs),
(247,614,ls),
(288,906,o),
(486,1054,o),
(718,1054,cs),
(966,1054,o),
(1105,884,o),
(1058,554,cs),
(1011,224,o),
(822,50,o),
(574,50,cs)
);
}
);
width = 1281;
}
);
leftKerningGroup = o;
rightKerningGroup = l;
unicode = 100;
}
{
color = 11;
glyphname = e;
layers = (
{
anchors = (
{
name = bottom;
position = "{609, 0}";
},
{
name = ogonek;
position = "{855, 0}";
},
{
name = top;
position = "{761, 1010}";
}
);
layerId = "DFDA7944-A323-4357-A6CD-3EE161AE16F3";
shapes = (
{
closed = 1;
nodes = (
(848,-24,o),
(1031,26,o),
(1149,112,c),
(1081,352,l),
(984,284,o),
(849,252,o),
(731,252,cs),
(532,252,o),
(434,328,o),
(459,502,cs),
(473,602,ls),
(500,790,o),
(601,876,o),
(750,876,cs),
(886,876,o),
(949,798,o),
(926,620,c),
(969,656,l),
(437,656,l),
(411,474,l),
(1215,474,l),
(1226,556,ls),
(1276,902,o),
(1106,1126,o),
(774,1126,cs),
(448,1126,o),
(165,911,o),
(121,602,cs),
(107,502,ls),
(59,169,o),
(301,-24,o),
(680,-24,cs)
);
}
);
width = 1239;
},
{
anchors = (
{
name = bottom;
position = "{599, 0}";
},
{
name = ogonek;
position = "{791, 0}";
},
{
name = top;
position = "{746, 1010}";
}
);
layerId = "E40C1264-1582-41D6-8175-F4C1F2081197";
shapes = (
{
closed = 1;
nodes = (
(802,-20,o),
(976,34,o),
(1087,133,c),
(1039,268,l),
(926,176,o),
(796,138,o),
(667,138,cs),
(433,138,o),
(296,254,o),
(331,498,cs),
(347,609,ls),
(381,846,o),
(541,977,o),
(745,977,cs),
(943,977,o),
(1031,854,o),
(996,603,c),
(1039,634,l),
(310,634,l),
(292,512,l),
(1155,512,l),
(1165,581,ls),
(1214,922,o),
(1062,1124,o),
(762,1124,cs),
(463,1124,o),
(197,925,o),
(152,609,cs),
(136,498,ls),
(89,165,o),
(301,-20,o),
(636,-20,cs)
);
}
);
width = 1206;
},
{
anchors = (
{
name = bottom;
position = "{591, 0}";
},
{
name = ogonek;
position = "{741, 0}";
},
{
name = top;
position = "{735, 1010}";
}
);
layerId = "9BC0C71B-A637-49D9-92D6-4EFEC3ADCDB0";
shapes = (
{
closed = 1;
nodes = (
(767,-16,o),
(933,40,o),
(1038,150,c),
(1006,202,l),
(882,92,o),
(754,50,o),
(616,50,cs),
(356,50,o),
(189,196,o),
(232,494,cs),
(249,614,ls),
(288,890,o),
(494,1056,o),
(740,1056,cs),
(986,1056,o),
(1095,898,o),
(1051,590,c),
(1093,616,l),
(211,616,l),
(200,542,l),
(1108,542,l),
(1117,600,ls),
(1165,938,o),
(1027,1122,o),
(751,1122,cs),
(474,1122,o),
(222,936,o),
(176,614,cs),
(159,494,ls),
(111,162,o),
(302,-16,o),
(603,-16,cs)
);
}
);
width = 1181;
}
);
leftKerningGroup = o;
rightKerningGroup = e;
unicode = 101;
}
{
color = 11;
glyphname = f;
layers = (
{
anchors = (
{
name = bottom;
position = "{363, 0}";
},
{
name = top;
position = "{552, 1320}";
}
);
layerId = "DFDA7944-A323-4357-A6CD-3EE161AE16F3";
shapes = (
{
closed = 1;
nodes = (
(547,0,l),
(666,834,l),
(950,834,l),
(989,1104,l),
(637,1104,l),
(670,998,l),
(684,1098,ls),
(694,1172,o),
(756,1228,o),
(832,1228,cs),
(1006,1228,l),
(1041,1472,l),
(761,1472,ls),
(543,1472,o),
(365,1314,o),
(334,1100,cs),
(316,970,l),
(433,1104,l),
(123,1104,l),
(84,834,l),
(296,834,l),
(177,0,l)
);
}
);
width = 884;
},
{
anchors = (
{
name = bottom;
position = "{285, 0}";
},
{
name = top;
position = "{475, 1332}";
}
);
layerId = "E40C1264-1582-41D6-8175-F4C1F2081197";
shapes = (
{
closed = 1;
nodes = (
(389,0,l),
(524,947,l),
(836,947,l),
(859,1104,l),
(507,1104,l),
(529,1039,l),
(548,1170,ls),
(561,1259,o),
(636,1326,o),
(726,1326,cs),
(890,1326,l),
(911,1472,l),
(696,1472,ls),
(519,1472,o),
(373,1343,o),
(348,1168,cs),
(328,1030,l),
(391,1104,l),
(120,1104,l),
(97,947,l),
(316,947,l),
(181,0,l)
);
}
);
width = 752;
},
{
anchors = (
{
name = bottom;
position = "{235, 0}";
},
{
name = top;
position = "{427, 1342}";
}
);
layerId = "9BC0C71B-A637-49D9-92D6-4EFEC3ADCDB0";
shapes = (
{
closed = 1;
nodes = (
(269,0,l),
(418,1046,l),
(754,1046,l),
(763,1104,l),
(411,1104,l),
(425,1076,l),
(447,1234,ls),
(462,1336,o),
(549,1412,o),
(651,1412,cs),
(807,1412,l),
(815,1472,l),
(657,1472,ls),
(517,1472,o),
(398,1368,o),
(378,1228,cs),
(358,1084,l),
(373,1104,l),
(137,1104,l),
(128,1046,l),
(352,1046,l),
(203,0,l)
);
}
);
width = 672;
}
);
leftKerningGroup = f;
rightKerningGroup = f;
unicode = 102;
}
{
color = 11;
glyphname = g;
layers = (
{
anchors = (
{
name = top;
position = "{803, 1010}";
}
);
layerId = "DFDA7944-A323-4357-A6CD-3EE161AE16F3";
shapes = (
{
closed = 1;
nodes = (
(966,-398,o),
(1203,-222,o),
(1254,134,cs),
(1393,1104,l),
(1029,1104,l),
(1002,918,l),
(1022,918,l),
(995,1048,o),
(862,1126,o),
(688,1126,cs),
(397,1126,o),
(167,930,o),
(120,602,cs),
(106,502,ls),
(63,200,o),
(255,26,o),
(533,26,cs),
(707,26,o),
(862,108,o),
(929,240,c),
(909,240,l),
(888,94,ls),
(867,-58,o),
(765,-126,o),
(575,-126,cs),
(427,-126,o),
(264,-88,o),
(168,-22,c),
(36,-270,l),
(148,-360,o),
(338,-398,o),
(560,-398,cs)
);
},
{
closed = 1;
nodes = (
(560,302,o),
(461,366,o),
(481,502,cs),
(495,602,ls),
(519,768,o),
(623,850,o),
(762,850,cs),
(906,850,o),
(980,760,o),
(953,576,cs),
(927,392,o),
(828,302,o),
(684,302,cs)
);
}
);
width = 1397;
},
{
anchors = (
{
name = top;
position = "{777, 1010}";
}
);
layerId = "E40C1264-1582-41D6-8175-F4C1F2081197";
shapes = (
{
closed = 1;
nodes = (
(898,-395,o),
(1094,-236,o),
(1139,80,cs),
(1286,1104,l),
(1089,1104,l),
(1053,853,l),
(1077,853,l),
(1055,1027,o),
(915,1124,o),
(718,1124,cs),
(428,1124,o),
(199,934,o),
(153,609,cs),
(137,498,ls),
(94,198,o),
(284,25,o),
(562,25,cs),
(759,25,o),
(927,124,o),
(999,296,c),
(977,296,l),
(943,56,ls),
(915,-138,o),
(790,-239,o),
(577,-239,cs),
(416,-239,o),
(286,-203,o),
(172,-113,c),
(89,-254,l),
(199,-351,o),
(364,-395,o),
(562,-395,cs)
);
},
{
closed = 1;
nodes = (
(444,183,o),
(310,290,o),
(340,498,cs),
(356,609,ls),
(390,844,o),
(543,965,o),
(739,965,cs),
(941,965,o),
(1052,832,o),
(1015,574,cs),
(978,318,o),
(829,183,o),
(627,183,cs)
);
}
);
width = 1333;
},
{
anchors = (
{
name = top;
position = "{757, 1010}";
}
);
layerId = "9BC0C71B-A637-49D9-92D6-4EFEC3ADCDB0";
shapes = (
{
closed = 1;
nodes = (
(845,-392,o),
(1010,-246,o),
(1050,38,cs),
(1203,1104,l),
(1135,1104,l),
(1092,802,l),
(1120,802,l),
(1101,1010,o),
(955,1122,o),
(741,1122,cs),
(451,1122,o),
(224,937,o),
(178,614,cs),
(161,494,ls),
(118,196,o),
(306,24,o),
(584,24,cs),
(798,24,o),
(976,136,o),
(1054,340,c),
(1030,340,l),
(985,26,ls),
(952,-200,o),
(808,-326,o),
(578,-326,cs),
(406,-326,o),
(303,-292,o),
(175,-184,c),
(128,-242,l),
(238,-344,o),
(383,-392,o),
(563,-392,cs)
);
},
{
closed = 1;
nodes = (
(354,90,o),
(193,231,o),
(231,494,cs),
(248,614,ls),
(289,903,o),
(481,1054,o),
(720,1054,cs),
(968,1054,o),
(1108,888,o),
(1063,572,cs),
(1018,260,o),
(830,90,o),
(582,90,cs)
);
}
);
width = 1283;
}
);
leftKerningGroup = o;
rightKerningGroup = u;
unicode = 103;
}
{
color = 11;
glyphname = h;
layers = (
{
anchors = (
{
name = bottom;
position = "{592, 0}";
},
{
name = center;
position = "{672, 558}";
},
{
name = dot;
position = "{812, 786}";
},
{
name = stroke;
position = "{509, 1236}";
},
{
name = top;
position = "{802, 1472}";
},
{
name = topright;
position = "{666, 1472}";
}
);
layerId = "74BA431A-305A-4713-B55D-0EBBAE8D1CDE";
shapes = (
{
closed = 1;
nodes = (
(404,0,l),
(492.57,620,ls),
(511.141,750,o),
(610.284,842,o),
(740.284,842,cs),
(838.284,842,o),
(886.856,790,o),
(866.57,648,cs),
(774,0,l),
(1144,0,l),
(1238.57,662,ls),
(1283.998,980,o),
(1176.855,1126,o),
(916.855,1126,cs),
(748.855,1126,o),
(597.712,1048,o),
(508.284,912,c),
(536.284,912,l),
(614.283,1472,l),
(244.283,1472,l),
(34,0,l)
);
}
);
width = 1352;
},
{
anchors = (
{
name = bottom;
position = "{554, 0}";
},
{
name = center;
position = "{634, 559}";
},
{
name = dot;
position = "{616, 798}";
},
{
name = stroke;
position = "{462, 1222}";
},
{
name = top;
position = "{765, 1472}";
},
{
name = topright;
position = "{563, 1472}";
}
);
layerId = "0037C824-E55C-4C72-8B66-C5A151689C78";
shapes = (
{
closed = 1;
nodes = (
(279,0,l),
(370,634,ls),
(397,827,o),
(539,956,o),
(731,956,cs),
(890,956,o),
(958,877,o),
(929,675,cs),
(833,0,l),
(1041,0,l),
(1139,685,ls),
(1183,991,o),
(1067,1124,o),
(811,1124,cs),
(624,1124,o),
(466,1033,o),
(378,875,c),
(405,875,l),
(489,1472,l),
(280,1472,l),
(70,0,l)
);
}
);
width = 1286;
},
{
anchors = (
{
name = bottom;
position = "{530, 0}";
},
{
name = center;
position = "{610, 560}";
},
{
name = dot;
position = "{453, 808}";
},
{
name = stroke;
position = "{429, 1210}";
},
{
name = top;
position = "{742, 1472}";
},
{
name = topright;
position = "{482, 1472}";
}
);
layerId = "6219A2BD-1940-4437-A1C4-EF2412E3F892";
shapes = (
{
closed = 1;
nodes = (
(178,0,l),
(270.285,646,ls),
(305.713,894,o),
(484.855,1056,o),
(730.855,1056,cs),
(944.855,1056,o),
(1030.284,954,o),
(993.713,698,cs),
(894,0,l),
(960,0,l),
(1060.856,706,ls),
(1102.855,1000,o),
(978.284,1122,o),
(726.284,1122,cs),
(522.284,1122,o),
(357.712,1020,o),
(272.284,842,c),
(298.284,842,l),
(388.283,1472,l),
(322.283,1472,l),
(112,0,l)
);
}
);
width = 1246;
}
);
leftKerningGroup = h;
rightKerningGroup = n;
unicode = 104;
}
{
color = 11;
glyphname = i;
layers = (
{
anchors = (
{
name = bottom;
position = "{220, 0}";
},
{
name = ogonek;
position = "{316, 0}";
}
);
layerId = "74BA431A-305A-4713-B55D-0EBBAE8D1CDE";
shapes = (
{
closed = 1;
nodes = (
(583.426,1256,l),
(614.283,1472,l),
(244.283,1472,l),
(213.426,1256,l)
);
},
{
closed = 1;
nodes = (
(404,0,l),
(561.712,1104,l),
(191.712,1104,l),
(34,0,l)
);
}
);
width = 616;
},
{
anchors = (
{
name = bottom;
position = "{172, 0}";
},
{
name = ogonek;
position = "{240, 0}";
}
);
layerId = "0037C824-E55C-4C72-8B66-C5A151689C78";
shapes = (
{
closed = 1;
nodes = (
(462,1293,l),
(487,1472,l),
(278,1472,l),
(253,1293,l)
);
},
{
closed = 1;
nodes = (
(277,0,l),
(435,1104,l),
(226,1104,l),
(68,0,l)
);
}
);
width = 522;
},
{
anchors = (
{
name = bottom;
position = "{142, 0}";
},
{
name = ogonek;
position = "{186, 0}";
}
);
layerId = "6219A2BD-1940-4437-A1C4-EF2412E3F892";
shapes = (
{
closed = 1;
nodes = (
(367.426,1326,l),
(388.283,1472,l),
(322.283,1472,l),
(301.426,1326,l)
);
},
{
closed = 1;
nodes = (
(178,0,l),
(335.712,1104,l),
(269.712,1104,l),
(112,0,l)
);
}
);
width = 466;
}
);
leftKerningGroup = h;
rightKerningGroup = l;
unicode = 105;
}
{
color = 11;
glyphname = j;
layers = (
{
layerId = "74BA431A-305A-4713-B55D-0EBBAE8D1CDE";
shapes = (
{
closed = 1;
nodes = (
(591.426,1256,l),
(622.283,1472,l),
(252.283,1472,l),
(221.426,1256,l)
);
},
{
closed = 1;
nodes = (
(-136.571,-396,ls),
(243.144,-370,o),
(378.,-238,o),
(421.143,64,cs),
(569.712,1104,l),
(199.712,1104,l),
(43.429,10,ls),
(30.572,-80,o),
(-15.428,-122,o),
(-112.571,-130,cs),
(-226.285,-142,l),
(-239.428,-402,l)
);
}
);
width = 628;
},
{
layerId = "0037C824-E55C-4C72-8B66-C5A151689C78";
shapes = (
{
closed = 1;
nodes = (
(466,1293,l),
(491,1472,l),
(282,1472,l),
(257,1293,l)
);
},
{
closed = 1;
nodes = (
(-168,-396,ls),
(111,-377,o),
(245,-249,o),
(281,2,cs),
(439,1104,l),
(230,1104,l),
(69,-22,ls),
(50,-154,o),
(-26,-228,o),
(-157,-237,c),
(-260,-246,l),
(-267,-402,l)
);
}
);
width = 528;
},
{
layerId = "6219A2BD-1940-4437-A1C4-EF2412E3F892";
shapes = (
{
closed = 1;
nodes = (
(369.426,1326,l),
(390.283,1472,l),
(324.283,1472,l),
(303.426,1326,l)
);
},
{
closed = 1;
nodes = (
(-180.571,-396,ls),
(9.144,-384,o),
(143.143,-258,o),
(172.572,-52,cs),
(337.712,1104,l),
(271.712,1104,l),
(106.857,-50,ls),
(82.572,-220,o),
(-19.999,-322,o),
(-181.428,-332,cs),
(-274.285,-338,l),
(-277.428,-402,l)
);
}
);
width = 468;
}
);
leftKerningGroup = j;
rightKerningGroup = l;
unicode = 106;
}
{
color = 11;
glyphname = k;
layers = (
{
anchors = (
{
name = bottom;
position = "{603, 0}";
},
{
name = top;
position = "{855, 1472}";
}
);
layerId = "DFDA7944-A323-4357-A6CD-3EE161AE16F3";
shapes = (
{
closed = 1;
nodes = (
(624,400,l),
(879,0,l),
(1305,0,l),
(885,658,l)
);
},
{
closed = 1;
nodes = (
(1443,1104,l),
(985,1104,l),
(558,706,l),
(667,1472,l),
(297,1472,l),
(87,0,l),
(457,0,l),
(488,218,l)
);
}
);
width = 1281;
},
{
anchors = (
{
name = bottom;
position = "{527, 0}";
},
{
name = top;
position = "{812, 1472}";
}
);
layerId = "E40C1264-1582-41D6-8175-F4C1F2081197";
shapes = (
{
closed = 1;
nodes = (
(534,518,l),
(884,0,l),
(1129,0,l),
(683,669,l)
);
},
{
closed = 1;
nodes = (
(1243,1104,l),
(979,1104,l),
(409,591,l),
(535,1472,l),
(326,1472,l),
(116,0,l),
(325,0,l),
(370,314,l)
);
}
);
width = 1129;
},
{
anchors = (
{
name = bottom;
position = "{481, 0}";
},
{
name = top;
position = "{795, 1472}";
}
);
layerId = "9BC0C71B-A637-49D9-92D6-4EFEC3ADCDB0";
shapes = (
{
closed = 1;
nodes = (
(476,622,l),
(909,0,l),
(995,0,l),
(524,678,l)
);
},
{
closed = 1;
nodes = (
(1087,1104,l),
(995,1104,l),
(299,490,l),
(439,1472,l),
(373,1472,l),
(163,0,l),
(229,0,l),
(286,398,l)
);
}
);
width = 1037;
}
);
leftKerningGroup = h;
rightKerningGroup = k;
unicode = 107;
}
{
color = 11;
glyphname = l;
layers = (
{
anchors = (
{
name = bottom;
position = "{407, 0}";
},
{
name = center;
position = "{408, 802}";
},
{
name = dot;
position = "{886, 802}";
},
{
name = top;
position = "{481, 1472}";
},
{
name = topright;
position = "{743, 1472}";
}
);
layerId = "DFDA7944-A323-4357-A6CD-3EE161AE16F3";
shapes = (
{
closed = 1;
nodes = (
(677,0,l),
(739,266,l),
(627,266,ls),
(531,266,o),
(498,316,o),
(511,406,cs),
(663,1472,l),
(293,1472,l),
(149,460,ls),
(106,158,o),
(199,0,o),
(575,0,cs)
);
}
);
width = 767;
},
{
anchors = (
{
name = bottom;
position = "{379, 0}";
},
{
name = center;
position = "{361, 811}";
},
{
name = dot;
position = "{723, 811}";
},
{
name = top;
position = "{433, 1472}";
},
{
name = topright;
position = "{634, 1472}";
}
);
layerId = "E40C1264-1582-41D6-8175-F4C1F2081197";
shapes = (
{
closed = 1;
nodes = (
(606,0,l),
(644,159,l),
(542,159,ls),
(412,159,o),
(359,242,o),
(377,374,cs),
(534,1472,l),
(325,1472,l),
(172,398,ls),
(136,147,o),
(231,0,o),
(508,0,cs)
);
}
);
width = 666;
},
{
anchors = (
{
name = bottom;
position = "{369, 0}";
},
{
name = center;
position = "{334, 818}";
},
{
name = dot;
position = "{594, 818}";
},
{
name = top;
position = "{405, 1472}";
},
{
name = topright;
position = "{553, 1472}";
}
);
layerId = "9BC0C71B-A637-49D9-92D6-4EFEC3ADCDB0";
shapes = (
{
closed = 1;
nodes = (
(559,0,l),
(574,64,l),
(482,64,ls),
(322,64,o),
(250,176,o),
(274,346,cs),
(435,1472,l),
(369,1472,l),
(208,344,ls),
(179,138,o),
(275,0,o),
(463,0,cs)
);
}
);
width = 605;
}
);
leftKerningGroup = h;
rightKerningGroup = ltail;
unicode = 108;
}
{
color = 11;
glyphname = m;
layers = (
{
anchors = (
{
name = bottom;
position = "{975, 0}";
},
{
name = top;
position = "{1119, 1010}";
}
);
layerId = "DFDA7944-A323-4357-A6CD-3EE161AE16F3";
shapes = (
{
closed = 1;
nodes = (
(461,0,l),
(549,618,ls),
(568,752,o),
(655,842,o),
(771,842,cs),
(863,842,o),
(902,792,o),
(882,652,cs),
(789,0,l),
(1159,0,l),
(1247,618,ls),
(1266,752,o),
(1353,842,o),
(1469,842,cs),
(1559,842,o),
(1598,792,o),
(1578,652,cs),
(1485,0,l),
(1857,0,l),
(1952,662,ls),
(1997,980,o),
(1896,1126,o),
(1640,1126,cs),
(1468,1126,o),
(1307,1036,o),
(1218,888,c),
(1256,888,l),
(1228,1056,o),
(1122,1126,o),
(954,1126,cs),
(790,1126,o),
(648,1046,o),
(563,912,c),
(585,912,l),
(613,1104,l),
(249,1104,l),
(91,0,l)
);
}
);
width = 2017;
},
{
anchors = (
{
name = bottom;
position = "{935, 0}";
},
{
name = top;
position = "{1079, 1010}";
}
);
layerId = "E40C1264-1582-41D6-8175-F4C1F2081197";
shapes = (
{
closed = 1;
nodes = (
(335,0,l),
(425,633,ls),
(453,829,o),
(581,956,o),
(753,956,cs),
(898,956,o),
(957,879,o),
(928,676,cs),
(831,0,l),
(1039,0,l),
(1129,633,ls),
(1157,829,o),
(1286,956,o),
(1459,956,cs),
(1604,956,o),
(1661,879,o),
(1632,676,cs),
(1535,0,l),
(1745,0,l),
(1843,685,ls),
(1887,993,o),
(1778,1124,o),
(1537,1124,cs),
(1352,1124,o),
(1191,1021,o),
(1111,866,c),
(1143,866,l),
(1123,1046,o),
(1018,1124,o),
(838,1124,cs),
(661,1124,o),
(517,1031,o),
(433,875,c),
(457,875,l),
(490,1104,l),
(284,1104,l),
(126,0,l)
);
}
);
width = 1941;
},
{
anchors = (
{
name = bottom;
position = "{911, 0}";
},
{
name = top;
position = "{1055, 1010}";
}
);
layerId = "9BC0C71B-A637-49D9-92D6-4EFEC3ADCDB0";
shapes = (
{
closed = 1;
nodes = (
(235,0,l),
(327,646,ls),
(363,896,o),
(526,1056,o),
(748,1056,cs),
(940,1056,o),
(1016,956,o),
(979,698,cs),
(879,0,l),
(945,0,l),
(1037,646,ls),
(1073,896,o),
(1238,1056,o),
(1460,1056,cs),
(1654,1056,o),
(1728,956,o),
(1691,698,cs),
(1591,0,l),
(1657,0,l),
(1758,706,ls),
(1800,1004,o),
(1685,1122,o),
(1457,1122,cs),
(1259,1122,o),
(1099,1008,o),
(1028,846,c),
(1054,846,l),
(1043,1038,o),
(937,1122,o),
(745,1122,cs),
(557,1122,o),
(412,1018,o),
(329,842,c),
(355,842,l),
(393,1104,l),
(327,1104,l),
(169,0,l)
);
}
);
width = 1895;
}
);
leftKerningGroup = n;
rightKerningGroup = n;
unicode = 109;
}
{
color = 11;
glyphname = n;
layers = (
{
anchors = (
{
name = bottom;
position = "{590, 0}";
},
{
name = top;
position = "{734, 1010}";
}
);
layerId = "AA9127E2-66D7-45E5-8D77-9FE81E534461";
shapes = (
{
closed = 1;
nodes = (
(404,0,l),
(492.57,620,ls),
(511.141,750,o),
(610.284,842,o),
(740.284,842,cs),
(838.284,842,o),
(886.856,790,o),
(866.57,648,cs),
(774,0,l),
(1144,0,l),
(1238.57,662,ls),
(1283.998,980,o),
(1176.855,1126,o),
(916.855,1126,cs),
(748.855,1126,o),
(595.998,1050,o),
(504.284,912,c),
(528.284,912,l),
(555.712,1104,l),
(191.712,1104,l),
(34,0,l)
);
}
);
width = 1352;
},
{
anchors = (
{
name = bottom;
position = "{553, 0}";
},
{
name = top;
position = "{697, 1010}";
}
);
layerId = "780D6C53-D363-41D3-A45B-4CEB198897BB";
shapes = (
{
closed = 1;
nodes = (
(279,0,l),
(370,634,ls),
(397,827,o),
(539,956,o),
(731,956,cs),
(890,956,o),
(958,877,o),
(929,675,cs),
(833,0,l),
(1041,0,l),
(1139,685,ls),
(1183,992,o),
(1067,1124,o),
(811,1124,cs),
(624,1124,o),
(466,1035,o),
(376,875,c),
(401,875,l),
(434,1104,l),
(228,1104,l),
(70,0,l)
);
}
);
width = 1286;
},
{
anchors = (
{
name = bottom;
position = "{530, 0}";
},
{
name = top;
position = "{674, 1010}";
}
);
layerId = "15DD03C9-6E3F-4F53-9575-CC59ABE7D50E";
shapes = (
{
closed = 1;
nodes = (
(178,0,l),
(270.285,646,ls),
(305.713,894,o),
(484.855,1056,o),
(730.855,1056,cs),
(944.855,1056,o),
(1030.284,954,o),
(993.713,698,cs),
(894,0,l),
(960,0,l),
(1060.856,706,ls),
(1103.141,1002,o),
(978.284,1122,o),
(726.284,1122,cs),
(522.284,1122,o),
(359.998,1022,o),
(272.284,842,c),
(298.284,842,l),
(335.712,1104,l),
(269.712,1104,l),
(112,0,l)
);
}
);
width = 1246;
}
);
leftKerningGroup = n;
rightKerningGroup = n;
unicode = 110;
}
{
color = 11;
glyphname = o;
layers = (
{
anchors = (
{
name = bottom;
position = "{635, 0}";
},
{
name = center;
position = "{714, 552}";
},
{
name = ogonek;
position = "{751, 0}";
},
{
name = top;
position = "{779, 1010}";
},
{
name = topright;
position = "{930, 1084}";
}
);
layerId = "DFDA7944-A323-4357-A6CD-3EE161AE16F3";
shapes = (
{
closed = 1;
nodes = (
(980,-24,o),
(1256,175,o),
(1303,502,cs),
(1317,602,ls),
(1364,931,o),
(1144,1126,o),
(796,1126,cs),
(446,1126,o),
(168,931,o),
(121,602,cs),
(107,502,ls),
(60,175,o),
(282,-24,o),
(632,-24,cs)
);
},
{
closed = 1;
nodes = (
(543,252,o),
(454,328,o),
(479,502,cs),
(493,602,ls),
(518,776,o),
(628,850,o),
(756,850,cs),
(884,850,o),
(970,775,o),
(945,602,cs),
(931,502,ls),
(906,329,o),
(799,252,o),
(671,252,cs)
);
}
);
width = 1343;
},
{
anchors = (
{
name = bottom;
position = "{597, 0}";
},
{
name = center;
position = "{675, 553}";
},
{
name = ogonek;
position = "{703, 0}";
},
{
name = top;
position = "{741, 1010}";
},
{
name = topright;
position = "{871, 1096}";
}
);
layerId = "E40C1264-1582-41D6-8175-F4C1F2081197";
shapes = (
{
closed = 1;
nodes = (
(902,-20,o),
(1150,170,o),
(1197,498,cs),
(1213,609,ls),
(1260,936,o),
(1066,1124,o),
(758,1124,cs),
(451,1124,o),
(199,936,o),
(152,609,cs),
(136,498,ls),
(89,170,o),
(287,-20,o),
(594,-20,cs)
);
},
{
closed = 1;
nodes = (
(430,138,o),
(305,257,o),
(339,498,cs),
(355,609,ls),
(389,849,o),
(548,965,o),
(735,965,cs),
(921,965,o),
(1046,849,o),
(1012,609,cs),
(996,498,ls),
(962,258,o),
(803,138,o),
(617,138,cs)
);
}
);
width = 1269;
},
{
anchors = (
{
name = bottom;
position = "{567, 0}";
},
{
name = center;
position = "{644, 554}";
},
{
name = ogonek;
position = "{665, 0}";
},
{
name = top;
position = "{711, 1010}";
},
{
name = topright;
position = "{825, 1106}";
}
);
layerId = "9BC0C71B-A637-49D9-92D6-4EFEC3ADCDB0";
shapes = (
{
closed = 1;
nodes = (
(842,-16,o),
(1069,166,o),
(1116,494,cs),
(1133,614,ls),
(1179,940,o),
(1004,1122,o),
(727,1122,cs),
(454,1122,o),
(223,940,o),
(177,614,cs),
(160,494,ls),
(113,166,o),
(292,-16,o),
(565,-16,cs)
);
},
{
closed = 1;
nodes = (
(342,50,o),
(188,202,o),
(230,494,cs),
(247,614,ls),
(288,906,o),
(486,1054,o),
(718,1054,cs),
(950,1054,o),
(1106,906,o),
(1065,614,cs),
(1048,494,ls),
(1006,202,o),
(806,50,o),
(574,50,cs)
);
}
);
width = 1211;
}
);
leftKerningGroup = o;
rightKerningGroup = o;
unicode = 111;
}
{
color = 11;
glyphname = p;
layers = (
{
anchors = (
{
name = bottom;
position = "{600, 0}";
},
{
name = top;
position = "{744, 1010}";
}
);
layerId = "74BA431A-305A-4713-B55D-0EBBAE8D1CDE";
shapes = (
{
closed = 1;
nodes = (
(350.286,-376,l),
(430.857,188,l),
(404.857,188,l),
(432.286,58,o),
(562.571,-24,o),
(734.571,-24,cs),
(1028.571,-24,o),
(1253.428,192,o),
(1304.856,552,cs),
(1356.57,914,o),
(1192.855,1126,o),
(898.855,1126,cs),
(722.855,1126,o),
(566.855,1042,o),
(503.427,906,c),
(529.427,906,l),
(557.712,1104,l),
(191.712,1104,l),
(-19.714,-376,l)
);
},
{
closed = 1;
nodes = (
(520.,252,o),
(449.142,344,o),
(478.856,552,cs),
(508.57,760,o),
(605.427,850,o),
(745.427,850,cs),
(885.427,850,o),
(961.999,756,o),
(932.856,552,cs),
(903.142,344,o),
(800.,252,o),
(660.,252,cs)
);
}
);
width = 1386;
},
{
anchors = (
{
name = bottom;
position = "{566, 0}";
},
{
name = top;
position = "{710, 1010}";
}
);
layerId = "0037C824-E55C-4C72-8B66-C5A151689C78";
shapes = (
{
closed = 1;
nodes = (
(225,-376,l),
(314,248,l),
(287,248,l),
(312,79,o),
(450,-20,o),
(644,-20,cs),
(940,-20,o),
(1164,191,o),
(1216,553,cs),
(1268,916,o),
(1104,1124,o),
(808,1124,cs),
(612,1124,o),
(444,1025,o),
(372,853,c),
(399,853,l),
(435,1104,l),
(228,1104,l),
(16,-376,l)
);
},
{
closed = 1;
nodes = (
(424,145,o),
(316,280,o),
(355,553,cs),
(394,826,o),
(540,958,o),
(736,958,cs),
(933,958,o),
(1042,824,o),
(1003,553,cs),
(964,280,o),
(817,145,o),
(620,145,cs)
);
}
);
width = 1320;
},
{
anchors = (
{
name = bottom;
position = "{546, 0}";
},
{
name = top;
position = "{690, 1010}";
}
);
layerId = "6219A2BD-1940-4437-A1C4-EF2412E3F892";
shapes = (
{
closed = 1;
nodes = (
(124.286,-376,l),
(220.857,300,l),
(192.857,300,l),
(216.,98,o),
(359.714,-16,o),
(573.714,-16,cs),
(871.714,-16,o),
(1095.143,190,o),
(1147.142,554,cs),
(1199.141,918,o),
(1034.284,1122,o),
(736.284,1122,cs),
(522.284,1122,o),
(346.284,1010,o),
(265.141,806,c),
(293.141,806,l),
(335.712,1104,l),
(269.712,1104,l),
(58.286,-376,l)
);
},
{
closed = 1;
nodes = (
(347.143,50,o),
(208.,224,o),
(255.142,554,cs),
(302.284,884,o),
(490.57,1054,o),
(736.57,1054,cs),
(984.57,1054,o),
(1122.284,884,o),
(1075.142,554,cs),
(1028.,224,o),
(841.143,50,o),
(593.143,50,cs)
);
}
);
width = 1280;
}
);
leftKerningGroup = n;
rightKerningGroup = o;
unicode = 112;
}
{
color = 11;
glyphname = q;
layers = (
{
anchors = (
{
name = bottom;
position = "{608, 0}";
},
{
name = top;
position = "{752, 1010}";
}
);
layerId = "AB3199DD-655E-4C0F-A34B-FD02744555A7";
shapes = (
{
closed = 1;
nodes = (
(1118.286,-376,l),
(1329.712,1104,l),
(963.712,1104,l),
(935.427,906,l),
(959.427,906,l),
(934.855,1042,o),
(804.855,1126,o),
(626.855,1126,cs),
(336.855,1126,o),
(110.57,914,o),
(58.856,552,cs),
(7.428,192,o),
(170.571,-24,o),
(462.571,-24,cs),
(638.571,-24,o),
(790.286,58,o),
(854.857,188,c),
(828.857,188,l),
(748.286,-376,l)
);
},
{
closed = 1;
nodes = (
(480.,252,o),
(401.142,344,o),
(430.856,552,cs),
(459.999,756,o),
(565.427,850,o),
(703.427,850,cs),
(843.427,850,o),
(916.57,760,o),
(886.856,552,cs),
(857.142,344,o),
(758.,252,o),
(618.,252,cs)
);
}
);
width = 1386;
},
{
anchors = (
{
name = bottom;
position = "{568, 0}";
},
{
name = top;
position = "{712, 1010}";
}
);
layerId = "64C9CF7B-5345-44EA-861F-4D3695E3DC07";
shapes = (
{
closed = 1;
nodes = (
(1016,-376,l),
(1228,1104,l),
(1021,1104,l),
(985,853,l),
(1011,853,l),
(988,1025,o),
(851,1124,o),
(655,1124,cs),
(360,1124,o),
(135,916,o),
(83,553,cs),
(31,191,o),
(194,-20,o),
(491,-20,cs),
(686,-20,o),
(851,79,o),
(924,248,c),
(897,248,l),
(808,-376,l)
);
},
{
closed = 1;
nodes = (
(365,145,o),
(255,280,o),
(294,553,cs),
(333,824,o),
(481,958,o),
(678,958,cs),
(875,958,o),
(984,826,o),
(945,553,cs),
(906,280,o),
(759,145,o),
(562,145,cs)
);
}
);
width = 1320;
},
{
anchors = (
{
name = bottom;
position = "{542, 0}";
},
{
name = top;
position = "{686, 1010}";
}
);
layerId = "C792CAD3-12E8-4938-96FB-ECD54646BE96";
shapes = (
{
closed = 1;
nodes = (
(936.286,-376,l),
(1147.712,1104,l),
(1079.712,1104,l),
(1037.141,806,l),
(1065.141,806,l),
(1044.284,1010,o),
(900.284,1122,o),
(688.284,1122,cs),
(388.284,1122,o),
(165.141,918,o),
(113.142,554,cs),
(61.143,190,o),
(223.714,-16,o),
(525.714,-16,cs),
(737.714,-16,o),
(914.,98,o),
(994.857,300,c),
(966.857,300,l),
(870.286,-376,l)
);
},
{
closed = 1;
nodes = (
(273.143,50,o),
(136.,224,o),
(183.142,554,cs),
(230.284,884,o),
(416.57,1054,o),
(664.57,1054,cs),
(912.57,1054,o),
(1052.284,884,o),
(1005.142,554,cs),
(958.,224,o),
(769.143,50,o),
(521.143,50,cs)
);
}
);
width = 1280;
}
);
leftKerningGroup = o;
rightKerningGroup = q;
unicode = 113;
}
{
color = 11;
glyphname = r;
layers = (
{
anchors = (
{
name = bottom;
position = "{222, 0}";
},
{
name = top;
position = "{588, 1010}";
}
);
layerId = "74BA431A-305A-4713-B55D-0EBBAE8D1CDE";
shapes = (
{
closed = 1;
nodes = (
(410,0,l),
(491.713,572,ls),
(512.57,718,o),
(598.284,786,o),
(776.57,802,cs),
(973.427,822,l),
(995.712,1132,l),
(892.569,1124,ls),
(688.569,1110,o),
(546.855,1014,o),
(491.141,834,c),
(515.141,834,l),
(553.712,1104,l),
(191.712,1104,l),
(34,0,l)
);
}
);
width = 952;
},
{
anchors = (
{
name = bottom;
position = "{170, 0}";
},
{
name = top;
position = "{536, 1010}";
}
);
layerId = "0037C824-E55C-4C72-8B66-C5A151689C78";
shapes = (
{
closed = 1;
nodes = (
(276,0,l),
(367,637,ls),
(393,816,o),
(514,921,o),
(722,940,cs),
(850,953,l),
(861,1131,l),
(789,1125,ls),
(581,1110,o),
(438,1025,o),
(365,848,c),
(389,848,l),
(426,1104,l),
(222,1104,l),
(64,0,l)
);
}
);
width = 806;
},
{
anchors = (
{
name = bottom;
position = "{144, 0}";
},
{
name = top;
position = "{510, 1010}";
}
);
layerId = "6219A2BD-1940-4437-A1C4-EF2412E3F892";
shapes = (
{
closed = 1;
nodes = (
(178,0,l),
(277.142,694,ls),
(306.855,902,o),
(458.57,1040,o),
(695.712,1062,cs),
(762.569,1068,l),
(761.427,1130,l),
(716.855,1126,ls),
(506.569,1110,o),
(363.712,1034,o),
(274.856,860,c),
(298.856,860,l),
(333.712,1104,l),
(269.712,1104,l),
(112,0,l)
);
}
);
width = 718;
}
);
leftKerningGroup = n;
rightKerningGroup = r;
unicode = 114;
}
{
color = 11;
glyphname = s;
layers = (
{
anchors = (
{
name = bottom;
position = "{523, 0}";
},
{
name = top;
position = "{683, 1010}";
}
);
layerId = "DFDA7944-A323-4357-A6CD-3EE161AE16F3";
shapes = (
{
closed = 1;
nodes = (
(816,-24,o),
(1042,116,o),
(1075,348,cs),
(1099,516,o),
(1003,614,o),
(812,650,cs),
(581,688,l),
(512,704,o),
(486,732,o),
(492,774,cs),
(500,836,o),
(558,874,o),
(680,874,cs),
(794,874,o),
(919,838,o),
(1010,776,c),
(1141,1008,l),
(1048,1088,o),
(898,1126,o),
(720,1126,cs),
(408,1126,o),
(189,968,o),
(159,758,cs),
(136,592,o),
(224,486,o),
(414,452,cs),
(648,412,l),
(716,398,o),
(744,372,o),
(737,324,cs),
(728,262,o),
(668,228,o),
(564,228,cs),
(424,228,o),
(266,272,o),
(165,336,c),
(41,98,l),
(142,20,o),
(312,-24,o),
(520,-24,cs)
);
}
);
width = 1113;
},
{
anchors = (
{
name = bottom;
position = "{510, 0}";
},
{
name = top;
position = "{668, 1010}";
}
);
layerId = "E40C1264-1582-41D6-8175-F4C1F2081197";
shapes = (
{
closed = 1;
nodes = (
(773,-20,o),
(971,109,o),
(1000,312,cs),
(1022,470,o),
(931,563,o),
(741,603,cs),
(538,642,l),
(431,666,o),
(392,718,o),
(402,794,cs),
(417,899,o),
(508,970,o),
(671,970,cs),
(794,970,o),
(904,927,o),
(984,849,c),
(1073,988,l),
(998,1076,o),
(861,1124,o),
(695,1124,cs),
(420,1124,o),
(234,977,o),
(206,786,cs),
(184,632,o),
(265,531,o),
(451,492,cs),
(657,452,l),
(770,427,o),
(811,381,o),
(800,302,cs),
(785,197,o),
(690,133,o),
(536,133,cs),
(391,133,o),
(259,176,o),
(165,255,c),
(80,115,l),
(163,31,o),
(320,-20,o),
(508,-20,cs)
);
}
);
width = 1088;
},
{
anchors = (
{
name = bottom;
position = "{503, 0}";
},
{
name = top;
position = "{659, 1010}";
}
);
layerId = "9BC0C71B-A637-49D9-92D6-4EFEC3ADCDB0";
shapes = (
{
closed = 1;
nodes = (
(739,-16,o),
(912,102,o),
(937,280,cs),
(958,430,o),
(873,518,o),
(683,562,cs),
(503,602,ls),
(363,632,o),
(312,706,o),
(327,812,cs),
(347,954,o),
(468,1054,o),
(666,1054,cs),
(798,1054,o),
(895,1006,o),
(966,914,c),
(1018,970,l),
(957,1066,o),
(831,1122,o),
(675,1122,cs),
(433,1122,o),
(276,984,o),
(251,810,cs),
(230,668,o),
(304,570,o),
(488,528,cs),
(669,488,ls),
(822,452,o),
(874,388,o),
(859,282,cs),
(839,140,o),
(714,50,o),
(516,50,cs),
(366,50,o),
(256,92,o),
(169,184,c),
(120,130,l),
(187,40,o),
(331,-16,o),
(503,-16,cs)
);
}
);
width = 1073;
}
);
leftKerningGroup = s;
rightKerningGroup = s;
unicode = 115;
}
{
color = 11;
glyphname = t;
layers = (
{
anchors = (
{
name = bottom;
position = "{509, 0}";
},
{
name = center;
position = "{481, 574}";
},
{
name = top;
position = "{550, 1378}";
},
{
name = topright;
position = "{843, 1472}";
}
);
layerId = "DFDA7944-A323-4357-A6CD-3EE161AE16F3";
shapes = (
{
closed = 1;
nodes = (
(730,-24,o),
(827,-2,o),
(902,32,c),
(890,298,l),
(836,284,o),
(792,274,o),
(750,274,cs),
(630,274,o),
(586,328,o),
(602,440,cs),
(658,832,l),
(978,832,l),
(1017,1104,l),
(697,1104,l),
(736,1378,l),
(366,1378,l),
(327,1104,l),
(115,1104,l),
(76,832,l),
(288,832,l),
(230,426,ls),
(187,126,o),
(320,-24,o),
(640,-24,cs)
);
}
);
width = 935;
},
{
anchors = (
{
name = bottom;
position = "{447, 0}";
},
{
name = center;
position = "{419, 602}";
},
{
name = top;
position = "{475, 1385}";
},
{
name = topright;
position = "{736, 1472}";
}
);
layerId = "E40C1264-1582-41D6-8175-F4C1F2081197";
shapes = (
{
closed = 1;
nodes = (
(643,-20,o),
(731,0,o),
(781,25,c),
(769,181,l),
(723,167,o),
(674,154,o),
(623,154,cs),
(471,154,o),
(416,235,o),
(438,393,cs),
(517,946,l),
(861,946,l),
(884,1104,l),
(540,1104,l),
(580,1385,l),
(371,1385,l),
(331,1104,l),
(114,1104,l),
(91,946,l),
(308,946,l),
(227,376,ls),
(190,118,o),
(305,-20,o),
(565,-20,cs)
);
}
);
width = 789;
},
{
anchors = (
{
name = bottom;
position = "{413, 0}";
},
{
name = center;
position = "{384, 626}";
},
{
name = top;
position = "{430, 1392}";
},
{
name = topright;
position = "{663, 1472}";
}
);
layerId = "9BC0C71B-A637-49D9-92D6-4EFEC3ADCDB0";
shapes = (
{
closed = 1;
nodes = (
(587,-16,o),
(667,2,o),
(694,18,c),
(682,78,l),
(644,64,o),
(590,48,o),
(532,48,cs),
(352,48,o),
(287,152,o),
(315,352,cs),
(414,1046,l),
(778,1046,l),
(787,1104,l),
(423,1104,l),
(464,1392,l),
(396,1392,l),
(355,1104,l),
(133,1104,l),
(124,1046,l),
(346,1046,l),
(244,332,ls),
(213,110,o),
(313,-16,o),
(521,-16,cs)
);
}
);
width = 701;
}
);
leftKerningGroup = t;
rightKerningGroup = t;
unicode = 116;
}
{
color = 11;
glyphname = u;
layers = (
{
anchors = (
{
name = bottom;
position = "{578, 0}";
},
{
name = ogonek;
position = "{1046, 0}";
},
{
name = top;
position = "{722, 1010}";
},
{
name = topright;
position = "{1017, 1086}";
}
);
layerId = "74BA431A-305A-4713-B55D-0EBBAE8D1CDE";
shapes = (
{
closed = 1;
nodes = (
(596.571,-24,o),
(732.,56,o),
(825.714,194,c),
(793.714,194,l),
(766,0,l),
(1126,0,l),
(1283.712,1104,l),
(915.712,1104,l),
(827.428,486,ls),
(807.714,348,o),
(709.428,262,o),
(589.428,262,cs),
(491.428,262,o),
(444.857,314,o),
(463.999,448,cs),
(557.712,1104,l),
(187.712,1104,l),
(92.856,440,ls),
(48.,126,o),
(154.571,-24,o),
(428.571,-24,cs)
);
}
);
width = 1342;
},
{
anchors = (
{
name = bottom;
position = "{545, 0}";
},
{
name = ogonek;
position = "{988, 0}";
},
{
name = top;
position = "{690, 1011}";
},
{
name = topright;
position = "{1015, 1097}";
}
);
layerId = "0037C824-E55C-4C72-8B66-C5A151689C78";
shapes = (
{
closed = 1;
nodes = (
(641,-20,o),
(790,73,o),
(879,232,c),
(851,232,l),
(818,0,l),
(1021,0,l),
(1179,1104,l),
(972,1104,l),
(881,472,ls),
(854,277,o),
(712,149,o),
(531,149,cs),
(374,149,o),
(308,228,o),
(336,427,cs),
(433,1104,l),
(224,1104,l),
(126,419,ls),
(82,115,o),
(198,-20,o),
(457,-20,cs)
);
}
);
width = 1272;
},
{
anchors = (
{
name = bottom;
position = "{526, 0}";
},
{
name = ogonek;
position = "{946, 0}";
},
{
name = top;
position = "{671, 1012}";
},
{
name = topright;
position = "{1022, 1106}";
}
);
layerId = "6219A2BD-1940-4437-A1C4-EF2412E3F892";
shapes = (
{
closed = 1;
nodes = (
(689.714,-16,o),
(850.571,88,o),
(936.,266,c),
(912.,266,l),
(874,0,l),
(938,0,l),
(1095.712,1104,l),
(1029.712,1104,l),
(937.713,460,ls),
(902.571,214,o),
(725.143,50,o),
(489.143,50,cs),
(281.143,50,o),
(195.714,152,o),
(232.285,408,cs),
(331.712,1104,l),
(265.712,1104,l),
(165.142,400,ls),
(123.143,106,o),
(245.714,-16,o),
(491.714,-16,cs)
);
}
);
width = 1230;
}
);
leftKerningGroup = u;
rightKerningGroup = u;
unicode = 117;
}
{
color = 11;
glyphname = v;
layers = (
{
anchors = (
{
name = bottom;
position = "{573, 0}";
},
{
name = top;
position = "{717, 1010}";
}
);
layerId = "DFDA7944-A323-4357-A6CD-3EE161AE16F3";
shapes = (
{
closed = 1;
nodes = (
(727,0,l),
(1369,1104,l),
(1003,1104,l),
(587,348,l),
(669,348,l),
(477,1104,l),
(87,1104,l),
(409,0,l)
);
}
);
width = 1211;
},
{
anchors = (
{
name = bottom;
position = "{547, 0}";
},
{
name = top;
position = "{691, 1010}";
}
);
layerId = "E40C1264-1582-41D6-8175-F4C1F2081197";
shapes = (
{
closed = 1;
nodes = (
(642,0,l),
(1275,1104,l),
(1060,1104,l),
(541,167,l),
(605,167,l),
(356,1104,l),
(131,1104,l),
(446,0,l)
);
}
);
width = 1162;
},
{
anchors = (
{
name = bottom;
position = "{531, 0}";
},
{
name = top;
position = "{675, 1010}";
}
);
layerId = "9BC0C71B-A637-49D9-92D6-4EFEC3ADCDB0";
shapes = (
{
closed = 1;
nodes = (
(575,0,l),
(1199,1104,l),
(1117,1104,l),
(508,8,l),
(556,8,l),
(257,1104,l),
(177,1104,l),
(487,0,l)
);
}
);
width = 1133;
}
);
leftKerningGroup = v;
rightKerningGroup = v;
unicode = 118;
}
{
color = 11;
glyphname = w;
layers = (
{
anchors = (
{
name = bottom;
position = "{888, 0}";
},
{
name = top;
position = "{1032, 1010}";
}
);
layerId = "AB3199DD-655E-4C0F-A34B-FD02744555A7";
shapes = (
{
closed = 1;
nodes = (
(576,0,l),
(915.713,754,l),
(861.713,754,l),
(988,0,l),
(1304,0,l),
(1819.712,1104,l),
(1441.712,1104,l),
(1101.428,346,l),
(1217.428,346,l),
(1101.712,1104,l),
(789.712,1104,l),
(453.428,346,l),
(549.428,346,l),
(425.712,1104,l),
(47.712,1104,l),
(248,0,l)
);
}
);
width = 1732;
},
{
anchors = (
{
name = bottom;
position = "{814, 0}";
},
{
name = top;
position = "{958, 1010}";
}
);
layerId = "64C9CF7B-5345-44EA-861F-4D3695E3DC07";
shapes = (
{
closed = 1;
nodes = (
(493,0,l),
(924,922,l),
(870,922,l),
(1038,0,l),
(1220,0,l),
(1731,1104,l),
(1518,1104,l),
(1102,193,l),
(1177,193,l),
(1016,1104,l),
(837,1104,l),
(414,193,l),
(477,193,l),
(322,1104,l),
(110,1104,l),
(304,0,l)
);
}
);
width = 1705;
},
{
anchors = (
{
name = bottom;
position = "{752, 0}";
},
{
name = top;
position = "{896, 1010}";
}
);
layerId = "C792CAD3-12E8-4938-96FB-ECD54646BE96";
shapes = (
{
closed = 1;
nodes = (
(424,0,l),
(934.855,1070,l),
(880.855,1070,l),
(1086,0,l),
(1150,0,l),
(1655.712,1104,l),
(1587.712,1104,l),
(1106.286,58,l),
(1144.286,58,l),
(943.712,1104,l),
(881.712,1104,l),
(382.286,58,l),
(416.286,58,l),
(233.712,1104,l),
(167.712,1104,l),
(358,0,l)
);
}
);
width = 1688;
}
);
leftKerningGroup = v;
rightKerningGroup = v;
unicode = 119;
}
{
color = 11;
glyphname = x;
layers = (
{
anchors = (
{
name = bottom;
position = "{600, 0}";
},
{
name = top;
position = "{744, 1010}";
}
);
layerId = "DFDA7944-A323-4357-A6CD-3EE161AE16F3";
shapes = (
{
closed = 1;
nodes = (
(350,0,l),
(717,400,l),
(597,400,l),
(846,0,l),
(1280,0,l),
(843,652,l),
(819,486,l),
(1406,1104,l),
(980,1104,l),
(647,732,l),
(767,732,l),
(542,1104,l),
(108,1104,l),
(520,488,l),
(543,650,l),
(-78,0,l)
);
}
);
width = 1274;
},
{
anchors = (
{
name = bottom;
position = "{555, 0}";
},
{
name = top;
position = "{699, 1010}";
}
);
layerId = "E40C1264-1582-41D6-8175-F4C1F2081197";
shapes = (
{
closed = 1;
nodes = (
(221,0,l),
(656,468,l),
(587,468,l),
(885,0,l),
(1136,0,l),
(729,615,l),
(716,523,l),
(1266,1104,l),
(1021,1104,l),
(617,666,l),
(685,666,l),
(411,1104,l),
(161,1104,l),
(546,520,l),
(561,622,l),
(-24,0,l)
);
}
);
width = 1184;
},
{
anchors = (
{
name = bottom;
position = "{528, 0}";
},
{
name = top;
position = "{672, 1010}";
}
);
layerId = "9BC0C71B-A637-49D9-92D6-4EFEC3ADCDB0";
shapes = (
{
closed = 1;
nodes = (
(120,0,l),
(615,528,l),
(591,528,l),
(932,0,l),
(1022,0,l),
(641,582,l),
(637,556,l),
(1156,1104,l),
(1070,1104,l),
(605,608,l),
(627,608,l),
(308,1104,l),
(220,1104,l),
(582,548,l),
(589,598,l),
(36,0,l)
);
}
);
width = 1130;
}
);
leftKerningGroup = x;
rightKerningGroup = x;
unicode = 120;
}
{
color = 11;
glyphname = y;
layers = (
{
anchors = (
{
name = bottom;
position = "{927, 0}";
},
{
name = top;
position = "{713, 1010}";
}
);
layerId = "DFDA7944-A323-4357-A6CD-3EE161AE16F3";
shapes = (
{
closed = 1;
nodes = (
(676,326,l),
(449,1104,l),
(85,1104,l),
(418,-38,l)
);
},
{
closed = 1;
nodes = (
(366,10,ls),
(313,-82,o),
(274,-120,o),
(176,-130,cs),
(61,-142,l),
(50,-402,l),
(152,-396,ls),
(532,-374,o),
(589,-238,o),
(764,64,c),
(1371,1104,l),
(1005,1104,l)
);
}
);
width = 1209;
},
{
anchors = (
{
name = bottom;
position = "{851, 0}";
},
{
name = top;
position = "{689, 1010}";
}
);
layerId = "E40C1264-1582-41D6-8175-F4C1F2081197";
shapes = (
{
closed = 1;
nodes = (
(611,149,l),
(339,1104,l),
(130,1104,l),
(460,-51,l)
);
},
{
closed = 1;
nodes = (
(420,-22,ls),
(344,-155,o),
(291,-227,o),
(158,-237,cs),
(55,-246,l),
(48,-402,l),
(147,-396,ls),
(426,-379,o),
(500,-249,o),
(644,3,cs),
(1277,1104,l),
(1066,1104,l)
);
}
);
width = 1162;
},
{
anchors = (
{
name = bottom;
position = "{791, 0}";
},
{
name = top;
position = "{675, 1010}";
}
);
layerId = "9BC0C71B-A637-49D9-92D6-4EFEC3ADCDB0";
shapes = (
{
closed = 1;
nodes = (
(562,-8,l),
(249,1104,l),
(177,1104,l),
(504,-62,l)
);
},
{
closed = 1;
nodes = (
(474,-50,ls),
(378,-220,o),
(313,-322,o),
(150,-332,cs),
(57,-338,l),
(54,-402,l),
(150,-396,ls),
(340,-384,o),
(430,-258,o),
(546,-50,c),
(1201,1104,l),
(1127,1104,l)
);
}
);
width = 1133;
}
);
leftKerningGroup = v;
rightKerningGroup = v;
unicode = 121;
}
{
color = 11;
glyphname = z;
layers = (
{
anchors = (
{
name = bottom;
position = "{466, 0}";
},
{
name = top;
position = "{610, 1010}";
}
);
layerId = "74BA431A-305A-4713-B55D-0EBBAE8D1CDE";
shapes = (
{
closed = 1;
nodes = (
(946,0,l),
(984.857,272,l),
(368.857,272,l),
(359.143,176,l),
(1045.141,862,l),
(1079.712,1104,l),
(165.712,1104,l),
(126.856,832,l),
(708.856,832,l),
(719.713,922,l),
(42.285,240,l),
(8,0,l)
);
}
);
width = 1088;
},
{
anchors = (
{
name = bottom;
position = "{449, 0}";
},
{
name = top;
position = "{593, 1010}";
}
);
layerId = "0037C824-E55C-4C72-8B66-C5A151689C78";
shapes = (
{
closed = 1;
nodes = (
(895,0,l),
(918,159,l),
(235,159,l),
(228,101,l),
(1008,966,l),
(1028,1104,l),
(184,1104,l),
(161,946,l),
(814,946,l),
(823,1002,l),
(46,138,l),
(26,0,l)
);
}
);
width = 1046;
},
{
anchors = (
{
name = bottom;
position = "{440, 0}";
},
{
name = top;
position = "{584, 1010}";
}
);
layerId = "6219A2BD-1940-4437-A1C4-EF2412E3F892";
shapes = (
{
closed = 1;
nodes = (
(856,0,l),
(864.571,60,l),
(122.571,60,l),
(118.857,34,l),
(981.141,1058,l),
(987.712,1104,l),
(205.712,1104,l),
(197.427,1046,l),
(913.427,1046,l),
(919.141,1072,l),
(54.857,48,l),
(48,0,l)
);
}
);
width = 1020;
}
);
leftKerningGroup = z;
rightKerningGroup = z;
unicode = 122;
}
{
color = 11;
glyphname = braceleft;
layers = (
{
layerId = "DFDA7944-A323-4357-A6CD-3EE161AE16F3";
shapes = (
{
closed = 1;
nodes = (
(782,-188,l),
(820,78,l),
(698,78,ls),
(640,78,o),
(618,104,o),
(627,170,cs),
(672,482,ls),
(691,616,o),
(610,738,o),
(500,738,c),
(499,728,l),
(609,728,o),
(725,852,o),
(744,988,cs),
(789,1302,ls),
(798,1368,o),
(828,1394,o),
(886,1394,cs),
(1008,1394,l),
(1046,1660,l),
(772,1660,ls),
(588,1660,o),
(462,1548,o),
(436,1362,cs),
(388,1030,ls),
(372,920,o),
(339,880,o),
(258,872,cs),
(158,862,l),
(121,604,l),
(218,596,ls),
(297,590,o),
(319,548,o),
(304,438,cs),
(257,110,ls),
(230,-76,o),
(324,-188,o),
(508,-188,cs)
);
}
);
width = 881;
},
{
layerId = "E40C1264-1582-41D6-8175-F4C1F2081197";
shapes = (
{
closed = 1;
nodes = (
(648,-188,l),
(671,-29,l),
(531,-29,ls),
(472,-29,o),
(447,-1,o),
(456,65,cs),
(520,510,ls),
(538,638,o),
(470,740,o),
(366,740,c),
(364,730,l),
(468,730,o),
(566,833,o),
(585,963,cs),
(648,1407,ls),
(657,1473,o),
(691,1502,o),
(750,1502,cs),
(890,1502,l),
(912,1660,l),
(699,1660,ls),
(559,1660,o),
(466,1577,o),
(445,1430,cs),
(381,983,ls),
(365,869,o),
(323,825,o),
(226,817,cs),
(160,811,l),
(138,659,l),
(202,654,ls),
(298,648,o),
(327,603,o),
(311,489,cs),
(247,42,ls),
(226,-105,o),
(295,-188,o),
(435,-188,cs)
);
}
);
width = 722;
},
{
layerId = "9BC0C71B-A637-49D9-92D6-4EFEC3ADCDB0";
shapes = (
{
closed = 1;
nodes = (
(552,-188,l),
(561,-124,l),
(405,-124,ls),
(345,-124,o),
(318,-94,o),
(327,-28,cs),
(407,534,ls),
(425,658,o),
(369,742,o),
(269,742,c),
(268,732,l),
(368,732,o),
(448,816,o),
(465,940,cs),
(545,1500,ls),
(555,1566,o),
(591,1598,o),
(651,1598,cs),
(807,1598,l),
(816,1660,l),
(658,1660,ls),
(556,1660,o),
(492,1602,o),
(476,1490,cs),
(398,942,ls),
(381,824,o),
(332,776,o),
(221,768,cs),
(184,766,l),
(176,708,l),
(212,706,ls),
(321,700,o),
(356,652,o),
(339,534,cs),
(260,-18,ls),
(244,-130,o),
(292,-188,o),
(394,-188,cs)
);
}
);
width = 625;
}
);
leftKerningGroup = hyphen;
rightKerningGroup = braceleft;
unicode = 123;
}
{
color = 11;
glyphname = bar;
layers = (
{
layerId = "AB3199DD-655E-4C0F-A34B-FD02744555A7";
shapes = (
{
closed = 1;
nodes = (
(383,-188,l),
(647,1660,l),
(285,1660,l),
(21,-188,l)
);
}
);
width = 638;
},
{
layerId = "64C9CF7B-5345-44EA-861F-4D3695E3DC07";
shapes = (
{
closed = 1;
nodes = (
(257,-188,l),
(521,1660,l),
(315,1660,l),
(51,-188,l)
);
}
);
width = 542;
},
{
layerId = "C792CAD3-12E8-4938-96FB-ECD54646BE96";
shapes = (
{
closed = 1;
nodes = (
(159,-188,l),
(423,1660,l),
(355,1660,l),
(91,-188,l)
);
}
);
width = 484;
}
);
leftKerningGroup = H;
rightKerningGroup = H;
unicode = 124;
}
{
color = 11;
glyphname = braceright;
layers = (
{
layerId = "74BA431A-305A-4713-B55D-0EBBAE8D1CDE";
shapes = (
{
closed = 1;
nodes = (
(189,-188,ls),
(375,-188,o),
(499,-78,o),
(526,110,cs),
(573,438,ls),
(588,546,o),
(626,588,o),
(707,596,cs),
(802,604,l),
(839,862,l),
(747,872,ls),
(668,882,o),
(642,922,o),
(657,1030,cs),
(705,1362,ls),
(731,1550,o),
(639,1660,o),
(453,1660,cs),
(183,1660,l),
(145,1394,l),
(267,1394,ls),
(325,1394,o),
(345,1368,o),
(336,1302,cs),
(291,988,ls),
(272,852,o),
(354,728,o),
(464,728,c),
(465,738,l),
(355,738,o),
(238,616,o),
(219,482,cs),
(174,170,ls),
(165,104,o),
(137,78,o),
(79,78,cs),
(-43,78,l),
(-81,-188,l)
);
}
);
width = 880;
},
{
layerId = "0037C824-E55C-4C72-8B66-C5A151689C78";
shapes = (
{
closed = 1;
nodes = (
(104,-188,ls),
(245,-188,o),
(337,-105,o),
(357,42,cs),
(421,489,ls),
(437,603,o),
(481,649,o),
(579,654,c),
(642,659,l),
(663,811,l),
(603,817,ls),
(507,826,o),
(475,869,o),
(492,983,cs),
(556,1430,ls),
(577,1577,o),
(509,1660,o),
(368,1660,cs),
(157,1660,l),
(135,1502,l),
(275,1502,ls),
(334,1502,o),
(358,1473,o),
(348,1407,cs),
(285,963,ls),
(267,833,o),
(334,730,o),
(440,730,c),
(441,740,l),
(335,740,o),
(239,638,o),
(220,510,cs),
(157,65,ls),
(148,-1,o),
(115,-29,o),
(56,-29,cs),
(-84,-29,l),
(-107,-188,l)
);
}
);
width = 720;
},
{
layerId = "6219A2BD-1940-4437-A1C4-EF2412E3F892";
shapes = (
{
closed = 1;
nodes = (
(51,-188,ls),
(153,-188,o),
(216,-128,o),
(231,-18,cs),
(310,534,ls),
(327,654,o),
(376,702,o),
(489,706,cs),
(523,708,l),
(531,766,l),
(498,768,ls),
(387,776,o),
(351,822,o),
(369,942,cs),
(447,1490,ls),
(463,1600,o),
(417,1660,o),
(315,1660,cs),
(157,1660,l),
(148,1598,l),
(304,1598,ls),
(364,1598,o),
(392,1566,o),
(382,1500,cs),
(302,940,ls),
(285,816,o),
(339,732,o),
(441,732,c),
(442,742,l),
(340,742,o),
(262,658,o),
(244,534,cs),
(164,-28,ls),
(155,-94,o),
(118,-124,o),
(58,-124,cs),
(-98,-124,l),
(-107,-188,l)
);
}
);
width = 624;
}
);
leftKerningGroup = braceright;
rightKerningGroup = hyphen;
unicode = 125;
}
{
color = 11;
glyphname = asciitilde;
layers = (
{
layerId = "74BA431A-305A-4713-B55D-0EBBAE8D1CDE";
shapes = (
{
closed = 1;
nodes = (
(923,554,o),
(1059,650,o),
(1118,786,c),
(957,904,l),
(921,822,o),
(870,784,o),
(808,784,cs),
(768,784,o),
(714,810,o),
(647,850,cs),
(567,900,o),
(497,918,o),
(433,918,cs),
(303,918,o),
(172,826,o),
(112,688,c),
(272,572,l),
(309,652,o),
(361,692,o),
(421,692,cs),
(467,692,o),
(517,664,o),
(587,626,c),
(675,570,o),
(733,554,o),
(797,554,cs)
);
}
);
width = 1200;
},
{
layerId = "0037C824-E55C-4C72-8B66-C5A151689C78";
shapes = (
{
closed = 1;
nodes = (
(939,583,o),
(1051,661,o),
(1119,793,c),
(1011,863,l),
(967,774,o),
(902,729,o),
(827,729,cs),
(774,729,o),
(719,760,o),
(642,810,cs),
(551,868,o),
(482,889,o),
(413,889,cs),
(290,889,o),
(180,813,o),
(111,681,c),
(219,613,l),
(267,702,o),
(328,747,o),
(402,747,cs),
(454,747,o),
(503,720,o),
(586,670,c),
(681,606,o),
(750,583,o),
(818,583,cs)
);
}
);
width = 1200;
},
{
layerId = "6219A2BD-1940-4437-A1C4-EF2412E3F892";
shapes = (
{
closed = 1;
nodes = (
(953,608,o),
(1044,670,o),
(1120,800,c),
(1058,826,l),
(1007,732,o),
(931,680,o),
(843,680,cs),
(779,680,o),
(724,716,o),
(637,774,cs),
(536,840,o),
(469,864,o),
(395,864,cs),
(279,864,o),
(187,802,o),
(110,674,c),
(173,650,l),
(229,746,o),
(298,796,o),
(386,796,cs),
(442,796,o),
(490,770,o),
(585,708,cs),
(687,638,o),
(765,608,o),
(837,608,cs)
);
}
);
width = 1200;
}
);
unicode = 126;
}
{
color = 11;
glyphname = exclamdown;
layers = (
{
layerId = "AB3199DD-655E-4C0F-A34B-FD02744555A7";
shapes = (
{
closed = 1;
nodes = (
(352,-376,l),
(384,632,l),
(166,632,l),
(-90,-376,l)
);
},
{
closed = 1;
nodes = (
(477,750,l),
(530,1122,l),
(156,1122,l),
(103,750,l)
);
}
);
width = 550;
},
{
layerId = "64C9CF7B-5345-44EA-861F-4D3695E3DC07";
shapes = (
{
closed = 1;
nodes = (
(217,-376,l),
(308,710,l),
(182,710,l),
(-37,-376,l)
);
},
{
closed = 1;
nodes = (
(387,870,l),
(421,1111,l),
(181,1111,l),
(147,870,l)
);
}
);
width = 468;
},
{
layerId = "C792CAD3-12E8-4938-96FB-ECD54646BE96";
shapes = (
{
closed = 1;
nodes = (
(110,-376,l),
(253,778,l),
(207,778,l),
(22,-376,l)
);
},
{
closed = 1;
nodes = (
(319,976,l),
(337,1102,l),
(215,1102,l),
(197,976,l)
);
}
);
width = 418;
}
);
leftKerningGroup = exclamdown;
rightKerningGroup = exclamdown;
unicode = 161;
}
{
color = 11;
glyphname = cent;
layers = (
{
layerId = "DFDA7944-A323-4357-A6CD-3EE161AE16F3";
shapes = (
{
closed = 1;
nodes = (
(726,-240,l),
(767,52,l),
(697,-20,l),
(840,-16,o),
(987,32,o),
(1085,106,c),
(1022,348,l),
(944,292,o),
(851,262,o),
(777,262,cs),
(641,262,o),
(555,340,o),
(578,502,cs),
(592,602,ls),
(617,779,o),
(719,862,o),
(863,862,cs),
(941,862,o),
(1021,832,o),
(1083,776,c),
(1215,1018,l),
(1139,1096,o),
(1000,1136,o),
(865,1140,c),
(911,1060,l),
(955,1362,l),
(675,1362,l),
(628,1036,l),
(708,1120,l),
(455,1074,o),
(259,876,o),
(220,602,cs),
(206,502,ls),
(167,233,o),
(309,50,o),
(549,-4,c),
(491,74,l),
(446,-240,l)
);
}
);
width = 1255;
},
{
layerId = "E40C1264-1582-41D6-8175-F4C1F2081197";
shapes = (
{
closed = 1;
nodes = (
(666,-252,l),
(706,31,l),
(660,-18,l),
(789,-15,o),
(934,37,o),
(1024,121,c),
(980,257,l),
(893,180,o),
(793,145,o),
(697,145,cs),
(518,145,o),
(408,269,o),
(441,498,cs),
(457,609,ls),
(490,839,o),
(631,968,o),
(815,968,cs),
(912,968,o),
(1000,934,o),
(1066,854,c),
(1149,992,l),
(1081,1080,o),
(953,1126,o),
(826,1128,c),
(854,1066,l),
(896,1359,l),
(734,1359,l),
(691,1056,l),
(738,1120,l),
(496,1089,o),
(297,897,o),
(256,609,cs),
(240,498,ls),
(199,210,o),
(345,17,o),
(579,-10,c),
(545,38,l),
(504,-252,l)
);
}
);
width = 1255;
},
{
layerId = "9BC0C71B-A637-49D9-92D6-4EFEC3ADCDB0";
shapes = (
{
closed = 1;
nodes = (
(618,-262,l),
(657,14,l),
(631,-16,l),
(749,-14,o),
(893,40,o),
(976,132,c),
(946,186,l),
(852,92,o),
(747,54,o),
(633,54,cs),
(420,54,o),
(294,214,o),
(334,494,cs),
(351,614,ls),
(389,885,o),
(561,1050,o),
(777,1050,cs),
(889,1050,o),
(984,1014,o),
(1052,914,c),
(1096,972,l),
(1036,1068,o),
(915,1118,o),
(795,1118,c),
(808,1070,l),
(849,1356,l),
(779,1356,l),
(738,1072,l),
(761,1120,l),
(525,1101,o),
(325,913,o),
(283,614,cs),
(266,494,ls),
(222,192,o),
(373,-8,o),
(601,-14,c),
(586,10,l),
(548,-262,l)
);
}
);
width = 1255;
}
);
unicode = 162;
}
{
color = 11;
glyphname = sterling;
layers = (
{
layerId = "AA9127E2-66D7-45E5-8D77-9FE81E534461";
shapes = (
{
closed = 1;
nodes = (
(1073,0,l),
(1115,296,l),
(559,296,l),
(607,632,l),
(901,632,l),
(931,842,l),
(637,842,l),
(664,1030,ls),
(680,1138,o),
(738,1208,o),
(872,1208,cs),
(956,1208,o),
(1050,1180,o),
(1142,1100,c),
(1299,1360,l),
(1204,1446,o),
(1047,1496,o),
(881,1496,cs),
(527,1496,o),
(331,1300,o),
(290,1014,cs),
(265,842,l),
(133,842,l),
(103,632,l),
(235,632,l),
(187,296,l),
(55,296,l),
(13,0,l)
);
}
);
width = 1254;
},
{
layerId = "780D6C53-D363-41D3-A45B-4CEB198897BB";
shapes = (
{
closed = 1;
nodes = (
(1044,0,l),
(1069,174,l),
(444,174,l),
(515,671,l),
(858,671,l),
(876,802,l),
(533,802,l),
(572,1070,ls),
(596,1234,o),
(686,1321,o),
(855,1321,cs),
(977,1321,o),
(1087,1279,o),
(1163,1183,c),
(1263,1339,l),
(1177,1436,o),
(1027,1492,o),
(873,1492,cs),
(571,1492,o),
(399,1332,o),
(361,1062,cs),
(323,802,l),
(141,802,l),
(123,671,l),
(305,671,l),
(233,174,l),
(51,174,l),
(27,0,l)
);
}
);
width = 1254;
},
{
layerId = "15DD03C9-6E3F-4F53-9575-CC59ABE7D50E";
shapes = (
{
closed = 1;
nodes = (
(1019,0,l),
(1028,66,l),
(342,66,l),
(434,706,l),
(820,706,l),
(828,766,l),
(442,766,l),
(491,1106,ls),
(521,1318,o),
(640,1420,o),
(840,1420,cs),
(996,1420,o),
(1120,1366,o),
(1182,1256,c),
(1232,1320,l),
(1153,1428,o),
(1010,1488,o),
(866,1488,cs),
(610,1488,o),
(459,1360,o),
(423,1104,cs),
(374,766,l),
(148,766,l),
(140,706,l),
(366,706,l),
(274,66,l),
(48,66,l),
(39,0,l)
);
}
);
width = 1254;
}
);
unicode = 163;
}
{
color = 11;
glyphname = currency;
layers = (
{
layerId = "DFDA7944-A323-4357-A6CD-3EE161AE16F3";
shapes = (
{
closed = 1;
nodes = (
(320,98,l),
(392,44,o),
(482,12,o),
(586,12,cs),
(692,12,o),
(794,44,o),
(884,100,c),
(1010,-54,l),
(1147,64,l),
(1019,220,l),
(1085,302,o),
(1134,406,o),
(1149,512,cs),
(1164,616,o),
(1146,716,o),
(1102,800,c),
(1278,954,l),
(1166,1080,l),
(992,926,l),
(924,982,o),
(830,1010,o),
(728,1010,cs),
(626,1010,o),
(528,980,o),
(440,924,c),
(312,1076,l),
(175,956,l),
(299,804,l),
(227,720,o),
(177,622,o),
(161,512,cs),
(145,400,o),
(167,300,o),
(215,218,c),
(47,64,l),
(150,-54,l)
);
},
{
closed = 1;
nodes = (
(501,286,o),
(423,388,o),
(441,510,cs),
(459,634,o),
(569,738,o),
(691,736,cs),
(807,734,o),
(893,634,o),
(875,512,cs),
(857,388,o),
(743,286,o),
(627,286,cs)
);
}
);
width = 1255;
},
{
layerId = "E40C1264-1582-41D6-8175-F4C1F2081197";
shapes = (
{
closed = 1;
nodes = (
(309,112,l),
(382,49,o),
(479,12,o),
(590,12,cs),
(702,12,o),
(809,49,o),
(900,112,c),
(1026,-40,l),
(1131,50,l),
(1003,204,l),
(1079,289,o),
(1133,396,o),
(1149,512,cs),
(1165,626,o),
(1143,731,o),
(1091,817,c),
(1264,969,l),
(1181,1063,l),
(1011,910,l),
(939,975,o),
(842,1009,o),
(732,1009,cs),
(622,1009,o),
(514,973,o),
(424,907,c),
(296,1062,l),
(192,970,l),
(318,817,l),
(242,732,o),
(188,625,o),
(172,511,cs),
(155,395,o),
(179,289,o),
(230,205,c),
(60,50,l),
(138,-40,l)
);
},
{
closed = 1;
nodes = (
(437,179,o),
(319,327,o),
(345,510,cs),
(371,694,o),
(533,842,o),
(708,842,c),
(883,841,o),
(1003,695,o),
(977,512,cs),
(951,327,o),
(789,180,o),
(614,180,c)
);
}
);
width = 1255;
},
{
layerId = "9BC0C71B-A637-49D9-92D6-4EFEC3ADCDB0";
shapes = (
{
closed = 1;
nodes = (
(300,124,l),
(374,54,o),
(476,12,o),
(594,12,cs),
(710,12,o),
(822,54,o),
(913,122,c),
(1040,-28,l),
(1117,38,l),
(989,190,l),
(1074,278,o),
(1131,388,o),
(1149,512,cs),
(1167,634,o),
(1140,744,o),
(1081,832,c),
(1252,982,l),
(1194,1048,l),
(1028,896,l),
(952,968,o),
(852,1008,o),
(736,1008,cs),
(618,1008,o),
(502,966,o),
(409,892,c),
(282,1050,l),
(206,982,l),
(334,828,l),
(254,742,o),
(198,628,o),
(181,510,cs),
(164,390,o),
(190,280,o),
(244,194,c),
(71,38,l),
(128,-28,l)
);
},
{
closed = 1;
nodes = (
(380,84,o),
(227,274,o),
(261,510,cs),
(295,746,o),
(501,934,o),
(724,936,c),
(950,936,o),
(1101,748,o),
(1067,512,cs),
(1033,274,o),
(828,86,o),
(602,86,c)
);
}
);
width = 1255;
}
);
unicode = 164;
}
{
color = 11;
glyphname = yen;
layers = (
{
layerId = "DFDA7944-A323-4357-A6CD-3EE161AE16F3";
shapes = (
{
closed = 1;
nodes = (
(776,0,l),
(822,324,l),
(1106,324,l),
(1134,518,l),
(850,518,l),
(869,650,l),
(1153,650,l),
(1181,850,l),
(951,850,l),
(945,808,l),
(1456,1472,l),
(1060,1472,l),
(687,948,l),
(761,948,l),
(536,1472,l),
(142,1472,l),
(461,808,l),
(467,850,l),
(239,850,l),
(211,650,l),
(495,650,l),
(476,518,l),
(192,518,l),
(164,324,l),
(448,324,l),
(402,0,l)
);
}
);
width = 1255;
},
{
layerId = "E40C1264-1582-41D6-8175-F4C1F2081197";
shapes = (
{
closed = 1;
nodes = (
(695,0,l),
(747,365,l),
(1098,365,l),
(1116,490,l),
(765,490,l),
(793,684,l),
(1144,684,l),
(1162,811,l),
(863,811,l),
(859,786,l),
(1417,1472,l),
(1189,1472,l),
(686,838,l),
(735,838,l),
(410,1472,l),
(182,1472,l),
(544,786,l),
(548,811,l),
(248,811,l),
(230,684,l),
(582,684,l),
(554,490,l),
(202,490,l),
(184,365,l),
(536,365,l),
(484,0,l)
);
}
);
width = 1255;
},
{
layerId = "9BC0C71B-A637-49D9-92D6-4EFEC3ADCDB0";
shapes = (
{
closed = 1;
nodes = (
(624,0,l),
(681,402,l),
(1091,402,l),
(1101,466,l),
(691,466,l),
(726,714,l),
(1136,714,l),
(1145,776,l),
(785,776,l),
(783,766,l),
(1382,1472,l),
(1302,1472,l),
(684,740,l),
(712,740,l),
(298,1472,l),
(218,1472,l),
(617,766,l),
(619,776,l),
(255,776,l),
(246,714,l),
(658,714,l),
(623,466,l),
(211,466,l),
(201,402,l),
(613,402,l),
(556,0,l)
);
}
);
width = 1255;
}
);
unicode = 165;
}
{
color = 11;
glyphname = brokenbar;
layers = (
{
layerId = "74BA431A-305A-4713-B55D-0EBBAE8D1CDE";
shapes = (
{
closed = 1;
nodes = (
(547,962,l),
(647,1660,l),
(285,1660,l),
(185,962,l)
);
},
{
closed = 1;
nodes = (
(383,-188,l),
(483,510,l),
(121,510,l),
(21,-188,l)
);
}
);
width = 638;
},
{
layerId = "0037C824-E55C-4C72-8B66-C5A151689C78";
shapes = (
{
closed = 1;
nodes = (
(422,963,l),
(521,1660,l),
(315,1660,l),
(216,963,l)
);
},
{
closed = 1;
nodes = (
(257,-188,l),
(357,509,l),
(151,509,l),
(51,-188,l)
);
}
);
width = 542;
},
{
layerId = "6219A2BD-1940-4437-A1C4-EF2412E3F892";
shapes = (
{
closed = 1;
nodes = (
(324,964,l),
(423,1660,l),
(355,1660,l),
(256,964,l)
);
},
{
closed = 1;
nodes = (
(159,-188,l),
(259,508,l),
(191,508,l),
(91,-188,l)
);
}
);
width = 484;
}
);
leftKerningGroup = H;
rightKerningGroup = H;
unicode = 166;
}
{
color = 11;
glyphname = section;
layers = (
{
layerId = "DFDA7944-A323-4357-A6CD-3EE161AE16F3";
shapes = (
{
closed = 1;
nodes = (
(802,-212,o),
(1017,-62,o),
(1052,184,cs),
(1066,278,o),
(1040,364,o),
(979,428,c),
(939,332,l),
(1100,420,o),
(1185,536,o),
(1206,684,cs),
(1228,840,o),
(1155,958,o),
(989,1042,cs),
(720,1176,ls),
(649,1212,o),
(619,1252,o),
(627,1312,cs),
(639,1394,o),
(703,1438,o),
(807,1438,cs),
(915,1438,o),
(1044,1402,o),
(1132,1346,c),
(1253,1572,l),
(1167,1644,o),
(1023,1684,o),
(841,1684,cs),
(531,1684,o),
(317,1530,o),
(282,1286,cs),
(268,1192,o),
(295,1110,o),
(355,1044,c),
(395,1140,l),
(238,1052,o),
(152,938,o),
(131,788,cs),
(108,632,o),
(181,512,o),
(345,430,cs),
(616,296,ls),
(689,258,o),
(717,216,o),
(709,160,cs),
(697,78,o),
(631,32,o),
(527,32,cs),
(401,32,o),
(252,86,o),
(173,146,c),
(49,-94,l),
(145,-164,o),
(306,-212,o),
(494,-212,cs)
);
},
{
closed = 1;
nodes = (
(461,904,o),
(481,946,o),
(522,994,c),
(440,980,l),
(463,956,o),
(503,928,o),
(532,912,c),
(767,794,ls),
(855,750,o),
(891,690,o),
(879,612,cs),
(873,568,o),
(853,524,o),
(812,478,c),
(894,490,l),
(872,516,o),
(833,542,o),
(804,560,c),
(569,678,ls),
(481,722,o),
(444,782,o),
(455,860,cs)
);
}
);
width = 1201;
},
{
layerId = "E40C1264-1582-41D6-8175-F4C1F2081197";
shapes = (
{
closed = 1;
nodes = (
(697,-208,o),
(899,-65,o),
(932,170,cs),
(945,257,o),
(927,324,o),
(894,369,c),
(869,311,l),
(983,382,o),
(1059,496,o),
(1076,619,cs),
(1098,772,o),
(1037,878,o),
(851,978,cs),
(634,1092,ls),
(525,1148,o),
(486,1213,o),
(501,1314,cs),
(520,1451,o),
(626,1527,o),
(766,1527,cs),
(884,1527,o),
(1007,1486,o),
(1082,1418,c),
(1162,1556,l),
(1088,1634,o),
(955,1680,o),
(792,1680,cs),
(533,1680,o),
(332,1535,o),
(299,1302,cs),
(287,1215,o),
(305,1150,o),
(339,1105,c),
(363,1162,l),
(251,1091,o),
(173,978,o),
(155,854,cs),
(133,700,o),
(197,593,o),
(382,495,cs),
(601,382,l),
(711,322,o),
(746,255,o),
(733,159,cs),
(713,22,o),
(606,-57,o),
(458,-57,cs),
(331,-57,o),
(198,-9,o),
(126,63,c),
(43,-81,l),
(123,-159,o),
(264,-208,o),
(434,-208,cs)
);
},
{
closed = 1;
nodes = (
(355,956,o),
(386,1014,o),
(441,1065,c),
(382,1060,l),
(411,1013,o),
(465,965,o),
(541,924,cs),
(727,827,ls),
(862,754,o),
(902,683,o),
(887,584,cs),
(878,517,o),
(845,458,o),
(791,409,c),
(850,412,l),
(821,460,o),
(767,507,o),
(692,549,c),
(505,646,ls),
(371,718,o),
(331,789,o),
(345,889,cs)
);
}
);
width = 1099;
},
{
layerId = "9BC0C71B-A637-49D9-92D6-4EFEC3ADCDB0";
shapes = (
{
closed = 1;
nodes = (
(622,-204,o),
(809,-68,o),
(842,158,cs),
(853,238,o),
(844,288,o),
(834,316,c),
(823,292,l),
(895,348,o),
(965,460,o),
(979,562,cs),
(1001,712,o),
(950,808,o),
(745,922,cs),
(574,1018,l),
(431,1092,o),
(385,1178,o),
(405,1316,cs),
(432,1502,o),
(574,1606,o),
(746,1606,cs),
(872,1606,o),
(990,1560,o),
(1053,1482,c),
(1099,1542,l),
(1035,1626,o),
(910,1676,o),
(764,1676,cs),
(550,1676,o),
(363,1540,o),
(331,1316,cs),
(320,1236,o),
(330,1186,o),
(340,1158,c),
(352,1182,l),
(278,1126,o),
(208,1014,o),
(193,912,cs),
(172,760,o),
(226,664,o),
(430,552,cs),
(602,458,ls),
(747,378,o),
(788,290,o),
(770,158,cs),
(743,-28,o),
(600,-136,o),
(414,-136,cs),
(286,-136,o),
(166,-92,o),
(102,-10,c),
(55,-70,l),
(121,-154,o),
(244,-204,o),
(398,-204,cs)
);
},
{
closed = 1;
nodes = (
(276,1002,o),
(318,1074,o),
(386,1128,c),
(348,1130,l),
(381,1064,o),
(448,998,o),
(564,934,cs),
(707,856,ls),
(883,758,o),
(928,676,o),
(911,560,cs),
(898,472,o),
(854,400,o),
(789,348,c),
(826,344,l),
(792,410,o),
(725,476,o),
(610,540,cs),
(465,618,ls),
(289,714,o),
(247,796,o),
(264,914,cs)
);
}
);
width = 1039;
}
);
leftKerningGroup = section;
rightKerningGroup = section;
unicode = 167;
}
{
color = 11;
glyphname = copyright;
layers = (
{
layerId = "DFDA7944-A323-4357-A6CD-3EE161AE16F3";
shapes = (
{
closed = 1;
nodes = (
(1190,-24,o),
(1546,300,o),
(1608,738,cs),
(1671,1174,o),
(1407,1496,o),
(991,1496,cs),
(575,1496,o),
(218,1172,o),
(156,738,cs),
(94,300,o),
(356,-24,o),
(774,-24,cs)
);
},
{
closed = 1;
nodes = (
(968,286,o),
(1093,320,o),
(1169,376,c),
(1118,578,l),
(1066,540,o),
(998,514,o),
(928,514,cs),
(810,514,o),
(753,590,o),
(774,734,cs),
(795,880,o),
(874,958,o),
(992,958,cs),
(1062,958,o),
(1120,932,o),
(1163,894,c),
(1272,1096,l),
(1212,1152,o),
(1098,1186,o),
(988,1186,cs),
(714,1186,o),
(518,1018,o),
(478,734,cs),
(438,454,o),
(586,286,o),
(860,286,cs)
);
},
{
closed = 1;
nodes = (
(446,106,o),
(244,370,o),
(296,738,cs),
(348,1102,o),
(626,1366,o),
(972,1366,cs),
(1316,1366,o),
(1521,1104,o),
(1468,738,cs),
(1416,370,o),
(1136,106,o),
(792,106,cs)
);
}
);
width = 1627;
},
{
layerId = "E40C1264-1582-41D6-8175-F4C1F2081197";
shapes = (
{
closed = 1;
nodes = (
(1188,-20,o),
(1542,303,o),
(1604,738,cs),
(1666,1172,o),
(1404,1492,o),
(990,1492,cs),
(576,1492,o),
(222,1171,o),
(160,738,cs),
(98,303,o),
(359,-20,o),
(774,-20,cs)
);
},
{
closed = 1;
nodes = (
(953,286,o),
(1072,325,o),
(1150,390,c),
(1110,514,l),
(1040,457,o),
(959,429,o),
(881,429,cs),
(717,429,o),
(640,541,o),
(668,737,cs),
(697,936,o),
(806,1043,o),
(969,1043,cs),
(1047,1043,o),
(1118,1016,o),
(1174,958,c),
(1248,1081,l),
(1190,1147,o),
(1084,1186,o),
(973,1186,cs),
(713,1186,o),
(533,1019,o),
(492,738,cs),
(453,459,o),
(585,286,o),
(845,286,cs)
);
},
{
closed = 1;
nodes = (
(430,79,o),
(210,356,o),
(264,738,cs),
(318,1116,o),
(618,1393,o),
(976,1393,cs),
(1333,1393,o),
(1555,1118,o),
(1500,738,cs),
(1446,356,o),
(1145,79,o),
(788,79,cs)
);
}
);
width = 1628;
},
{
layerId = "9BC0C71B-A637-49D9-92D6-4EFEC3ADCDB0";
shapes = (
{
closed = 1;
nodes = (
(1187,-16,o),
(1539,306,o),
(1600,738,cs),
(1662,1170,o),
(1402,1488,o),
(990,1488,cs),
(578,1488,o),
(226,1170,o),
(164,738,cs),
(103,306,o),
(363,-16,o),
(775,-16,cs)
);
},
{
closed = 1;
nodes = (
(940,286,o),
(1054,330,o),
(1132,402,c),
(1104,458,l),
(1018,384,o),
(926,354,o),
(840,354,cs),
(636,354,o),
(540,498,o),
(575,740,cs),
(610,986,o),
(747,1118,o),
(949,1118,cs),
(1035,1118,o),
(1117,1090,o),
(1184,1014,c),
(1228,1068,l),
(1170,1142,o),
(1072,1186,o),
(960,1186,cs),
(712,1186,o),
(545,1020,o),
(505,742,cs),
(465,464,o),
(584,286,o),
(832,286,cs)
);
},
{
closed = 1;
nodes = (
(417,56,o),
(180,344,o),
(236,738,cs),
(292,1128,o),
(611,1416,o),
(979,1416,cs),
(1347,1416,o),
(1584,1130,o),
(1528,738,cs),
(1472,344,o),
(1153,56,o),
(785,56,cs)
);
}
);
width = 1629;
}
);
leftKerningGroup = O;
rightKerningGroup = O;
unicode = 169;
}
{
color = 11;
glyphname = ordfeminine;
layers = (
{
layerId = "DFDA7944-A323-4357-A6CD-3EE161AE16F3";
shapes = (
{
closed = 1;
nodes = (
(486,844,o),
(556,890,o),
(606,976,c),
(612,976,l),
(596,858,l),
(814,858,l),
(866,1224,ls),
(892,1404,o),
(795,1496,o),
(567,1496,cs),
(453,1496,o),
(321,1468,o),
(239,1426,c),
(269,1272,l),
(346,1310,o),
(447,1328,o),
(521,1328,cs),
(613,1328,o),
(648,1306,o),
(638,1242,cs),
(620,1116,ls),
(609,1038,o),
(543,992,o),
(465,992,cs),
(403,992,o),
(374,1018,o),
(380,1054,cs),
(387,1104,o),
(443,1120,o),
(551,1120,cs),
(647,1120,l),
(664,1236,l),
(562,1236,ls),
(292,1236,o),
(168,1184,o),
(149,1050,cs),
(132,932,o),
(232,844,o),
(384,844,cs)
);
}
);
width = 790;
},
{
layerId = "E40C1264-1582-41D6-8175-F4C1F2081197";
shapes = (
{
closed = 1;
nodes = (
(489,855,o),
(565,895,o),
(622,980,c),
(628,980,l),
(612,865,l),
(747,865,l),
(801,1245,ls),
(824,1409,o),
(741,1492,o),
(548,1492,cs),
(442,1492,o),
(326,1466,o),
(249,1422,c),
(272,1321,l),
(345,1363,o),
(438,1384,o),
(522,1384,cs),
(632,1384,o),
(675,1346,o),
(662,1255,cs),
(644,1130,ls),
(629,1022,o),
(539,955,o),
(431,955,cs),
(341,955,o),
(300,996,o),
(308,1050,cs),
(318,1117,o),
(392,1142,o),
(546,1142,cs),
(666,1142,l),
(678,1228,l),
(554,1228,ls),
(312,1228,o),
(182,1177,o),
(164,1049,cs),
(148,937,o),
(243,855,o),
(387,855,cs)
);
}
);
width = 740;
},
{
layerId = "9BC0C71B-A637-49D9-92D6-4EFEC3ADCDB0";
shapes = (
{
closed = 1;
nodes = (
(501,864,o),
(581,900,o),
(645,984,c),
(651,984,l),
(635,872,l),
(697,872,l),
(753,1264,ls),
(774,1414,o),
(703,1488,o),
(541,1488,cs),
(441,1488,o),
(339,1464,o),
(267,1418,c),
(283,1364,l),
(351,1410,o),
(439,1434,o),
(531,1434,cs),
(657,1434,o),
(707,1382,o),
(691,1266,cs),
(673,1142,ls),
(654,1008,o),
(546,922,o),
(410,922,cs),
(296,922,o),
(243,976,o),
(253,1046,cs),
(265,1128,o),
(356,1162,o),
(550,1162,cs),
(692,1162,l),
(700,1220,l),
(556,1220,ls),
(338,1220,o),
(203,1170,o),
(186,1048,cs),
(171,942,o),
(261,864,o),
(399,864,cs)
);
}
);
width = 711;
}
);
leftKerningGroup = ord;
rightKerningGroup = ord;
unicode = 170;
}
{
color = 11;
glyphname = logicalnot;
layers = (
{
layerId = "AA9127E2-66D7-45E5-8D77-9FE81E534461";
shapes = (
{
closed = 1;
nodes = (
(1065,416,l),
(1158,1062,l),
(166,1062,l),
(132,824,l),
(872,824,l),
(813,416,l)
);
}
);
width = 1200;
},
{
layerId = "780D6C53-D363-41D3-A45B-4CEB198897BB";
shapes = (
{
closed = 1;
nodes = (
(1070,449,l),
(1152,1021,l),
(160,1021,l),
(139,873,l),
(975,873,l),
(913,449,l)
);
}
);
width = 1200;
},
{
layerId = "15DD03C9-6E3F-4F53-9575-CC59ABE7D50E";
shapes = (
{
closed = 1;
nodes = (
(1074,478,l),
(1147,984,l),
(155,984,l),
(145,916,l),
(1065,916,l),
(1002,478,l)
);
}
);
width = 1200;
}
);
unicode = 172;
}
{
color = 11;
glyphname = registered;
layers = (
{
layerId = "DFDA7944-A323-4357-A6CD-3EE161AE16F3";
shapes = (
{
closed = 1;
nodes = (
(1190,-24,o),
(1546,302,o),
(1608,738,cs),
(1670,1172,o),
(1407,1496,o),
(991,1496,cs),
(575,1496,o),
(218,1172,o),
(156,738,cs),
(94,300,o),
(356,-24,o),
(774,-24,cs)
);
},
{
closed = 1;
nodes = (
(446,106,o),
(244,370,o),
(296,738,cs),
(348,1102,o),
(626,1366,o),
(972,1366,cs),
(1316,1366,o),
(1521,1104,o),
(1468,738,cs),
(1416,370,o),
(1136,106,o),
(792,106,cs)
);
},
{
closed = 1;
nodes = (
(747,296,l),
(796,636,l),
(757,614,l),
(833,614,ls),
(873,614,o),
(894,596,o),
(901,548,c),
(925,296,l),
(1193,296,l),
(1168,510,l),
(1156,648,o),
(1113,684,o),
(1021,684,c),
(942,662,l),
(1124,662,o),
(1248,752,o),
(1272,916,cs),
(1293,1066,o),
(1196,1180,o),
(1000,1180,cs),
(608,1180,l),
(481,296,l)
);
},
{
closed = 1;
nodes = (
(845,992,l),
(935,992,ls),
(995,992,o),
(1029,964,o),
(1020,900,cs),
(1010,832,o),
(972,802,o),
(908,802,cs),
(818,802,l)
);
}
);
width = 1627;
},
{
layerId = "E40C1264-1582-41D6-8175-F4C1F2081197";
shapes = (
{
closed = 1;
nodes = (
(1188,-20,o),
(1542,304,o),
(1604,738,cs),
(1666,1171,o),
(1404,1492,o),
(990,1492,cs),
(576,1492,o),
(222,1171,o),
(160,738,cs),
(98,303,o),
(359,-20,o),
(774,-20,cs)
);
},
{
closed = 1;
nodes = (
(430,79,o),
(210,356,o),
(264,738,cs),
(318,1116,o),
(618,1393,o),
(976,1393,cs),
(1333,1393,o),
(1555,1118,o),
(1500,738,cs),
(1446,356,o),
(1145,79,o),
(788,79,cs)
);
},
{
closed = 1;
nodes = (
(683,296,l),
(737,669,l),
(707,649,l),
(837,649,ls),
(900,649,o),
(939,629,o),
(954,563,c),
(1006,296,l),
(1173,296,l),
(1119,554,l),
(1101,659,o),
(1056,691,o),
(975,691,c),
(930,672,l),
(1108,672,o),
(1228,761,o),
(1251,921,cs),
(1273,1078,o),
(1181,1178,o),
(997,1178,cs),
(646,1178,l),
(520,296,l)
);
},
{
closed = 1;
nodes = (
(791,1054,l),
(958,1054,ls),
(1060,1054,o),
(1105,1009,o),
(1092,915,cs),
(1078,818,o),
(1020,773,o),
(917,773,cs),
(750,773,l)
);
}
);
width = 1628;
},
{
layerId = "9BC0C71B-A637-49D9-92D6-4EFEC3ADCDB0";
shapes = (
{
closed = 1;
nodes = (
(1187,-16,o),
(1539,306,o),
(1600,738,cs),
(1662,1170,o),
(1402,1488,o),
(990,1488,cs),
(578,1488,o),
(226,1170,o),
(164,738,cs),
(103,306,o),
(363,-16,o),
(775,-16,cs)
);
},
{
closed = 1;
nodes = (
(417,56,o),
(180,344,o),
(236,738,cs),
(292,1128,o),
(611,1416,o),
(979,1416,cs),
(1347,1416,o),
(1584,1130,o),
(1528,738,cs),
(1472,344,o),
(1153,56,o),
(785,56,cs)
);
},
{
closed = 1;
nodes = (
(627,296,l),
(685,698,l),
(662,680,l),
(840,680,ls),
(924,680,o),
(979,658,o),
(1001,576,cs),
(1077,296,l),
(1155,296,l),
(1076,592,l),
(1052,668,o),
(1005,698,o),
(935,698,c),
(920,680,l),
(1094,680,o),
(1209,768,o),
(1231,926,cs),
(1254,1088,o),
(1169,1176,o),
(995,1176,cs),
(681,1176,l),
(555,296,l)
);
},
{
closed = 1;
nodes = (
(743,1108,l),
(977,1108,ls),
(1117,1108,o),
(1173,1048,o),
(1156,928,cs),
(1138,806,o),
(1064,748,o),
(926,748,cs),
(692,748,l)
);
}
);
width = 1629;
}
);
leftKerningGroup = O;
rightKerningGroup = O;
unicode = 174;
}
{
color = 11;
glyphname = degree;
layers = (
{
layerId = "AB3199DD-655E-4C0F-A34B-FD02744555A7";
shapes = (
{
closed = 1;
nodes = (
(625,832,o),
(789,972,o),
(816,1164,cs),
(843,1350,o),
(717,1494,o),
(521,1494,cs),
(327,1494,o),
(161,1352,o),
(134,1164,cs),
(107,972,o),
(231,832,o),
(427,832,cs)
);
},
{
closed = 1;
nodes = (
(373,1014,o),
(322,1080,o),
(334,1164,cs),
(346,1248,o),
(415,1310,o),
(495,1310,cs),
(573,1310,o),
(626,1248,o),
(614,1164,cs),
(602,1080,o),
(531,1014,o),
(453,1014,cs)
);
}
);
width = 796;
},
{
layerId = "64C9CF7B-5345-44EA-861F-4D3695E3DC07";
shapes = (
{
closed = 1;
nodes = (
(594,876,o),
(746,1007,o),
(771,1183,cs),
(796,1357,o),
(681,1491,o),
(505,1491,cs),
(328,1491,o),
(175,1357,o),
(150,1183,cs),
(125,1008,o),
(240,876,o),
(418,876,cs)
);
},
{
closed = 1;
nodes = (
(333,1000,o),
(272,1077,o),
(287,1183,cs),
(302,1289,o),
(385,1365,o),
(487,1365,cs),
(589,1365,o),
(650,1289,o),
(635,1183,cs),
(620,1077,o),
(536,1000,o),
(435,1000,cs)
);
}
);
width = 764;
},
{
layerId = "C792CAD3-12E8-4938-96FB-ECD54646BE96";
shapes = (
{
closed = 1;
nodes = (
(571,914,o),
(712,1038,o),
(735,1200,cs),
(759,1364,o),
(653,1488,o),
(495,1488,cs),
(333,1488,o),
(191,1362,o),
(167,1200,cs),
(145,1040,o),
(251,914,o),
(413,914,cs)
);
},
{
closed = 1;
nodes = (
(301,988,o),
(231,1074,o),
(249,1200,cs),
(267,1326,o),
(362,1414,o),
(484,1414,cs),
(606,1414,o),
(675,1326,o),
(657,1200,cs),
(639,1074,o),
(545,988,o),
(423,988,cs)
);
}
);
width = 744;
}
);
leftKerningGroup = degree;
rightKerningGroup = degree;
unicode = 176;
}
{
color = 11;
glyphname = plusminus;
layers = (
{
layerId = "DFDA7944-A323-4357-A6CD-3EE161AE16F3";
shapes = (
{
closed = 1;
nodes = (
(751,446,l),
(791,728,l),
(1163,728,l),
(1198,970,l),
(826,970,l),
(866,1250,l),
(616,1250,l),
(576,970,l),
(206,970,l),
(171,728,l),
(541,728,l),
(501,446,l)
);
},
{
closed = 1;
nodes = (
(1078,136,l),
(1113,376,l),
(121,376,l),
(86,136,l)
);
}
);
width = 1202;
},
{
layerId = "E40C1264-1582-41D6-8175-F4C1F2081197";
shapes = (
{
closed = 1;
nodes = (
(697,405,l),
(746,750,l),
(1166,750,l),
(1188,901,l),
(768,901,l),
(817,1246,l),
(663,1246,l),
(614,901,l),
(196,901,l),
(174,750,l),
(592,750,l),
(543,405,l)
);
},
{
closed = 1;
nodes = (
(1078,136,l),
(1100,286,l),
(108,286,l),
(86,136,l)
);
}
);
width = 1202;
},
{
layerId = "9BC0C71B-A637-49D9-92D6-4EFEC3ADCDB0";
shapes = (
{
closed = 1;
nodes = (
(650,368,l),
(707,770,l),
(1169,770,l),
(1179,840,l),
(717,840,l),
(774,1242,l),
(704,1242,l),
(647,840,l),
(187,840,l),
(177,770,l),
(637,770,l),
(580,368,l)
);
},
{
closed = 1;
nodes = (
(1078,136,l),
(1088,206,l),
(96,206,l),
(86,136,l)
);
}
);
width = 1201;
}
);
unicode = 177;
}
{
color = 11;
glyphname = micro;
layers = (
{
layerId = "DFDA7944-A323-4357-A6CD-3EE161AE16F3";
shapes = (
{
closed = 1;
nodes = (
(363,-376,l),
(397,68,l),
(397,68,l),
(418,6,o),
(452,-24,o),
(520,-24,cs),
(604,-24,o),
(690,52,o),
(727,180,c),
(733,180,l),
(707,0,l),
(1055,0,l),
(1202,1028,l),
(844,1028,l),
(760,442,ls),
(744,328,o),
(663,252,o),
(571,252,cs),
(493,252,o),
(460,298,o),
(474,402,cs),
(564,1028,l),
(204,1028,l),
(3,-376,l)
);
}
);
width = 1188;
},
{
layerId = "E40C1264-1582-41D6-8175-F4C1F2081197";
shapes = (
{
closed = 1;
nodes = (
(275,-376,l),
(330,126,l),
(308,126,l),
(336,19,o),
(407,-20,o),
(514,-20,cs),
(647,-20,o),
(768,66,o),
(827,215,c),
(815,215,l),
(784,0,l),
(983,0,l),
(1128,1018,l),
(924,1018,l),
(840,428,ls),
(816,257,o),
(693,146,o),
(542,146,cs),
(414,146,o),
(360,216,o),
(384,383,cs),
(474,1018,l),
(269,1018,l),
(70,-376,l)
);
}
);
width = 1182;
},
{
layerId = "9BC0C71B-A637-49D9-92D6-4EFEC3ADCDB0";
shapes = (
{
closed = 1;
nodes = (
(199,-376,l),
(272,178,l),
(232,178,l),
(265,30,o),
(371,-16,o),
(511,-16,cs),
(687,-16,o),
(838,78,o),
(916,246,c),
(888,246,l),
(853,0,l),
(921,0,l),
(1065,1010,l),
(997,1010,l),
(912,416,ls),
(881,194,o),
(720,52,o),
(518,52,cs),
(346,52,o),
(274,144,o),
(305,366,cs),
(397,1010,l),
(329,1010,l),
(131,-376,l)
);
}
);
width = 1179;
}
);
leftKerningGroup = n;
rightKerningGroup = u;
unicode = 181;
}
{
color = 11;
glyphname = paragraph;
layers = (
{
layerId = "74BA431A-305A-4713-B55D-0EBBAE8D1CDE";
shapes = (
{
closed = 1;
nodes = (
(641,-188,l),
(870,1414,l),
(1076,1414,l),
(847,-188,l),
(1095,-188,l),
(1359,1660,l),
(665,1660,ls),
(383,1660,o),
(169,1474,o),
(128,1190,cs),
(87,900,o),
(248,716,o),
(520,716,c),
(391,-188,l)
);
}
);
width = 1338;
},
{
layerId = "0037C824-E55C-4C72-8B66-C5A151689C78";
shapes = (
{
closed = 1;
nodes = (
(517,-188,l),
(760,1510,l),
(1005,1510,l),
(762,-188,l),
(917,-188,l),
(1181,1660,l),
(632,1660,ls),
(381,1660,o),
(190,1487,o),
(155,1238,cs),
(119,986,o),
(260,815,o),
(505,815,c),
(362,-188,l)
);
}
);
width = 1188;
},
{
layerId = "6219A2BD-1940-4437-A1C4-EF2412E3F892";
shapes = (
{
closed = 1;
nodes = (
(431,-188,l),
(686,1594,l),
(964,1594,l),
(709,-188,l),
(783,-188,l),
(1047,1660,l),
(625,1660,ls),
(401,1660,o),
(232,1498,o),
(201,1280,cs),
(170,1062,o),
(293,902,o),
(515,902,c),
(359,-188,l)
);
}
);
width = 1098;
}
);
leftKerningGroup = paragraph;
rightKerningGroup = H;
unicode = 182;
}
{
color = 11;
glyphname = periodcentered;
layers = (
{
layerId = "AA9127E2-66D7-45E5-8D77-9FE81E534461";
shapes = (
{
closed = 1;
nodes = (
(449,552,l),
(502,922,l),
(128,922,l),
(75,552,l)
);
}
);
width = 550;
},
{
layerId = "780D6C53-D363-41D3-A45B-4CEB198897BB";
shapes = (
{
closed = 1;
nodes = (
(351,616,l),
(386,857,l),
(145,857,l),
(111,616,l)
);
}
);
width = 468;
},
{
layerId = "15DD03C9-6E3F-4F53-9575-CC59ABE7D50E";
shapes = (
{
closed = 1;
nodes = (
(276,672,l),
(294,800,l),
(172,800,l),
(154,672,l)
);
}
);
width = 418;
}
);
leftKerningGroup = hyphen;
rightKerningGroup = hyphen;
unicode = 183;
}
{
color = 11;
glyphname = ordmasculine;
layers = (
{
layerId = "DFDA7944-A323-4357-A6CD-3EE161AE16F3";
shapes = (
{
closed = 1;
nodes = (
(717,846,o),
(889,972,o),
(918,1174,cs),
(946,1372,o),
(810,1496,o),
(588,1496,cs),
(366,1496,o),
(192,1372,o),
(164,1174,cs),
(135,972,o),
(273,846,o),
(495,846,cs)
);
},
{
closed = 1;
nodes = (
(434,1020,o),
(385,1072,o),
(400,1174,cs),
(414,1274,o),
(477,1322,o),
(563,1322,cs),
(649,1322,o),
(696,1272,o),
(682,1174,cs),
(667,1074,o),
(606,1020,o),
(520,1020,cs)
);
}
);
width = 825;
},
{
layerId = "E40C1264-1582-41D6-8175-F4C1F2081197";
shapes = (
{
closed = 1;
nodes = (
(665,855,o),
(821,979,o),
(849,1175,cs),
(877,1369,o),
(756,1492,o),
(558,1492,cs),
(358,1492,o),
(201,1369,o),
(173,1175,cs),
(145,979,o),
(267,855,o),
(467,855,cs)
);
},
{
closed = 1;
nodes = (
(363,968,o),
(299,1038,o),
(319,1175,cs),
(338,1310,o),
(422,1380,o),
(542,1380,cs),
(661,1380,o),
(724,1309,o),
(705,1175,cs),
(685,1039,o),
(602,968,o),
(483,968,cs)
);
}
);
width = 766;
},
{
layerId = "9BC0C71B-A637-49D9-92D6-4EFEC3ADCDB0";
shapes = (
{
closed = 1;
nodes = (
(630,862,o),
(772,986,o),
(799,1176,cs),
(826,1366,o),
(720,1488,o),
(542,1488,cs),
(362,1488,o),
(218,1366,o),
(191,1176,cs),
(164,986,o),
(272,862,o),
(452,862,cs)
);
},
{
closed = 1;
nodes = (
(311,922,o),
(233,1008,o),
(257,1176,cs),
(281,1342,o),
(384,1432,o),
(534,1432,cs),
(682,1432,o),
(759,1342,o),
(735,1176,cs),
(711,1008,o),
(609,922,o),
(461,922,cs)
);
}
);
width = 732;
}
);
leftKerningGroup = ord;
rightKerningGroup = ord;
unicode = 186;
}
{
color = 11;
glyphname = questiondown;
layers = (
{
layerId = "AA9127E2-66D7-45E5-8D77-9FE81E534461";
shapes = (
{
closed = 1;
nodes = (
(513,-398,o),
(699,-342,o),
(829,-242,c),
(751,22,l),
(642,-58,o),
(535,-94,o),
(433,-94,cs),
(325,-94,o),
(277,-46,o),
(289,32,cs),
(297,88,o),
(329,134,o),
(404,212,cs),
(524,334,o),
(558,422,o),
(574,532,cs),
(588,632,l),
(378,632,l),
(356,560,ls),
(333,480,o),
(286,420,o),
(157,318,c),
(3,204,o),
(-66,98,o),
(-85,-34,cs),
(-116,-254,o),
(49,-398,o),
(329,-398,cs)
);
},
{
closed = 1;
nodes = (
(687,750,l),
(740,1122,l),
(366,1122,l),
(313,750,l)
);
}
);
width = 960;
},
{
layerId = "780D6C53-D363-41D3-A45B-4CEB198897BB";
shapes = (
{
closed = 1;
nodes = (
(469,-395,o),
(651,-331,o),
(770,-218,c),
(718,-65,l),
(599,-169,o),
(476,-215,o),
(349,-215,cs),
(205,-215,o),
(135,-142,o),
(152,-24,cs),
(165,60,o),
(207,133,o),
(320,251,cs),
(469,409,o),
(514,514,o),
(533,645,cs),
(542,709,l),
(418,709,l),
(404,652,ls),
(376,542,o),
(322,465,o),
(179,327,c),
(20,179,o),
(-42,76,o),
(-61,-53,cs),
(-90,-261,o),
(48,-395,o),
(297,-395,cs)
);
},
{
closed = 1;
nodes = (
(624,870,l),
(658,1111,l),
(417,1111,l),
(382,870,l)
);
}
);
width = 894;
},
{
layerId = "15DD03C9-6E3F-4F53-9575-CC59ABE7D50E";
shapes = (
{
closed = 1;
nodes = (
(440,-392,o),
(618,-322,o),
(728,-196,c),
(698,-142,l),
(570,-266,o),
(434,-322,o),
(284,-322,cs),
(108,-322,o),
(20,-226,o),
(41,-74,cs),
(57,36,o),
(109,132,o),
(255,286,cs),
(430,476,o),
(485,596,o),
(506,744,cs),
(511,776,l),
(463,776,l),
(455,734,l),
(423,596,o),
(364,504,o),
(208,334,cs),
(44,156,o),
(-12,56,o),
(-30,-70,cs),
(-58,-268,o),
(56,-392,o),
(278,-392,cs)
);
},
{
closed = 1;
nodes = (
(577,976,l),
(595,1102,l),
(471,1102,l),
(453,976,l)
);
}
);
width = 854;
}
);
leftKerningGroup = questiondown;
rightKerningGroup = questiondown;
unicode = 191;
}
{
color = 11;
glyphname = AE;
layers = (
{
anchors = (
{
name = bottom;
position = "{890, 0}";
},
{
name = top;
position = "{1102, 1472}";
}
);
layerId = "DFDA7944-A323-4357-A6CD-3EE161AE16F3";
shapes = (
{
closed = 1;
nodes = (
(234,0,l),
(498,394,l),
(351,300,l),
(1069,300,l),
(972,408,l),
(994,0,l),
(1786,0,l),
(1828,294,l),
(1214,294,l),
(1325,192,l),
(1299,704,l),
(1210,600,l),
(1830,600,l),
(1872,894,l),
(1184,894,l),
(1293,788,l),
(1271,1264,l),
(1164,1178,l),
(1954,1178,l),
(1996,1472,l),
(886,1472,l),
(-160,0,l)
);
},
{
closed = 1;
nodes = (
(939,1056,l),
(968,488,l),
(1053,592,l),
(573,592,l),
(570,502,l),
(935,1056,l)
);
}
);
width = 1930;
},
{
anchors = (
{
name = bottom;
position = "{883, 0}";
},
{
name = top;
position = "{1093, 1472}";
}
);
layerId = "E40C1264-1582-41D6-8175-F4C1F2081197";
shapes = (
{
closed = 1;
nodes = (
(131,0,l),
(413,415,l),
(327,363,l),
(1060,363,l),
(997,421,l),
(1017,0,l),
(1736,0,l),
(1761,173,l),
(1138,173,l),
(1205,106,l),
(1176,716,l),
(1121,661,l),
(1790,661,l),
(1815,833,l),
(1107,833,l),
(1172,774,l),
(1146,1366,l),
(1088,1299,l),
(1922,1299,l),
(1946,1472,l),
(930,1472,l),
(-92,0,l)
);
},
{
closed = 1;
nodes = (
(958,1226,l),
(994,478,l),
(1039,533,l),
(451,533,l),
(457,483,l),
(955,1226,l)
);
}
);
width = 1873;
},
{
anchors = (
{
name = bottom;
position = "{884, 0}";
},
{
name = top;
position = "{1092, 1472}";
}
);
layerId = "9BC0C71B-A637-49D9-92D6-4EFEC3ADCDB0";
shapes = (
{
closed = 1;
nodes = (
(48,0,l),
(346,434,l),
(314,418,l),
(1060,418,l),
(1026,432,l),
(1044,0,l),
(1700,0,l),
(1709,66,l),
(1077,66,l),
(1106,30,l),
(1076,726,l),
(1050,714,l),
(1764,714,l),
(1773,780,l),
(1047,780,l),
(1073,762,l),
(1044,1456,l),
(1027,1406,l),
(1901,1406,l),
(1910,1472,l),
(976,1472,l),
(-24,0,l)
);
},
{
closed = 1;
nodes = (
(983,1376,l),
(1025,470,l),
(1035,480,l),
(351,480,l),
(365,466,l),
(981,1376,l)
);
}
);
width = 1838;
}
);
leftKerningGroup = A;
rightKerningGroup = E;
unicode = 198;
}
{
color = 11;
glyphname = multiply;
layers = (
{
layerId = "AA9127E2-66D7-45E5-8D77-9FE81E534461";
shapes = (
{
closed = 1;
nodes = (
(591,566,l),
(851,262,l),
(1044,432,l),
(783,738,l),
(1131,1042,l),
(987,1212,l),
(640,908,l),
(377,1212,l),
(185,1042,l),
(447,738,l),
(98,432,l),
(241,262,l)
);
}
);
width = 1200;
},
{
layerId = "780D6C53-D363-41D3-A45B-4CEB198897BB";
shapes = (
{
closed = 1;
nodes = (
(600,630,l),
(915,262,l),
(1034,367,l),
(719,737,l),
(1140,1106,l),
(1051,1211,l),
(630,843,l),
(314,1211,l),
(194,1106,l),
(510,737,l),
(88,367,l),
(178,262,l)
);
}
);
width = 1200;
},
{
layerId = "15DD03C9-6E3F-4F53-9575-CC59ABE7D50E";
shapes = (
{
closed = 1;
nodes = (
(608,686,l),
(971,262,l),
(1026,310,l),
(663,736,l),
(1148,1162,l),
(1107,1210,l),
(622,786,l),
(259,1210,l),
(202,1162,l),
(565,736,l),
(80,310,l),
(123,262,l)
);
}
);
width = 1200;
}
);
unicode = 215;
}
{
color = 11;
glyphname = Thorn;
layers = (
{
anchors = (
{
name = bottom;
position = "{602, 0}";
},
{
name = top;
position = "{810, 1472}";
}
);
layerId = "AA9127E2-66D7-45E5-8D77-9FE81E534461";
shapes = (
{
closed = 1;
nodes = (
(408,0,l),
(449,288,l),
(761,288,ls),
(1079,288,o),
(1289,468,o),
(1331,766,cs),
(1374,1066,o),
(1216,1248,o),
(898,1248,cs),
(586,1248,l),
(618,1472,l),
(250,1472,l),
(40,0,l)
);
},
{
closed = 1;
nodes = (
(545,960,l),
(791,960,ls),
(927,960,o),
(996,896,o),
(977,766,cs),
(959,638,o),
(872,574,o),
(736,574,cs),
(490,574,l)
);
}
);
width = 1358;
},
{
anchors = (
{
name = bottom;
position = "{562, 0}";
},
{
name = top;
position = "{771, 1472}";
}
);
layerId = "780D6C53-D363-41D3-A45B-4CEB198897BB";
shapes = (
{
closed = 1;
nodes = (
(278,0,l),
(322,315,l),
(696,315,ls),
(1001,315,o),
(1199,480,o),
(1239,764,cs),
(1280,1049,o),
(1130,1213,o),
(825,1213,cs),
(451,1213,l),
(488,1472,l),
(280,1472,l),
(70,0,l)
);
},
{
closed = 1;
nodes = (
(426,1043,l),
(770,1043,ls),
(969,1043,o),
(1060,948,o),
(1034,764,cs),
(1007,580,o),
(889,486,o),
(691,486,cs),
(347,486,l)
);
}
);
width = 1274;
},
{
anchors = (
{
name = bottom;
position = "{538, 0}";
},
{
name = top;
position = "{748, 1472}";
}
);
layerId = "15DD03C9-6E3F-4F53-9575-CC59ABE7D50E";
shapes = (
{
closed = 1;
nodes = (
(174,0,l),
(222,338,l),
(650,338,ls),
(944,338,o),
(1130,490,o),
(1169,762,cs),
(1208,1034,o),
(1065,1182,o),
(771,1182,cs),
(343,1182,l),
(384,1472,l),
(318,1472,l),
(108,0,l)
);
},
{
closed = 1;
nodes = (
(333,1116,l),
(763,1116,ls),
(1017,1116,o),
(1128,994,o),
(1095,762,cs),
(1061,528,o),
(916,408,o),
(662,408,cs),
(232,408,l)
);
}
);
width = 1224;
}
);
leftKerningGroup = H;
rightKerningGroup = THORN;
unicode = 222;
}
{
color = 11;
glyphname = germandbls;
layers = (
{
layerId = "DFDA7944-A323-4357-A6CD-3EE161AE16F3";
shapes = (
{
closed = 1;
nodes = (
(1287,-24,o),
(1494,128,o),
(1527,354,cs),
(1551,522,o),
(1471,626,o),
(1262,688,cs),
(1109,732,o),
(1074,756,o),
(1081,804,cs),
(1087,846,o),
(1117,874,o),
(1209,944,cs),
(1323,1028,o),
(1371,1102,o),
(1385,1194,cs),
(1412,1384,o),
(1250,1496,o),
(934,1496,cs),
(518,1496,o),
(272,1304,o),
(220,936,cs),
(86,0,l),
(456,0,l),
(597,988,ls),
(621,1152,o),
(721,1240,o),
(901,1240,cs),
(999,1240,o),
(1040,1206,o),
(1032,1150,cs),
(1026,1108,o),
(1004,1078,o),
(932,1024,c),
(805,916,o),
(750,842,o),
(737,750,cs),
(716,600,o),
(793,510,o),
(1009,454,cs),
(1163,414,o),
(1195,384,o),
(1188,334,cs),
(1179,272,o),
(1130,238,o),
(1046,238,cs),
(934,238,o),
(805,276,o),
(700,352,c),
(558,110,l),
(667,22,o),
(833,-24,o),
(1001,-24,cs)
);
}
);
width = 1549;
},
{
layerId = "E40C1264-1582-41D6-8175-F4C1F2081197";
shapes = (
{
closed = 1;
nodes = (
(1130,-20,o),
(1318,114,o),
(1347,316,cs),
(1371,482,o),
(1285,574,o),
(1063,642,cs),
(900,691,o),
(844,727,o),
(854,801,cs),
(863,861,o),
(907,896,o),
(1012,967,c),
(1140,1050,o),
(1203,1124,o),
(1217,1226,cs),
(1241,1395,o),
(1107,1492,o),
(854,1492,cs),
(517,1492,o),
(304,1324,o),
(259,1009,cs),
(115,0,l),
(324,0,l),
(472,1033,ls),
(500,1232,o),
(624,1336,o),
(836,1336,cs),
(965,1336,o),
(1026,1289,o),
(1014,1205,cs),
(1005,1142,o),
(963,1098,o),
(870,1038,c),
(732,940,o),
(670,871,o),
(657,774,cs),
(637,635,o),
(713,557,o),
(934,494,cs),
(1116,442,o),
(1161,393,o),
(1149,309,cs),
(1134,202,o),
(1042,138,o),
(903,138,cs),
(787,138,o),
(667,175,o),
(568,265,c),
(474,124,l),
(565,32,o),
(717,-20,o),
(875,-20,cs)
);
}
);
width = 1389;
},
{
layerId = "9BC0C71B-A637-49D9-92D6-4EFEC3ADCDB0";
shapes = (
{
closed = 1;
nodes = (
(1015,-16,o),
(1186,102,o),
(1211,282,cs),
(1235,446,o),
(1142,528,o),
(909,602,cs),
(736,654,o),
(663,702,o),
(677,798,cs),
(688,874,o),
(744,916,o),
(860,988,c),
(1000,1070,o),
(1074,1144,o),
(1090,1254,cs),
(1112,1404,o),
(1004,1488,o),
(806,1488,cs),
(538,1488,o),
(355,1342,o),
(316,1074,cs),
(163,0,l),
(229,0,l),
(382,1072,ls),
(415,1302,o),
(560,1420,o),
(800,1420,cs),
(956,1420,o),
(1036,1362,o),
(1020,1254,cs),
(1008,1172,o),
(948,1116,o),
(837,1050,cs),
(690,962,o),
(621,896,o),
(607,796,cs),
(588,666,o),
(662,598,o),
(889,530,cs),
(1096,466,o),
(1152,400,o),
(1136,286,cs),
(1115,140,o),
(986,50,o),
(798,50,cs),
(678,50,o),
(567,86,o),
(472,188,c),
(420,136,l),
(495,40,o),
(637,-16,o),
(787,-16,cs)
);
}
);
width = 1293;
}
);
leftKerningGroup = h;
rightKerningGroup = germandbls;
unicode = 223;
}
{
color = 11;
glyphname = ae;
layers = (
{
anchors = (
{
name = bottom;
position = "{907, 0}";
},
{
name = top;
position = "{1051, 1010}";
}
);
layerId = "DFDA7944-A323-4357-A6CD-3EE161AE16F3";
shapes = (
{
closed = 1;
nodes = (
(710,-24,o),
(878,76,o),
(963,240,c),
(895,240,l),
(964,74,o),
(1134,-24,o),
(1394,-24,cs),
(1558,-24,o),
(1743,26,o),
(1861,112,c),
(1797,352,l),
(1698,284,o),
(1567,252,o),
(1451,252,cs),
(1243,252,o),
(1161,338,o),
(1192,556,cs),
(1196,582,ls),
(1224,780,o),
(1318,876,o),
(1462,876,cs),
(1600,876,o),
(1663,798,o),
(1638,620,c),
(1680,654,l),
(1164,654,l),
(1139,476,l),
(1927,476,l),
(1938,556,ls),
(1988,902,o),
(1818,1126,o),
(1484,1126,cs),
(1322,1126,o),
(1173,1062,o),
(1063,936,c),
(1143,936,l),
(1093,1064,o),
(958,1126,o),
(754,1126,cs),
(574,1126,o),
(352,1072,o),
(221,992,c),
(281,742,l),
(414,816,o),
(563,854,o),
(687,854,cs),
(821,854,o),
(871,812,o),
(856,704,cs),
(816,426,ls),
(798,302,o),
(700,228,o),
(580,228,cs),
(482,228,o),
(432,274,o),
(443,348,cs),
(455,436,o),
(537,476,o),
(743,476,cs),
(863,476,l),
(888,654,l),
(770,654,ls),
(294,654,o),
(120,564,o),
(88,340,cs),
(58,136,o),
(202,-24,o),
(488,-24,cs)
);
}
);
width = 1951;
},
{
anchors = (
{
name = bottom;
position = "{906, 0}";
},
{
name = top;
position = "{1050, 1010}";
}
);
layerId = "E40C1264-1582-41D6-8175-F4C1F2081197";
shapes = (
{
closed = 1;
nodes = (
(709,-20,o),
(889,98,o),
(970,305,c),
(916,305,l),
(959,97,o),
(1119,-20,o),
(1381,-20,cs),
(1541,-20,o),
(1716,33,o),
(1827,132,c),
(1780,272,l),
(1668,183,o),
(1540,145,o),
(1414,145,cs),
(1172,145,o),
(1058,274,o),
(1098,553,cs),
(1101,571,ls),
(1138,831,o),
(1286,972,o),
(1484,972,cs),
(1679,972,o),
(1767,851,o),
(1731,605,c),
(1773,638,l),
(1077,638,l),
(1060,516,l),
(1897,516,l),
(1906,579,ls),
(1955,921,o),
(1803,1124,o),
(1502,1124,cs),
(1313,1124,o),
(1144,1029,o),
(1038,865,c),
(1096,865,l),
(1081,1036,o),
(964,1124,o),
(739,1124,cs),
(576,1124,o),
(389,1074,o),
(264,994,c),
(308,844,l),
(437,923,o),
(572,960,o),
(705,960,cs),
(872,960,o),
(942,895,o),
(918,725,cs),
(876,437,ls),
(850,250,o),
(707,132,o),
(537,132,cs),
(394,132,o),
(315,210,o),
(332,331,cs),
(352,469,o),
(458,516,o),
(792,516,cs),
(914,516,l),
(931,638,l),
(807,638,ls),
(327,638,o),
(157,554,o),
(125,326,cs),
(96,126,o),
(238,-21,o),
(487,-20,c)
);
}
);
width = 1947;
},
{
anchors = (
{
name = bottom;
position = "{907, 0}";
},
{
name = top;
position = "{1051, 1010}";
}
);
layerId = "9BC0C71B-A637-49D9-92D6-4EFEC3ADCDB0";
shapes = (
{
closed = 1;
nodes = (
(711,-16,o),
(900,118,o),
(977,362,c),
(935,362,l),
(956,118,o),
(1109,-16,o),
(1373,-16,cs),
(1529,-16,o),
(1695,40,o),
(1798,150,c),
(1766,202,l),
(1644,94,o),
(1518,50,o),
(1382,50,cs),
(1110,50,o),
(968,218,o),
(1016,550,c),
(1017,562,l),
(1062,876,o),
(1260,1056,o),
(1504,1056,cs),
(1750,1056,o),
(1859,898,o),
(1816,592,c),
(1856,624,l),
(1002,624,l),
(992,552,l),
(1872,552,l),
(1879,600,ls),
(1927,938,o),
(1791,1122,o),
(1519,1122,cs),
(1305,1122,o),
(1120,1000,o),
(1018,802,c),
(1056,802,l),
(1072,1012,o),
(971,1122,o),
(727,1122,cs),
(579,1122,o),
(425,1076,o),
(303,996,c),
(332,934,l),
(458,1018,o),
(582,1054,o),
(724,1054,cs),
(920,1054,o),
(1005,968,o),
(973,744,cs),
(931,446,ls),
(896,204,o),
(716,48,o),
(502,48,cs),
(318,48,o),
(213,154,o),
(236,316,cs),
(262,498,o),
(390,552,o),
(836,552,cs),
(960,552,l),
(970,624,l),
(842,624,ls),
(358,624,o),
(193,546,o),
(160,314,cs),
(132,118,o),
(272,-18,o),
(489,-16,c)
);
}
);
width = 1945;
}
);
leftKerningGroup = a;
rightKerningGroup = e;
unicode = 230;
}
{
color = 11;
glyphname = eth;
layers = (
{
layerId = "DFDA7944-A323-4357-A6CD-3EE161AE16F3";
shapes = (
{
closed = 1;
nodes = (
(1015,-24,o),
(1276,212,o),
(1331,592,cs),
(1368,852,o),
(1285,1096,o),
(1065,1268,c),
(1048,1234,l),
(1318,1346,l),
(1268,1500,l),
(892,1342,l),
(948,1346,l),
(830,1416,o),
(678,1468,o),
(492,1498,c),
(407,1280,l),
(493,1264,o),
(568,1246,o),
(653,1212,c),
(653,1240,l),
(345,1116,l),
(394,964,l),
(835,1144,l),
(776,1146,l),
(940,1038,o),
(1026,882,o),
(1000,700,c),
(1076,700,l),
(1030,866,o),
(906,940,o),
(710,940,cs),
(390,940,o),
(138,742,o),
(99,466,cs),
(57,174,o),
(265,-24,o),
(619,-24,cs)
);
},
{
closed = 1;
nodes = (
(526,252,o),
(451,332,o),
(470,464,cs),
(489,594,o),
(586,670,o),
(728,670,cs),
(874,670,o),
(943,592,o),
(924,464,cs),
(906,334,o),
(812,252,o),
(670,252,cs)
);
}
);
width = 1349;
},
{
layerId = "E40C1264-1582-41D6-8175-F4C1F2081197";
shapes = (
{
closed = 1;
nodes = (
(932,-20,o),
(1164,201,o),
(1217,576,cs),
(1263,893,o),
(1177,1141,o),
(946,1305,c),
(935,1282,l),
(1213,1387,l),
(1182,1493,l),
(828,1357,l),
(868,1357,l),
(771,1414,o),
(649,1460,o),
(503,1491,c),
(449,1358,l),
(535,1337,o),
(611,1314,o),
(684,1280,c),
(689,1300,l),
(372,1182,l),
(403,1079,l),
(818,1233,l),
(766,1233,l),
(976,1103,o),
(1068,902,o),
(1032,665,c),
(1086,665,l),
(1056,873,o),
(926,975,o),
(709,975,cs),
(400,975,o),
(165,777,o),
(123,481,cs),
(79,178,o),
(261,-20,o),
(584,-20,cs)
);
},
{
closed = 1;
nodes = (
(407,145,o),
(303,269,o),
(334,480,cs),
(364,691,o),
(504,812,o),
(706,812,cs),
(909,812,o),
(1013,688,o),
(984,480,cs),
(954,271,o),
(813,145,o),
(611,145,cs)
);
}
);
width = 1263;
},
{
layerId = "9BC0C71B-A637-49D9-92D6-4EFEC3ADCDB0";
shapes = (
{
closed = 1;
nodes = (
(872,-16,o),
(1077,192,o),
(1130,562,cs),
(1183,930,o),
(1095,1180,o),
(855,1338,c),
(849,1324,l),
(1133,1424,l),
(1120,1486,l),
(784,1370,l),
(809,1366,l),
(732,1412,o),
(635,1452,o),
(526,1484,c),
(500,1426,l),
(586,1402,o),
(662,1374,o),
(723,1340,c),
(733,1352,l),
(409,1240,l),
(425,1180,l),
(815,1312,l),
(771,1310,l),
(1020,1160,o),
(1117,920,o),
(1073,634,c),
(1109,634,l),
(1092,880,o),
(958,1006,o),
(722,1006,cs),
(422,1006,o),
(201,808,o),
(157,494,cs),
(112,182,o),
(272,-16,o),
(568,-16,cs)
);
},
{
closed = 1;
nodes = (
(315,50,o),
(187,214,o),
(227,494,cs),
(267,776,o),
(446,938,o),
(700,938,cs),
(954,938,o),
(1088,772,o),
(1049,494,cs),
(1009,216,o),
(827,50,o),
(571,50,cs)
);
}
);
width = 1212;
}
);
leftKerningGroup = o;
rightKerningGroup = o;
unicode = 240;
}
{
color = 11;
glyphname = divide;
layers = (
{
layerId = "DFDA7944-A323-4357-A6CD-3EE161AE16F3";
shapes = (
{
closed = 1;
nodes = (
(1147,618,l),
(1181,856,l),
(189,856,l),
(155,618,l)
);
},
{
closed = 1;
nodes = (
(712,202,l),
(748,458,l),
(490,458,l),
(454,202,l)
);
},
{
closed = 1;
nodes = (
(828,1014,l),
(864,1270,l),
(606,1270,l),
(570,1014,l)
);
}
);
width = 1201;
},
{
layerId = "E40C1264-1582-41D6-8175-F4C1F2081197";
shapes = (
{
closed = 1;
nodes = (
(1153,664,l),
(1174,810,l),
(182,810,l),
(161,664,l)
);
},
{
closed = 1;
nodes = (
(681,228,l),
(708,419,l),
(517,419,l),
(490,228,l)
);
},
{
closed = 1;
nodes = (
(799,1054,l),
(826,1246,l),
(635,1246,l),
(608,1054,l)
);
}
);
width = 1201;
},
{
layerId = "9BC0C71B-A637-49D9-92D6-4EFEC3ADCDB0";
shapes = (
{
closed = 1;
nodes = (
(1159,704,l),
(1168,770,l),
(176,770,l),
(167,704,l)
);
},
{
closed = 1;
nodes = (
(654,250,l),
(673,384,l),
(541,384,l),
(522,250,l)
);
},
{
closed = 1;
nodes = (
(774,1090,l),
(793,1224,l),
(661,1224,l),
(642,1090,l)
);
}
);
width = 1201;
}
);
unicode = 247;
}
{
color = 11;
glyphname = thorn;
layers = (
{
anchors = (
{
name = bottom;
position = "{608, 0}";
},
{
name = top;
position = "{752, 1010}";
}
);
layerId = "74BA431A-305A-4713-B55D-0EBBAE8D1CDE";
shapes = (
{
closed = 1;
nodes = (
(350,-376,l),
(431,188,l),
(405,188,l),
(432,58,o),
(563,-24,o),
(735,-24,cs),
(1029,-24,o),
(1253,192,o),
(1305,552,cs),
(1357,914,o),
(1193,1126,o),
(899,1126,cs),
(723,1126,o),
(567,1042,o),
(503,906,c),
(533,906,l),
(614,1472,l),
(244,1472,l),
(-20,-376,l)
);
},
{
closed = 1;
nodes = (
(520,252,o),
(449,344,o),
(479,552,cs),
(509,760,o),
(605,850,o),
(745,850,cs),
(885,850,o),
(962,756,o),
(933,552,cs),
(903,344,o),
(800,252,o),
(660,252,cs)
);
}
);
width = 1386;
},
{
anchors = (
{
name = bottom;
position = "{567, 0}";
},
{
name = top;
position = "{711, 1010}";
}
);
layerId = "0037C824-E55C-4C72-8B66-C5A151689C78";
shapes = (
{
closed = 1;
nodes = (
(225,-376,l),
(314,248,l),
(287,248,l),
(312,79,o),
(450,-20,o),
(644,-20,cs),
(941,-20,o),
(1164,191,o),
(1216,553,cs),
(1268,916,o),
(1104,1124,o),
(807,1124,cs),
(611,1124,o),
(445,1025,o),
(372,853,c),
(401,853,l),
(489,1472,l),
(280,1472,l),
(16,-376,l)
);
},
{
closed = 1;
nodes = (
(423,145,o),
(316,280,o),
(355,553,cs),
(394,826,o),
(539,958,o),
(736,958,cs),
(933,958,o),
(1042,824,o),
(1003,553,cs),
(964,280,o),
(817,145,o),
(619,145,cs)
);
}
);
width = 1320;
},
{
anchors = (
{
name = bottom;
position = "{540, 0}";
},
{
name = top;
position = "{684, 1010}";
}
);
layerId = "6219A2BD-1940-4437-A1C4-EF2412E3F892";
shapes = (
{
closed = 1;
nodes = (
(124,-376,l),
(221,300,l),
(193,300,l),
(216,98,o),
(360,-16,o),
(574,-16,cs),
(872,-16,o),
(1095,190,o),
(1147,554,cs),
(1199,918,o),
(1034,1122,o),
(736,1122,cs),
(522,1122,o),
(346,1010,o),
(265,806,c),
(293,806,l),
(388,1472,l),
(322,1472,l),
(58,-376,l)
);
},
{
closed = 1;
nodes = (
(347,50,o),
(208,224,o),
(255,554,cs),
(302,884,o),
(491,1054,o),
(737,1054,cs),
(985,1054,o),
(1122,884,o),
(1075,554,cs),
(1028,224,o),
(841,50,o),
(593,50,cs)
);
}
);
width = 1280;
}
);
leftKerningGroup = h;
rightKerningGroup = o;
unicode = 254;
}
{
color = 11;
glyphname = dcroat;
layers = (
{
layerId = "DFDA7944-A323-4357-A6CD-3EE161AE16F3";
shapes = (
{
closed = 1;
nodes = (
(1639,1124,l),
(1674,1374,l),
(966,1374,l),
(931,1124,l)
);
},
{
alignment = -1;
pos = (56,0);
ref = d;
}
);
width = 1481;
},
{
layerId = "E40C1264-1582-41D6-8175-F4C1F2081197";
shapes = (
{
closed = 1;
nodes = (
(1593,1187,l),
(1614,1336,l),
(791,1336,l),
(770,1187,l)
);
},
{
alignment = -1;
pos = (57,0);
ref = d;
}
);
width = 1416;
},
{
layerId = "9BC0C71B-A637-49D9-92D6-4EFEC3ADCDB0";
shapes = (
{
closed = 1;
nodes = (
(1535,1242,l),
(1544,1302,l),
(848,1302,l),
(839,1242,l)
);
},
{
alignment = -1;
pos = (58,0);
ref = d;
}
);
width = 1376;
}
);
leftKerningGroup = o;
rightKerningGroup = l;
unicode = 273;
}
{
color = 11;
glyphname = Hbar;
layers = (
{
layerId = "DFDA7944-A323-4357-A6CD-3EE161AE16F3";
shapes = (
{
closed = 1;
nodes = (
(517,0,l),
(597,560,l),
(1167,560,l),
(1087,0,l),
(1459,0,l),
(1609,1050,l),
(1763,1050,l),
(1800,1310,l),
(1646,1310,l),
(1669,1472,l),
(1297,1472,l),
(1274,1310,l),
(704,1310,l),
(727,1472,l),
(357,1472,l),
(334,1310,l),
(180,1310,l),
(143,1050,l),
(297,1050,l),
(147,0,l)
);
},
{
closed = 1;
nodes = (
(667,1050,l),
(1237,1050,l),
(1211,868,l),
(641,868,l)
);
}
);
width = 1681;
},
{
layerId = "E40C1264-1582-41D6-8175-F4C1F2081197";
shapes = (
{
closed = 1;
nodes = (
(373,0,l),
(465,643,l),
(1244,643,l),
(1152,0,l),
(1363,0,l),
(1517,1079,l),
(1692,1079,l),
(1715,1236,l),
(1540,1236,l),
(1573,1472,l),
(1362,1472,l),
(1329,1236,l),
(550,1236,l),
(583,1472,l),
(373,1472,l),
(340,1236,l),
(166,1236,l),
(143,1079,l),
(317,1079,l),
(163,0,l)
);
},
{
closed = 1;
nodes = (
(527,1079,l),
(1306,1079,l),
(1269,822,l),
(490,822,l)
);
}
);
width = 1601;
},
{
layerId = "9BC0C71B-A637-49D9-92D6-4EFEC3ADCDB0";
shapes = (
{
closed = 1;
nodes = (
(257,0,l),
(359,716,l),
(1323,716,l),
(1221,0,l),
(1289,0,l),
(1447,1104,l),
(1641,1104,l),
(1650,1170,l),
(1456,1170,l),
(1499,1472,l),
(1431,1472,l),
(1388,1170,l),
(424,1170,l),
(467,1472,l),
(399,1472,l),
(356,1170,l),
(164,1170,l),
(155,1104,l),
(347,1104,l),
(189,0,l)
);
},
{
closed = 1;
nodes = (
(415,1104,l),
(1379,1104,l),
(1333,782,l),
(369,782,l)
);
}
);
width = 1552;
}
);
leftKerningGroup = H;
rightKerningGroup = H;
unicode = 294;
}
{
color = 11;
glyphname = hbar;
layers = (
{
layerId = "DFDA7944-A323-4357-A6CD-3EE161AE16F3";
shapes = (
{
closed = 1;
nodes = (
(457,0,l),
(537,558,ls),
(554,682,o),
(652,766,o),
(780,766,cs),
(886,766,o),
(929,712,o),
(910,582,cs),
(827,0,l),
(1197,0,l),
(1282,596,ls),
(1326,904,o),
(1221,1050,o),
(961,1050,cs),
(789,1050,o),
(636,970,o),
(542,836,c),
(576,836,l),
(618,1124,l),
(1030,1124,l),
(1065,1374,l),
(653,1374,l),
(667,1472,l),
(297,1472,l),
(283,1374,l),
(91,1374,l),
(56,1124,l),
(248,1124,l),
(87,0,l)
);
}
);
width = 1353;
},
{
layerId = "E40C1264-1582-41D6-8175-F4C1F2081197";
shapes = (
{
closed = 1;
nodes = (
(332,0,l),
(420,614,ls),
(446,801,o),
(588,924,o),
(781,924,cs),
(942,924,o),
(1007,845,o),
(979,654,cs),
(886,0,l),
(1094,0,l),
(1189,666,ls),
(1230,953,o),
(1123,1094,o),
(863,1094,cs),
(672,1094,o),
(510,1003,o),
(421,841,c),
(452,841,l),
(502,1187,l),
(932,1187,l),
(953,1336,l),
(523,1336,l),
(542,1472,l),
(333,1472,l),
(314,1336,l),
(105,1336,l),
(84,1187,l),
(293,1187,l),
(123,0,l)
);
}
);
width = 1287;
},
{
layerId = "9BC0C71B-A637-49D9-92D6-4EFEC3ADCDB0";
shapes = (
{
closed = 1;
nodes = (
(231,0,l),
(326,664,ls),
(360,906,o),
(541,1064,o),
(791,1064,cs),
(1001,1064,o),
(1084,962,o),
(1050,718,cs),
(947,0,l),
(1013,0,l),
(1117,728,ls),
(1155,996,o),
(1047,1132,o),
(787,1132,cs),
(579,1132,o),
(408,1032,o),
(324,846,c),
(352,846,l),
(408,1242,l),
(854,1242,l),
(863,1302,l),
(417,1302,l),
(441,1472,l),
(375,1472,l),
(351,1302,l),
(127,1302,l),
(118,1242,l),
(342,1242,l),
(165,0,l)
);
}
);
width = 1247;
}
);
leftKerningGroup = h;
rightKerningGroup = n;
unicode = 295;
}
{
color = 11;
glyphname = dotlessi;
layers = (
{
anchors = (
{
name = bottom;
position = "{220, 0}";
},
{
name = ogonek;
position = "{320, 0}";
},
{
name = top;
position = "{364, 1010}";
}
);
layerId = "AA9127E2-66D7-45E5-8D77-9FE81E534461";
shapes = (
{
closed = 1;
nodes = (
(404,0,l),
(561.712,1104,l),
(191.712,1104,l),
(34,0,l)
);
}
);
width = 616;
},
{
anchors = (
{
name = bottom;
position = "{173, 0}";
},
{
name = ogonek;
position = "{242, 0}";
},
{
name = top;
position = "{317, 1010}";
}
);
layerId = "780D6C53-D363-41D3-A45B-4CEB198897BB";
shapes = (
{
closed = 1;
nodes = (
(277,0,l),
(435,1104,l),
(226,1104,l),
(68,0,l)
);
}
);
width = 522;
},
{
anchors = (
{
name = bottom;
position = "{144, 0}";
},
{
name = ogonek;
position = "{186, 0}";
},
{
name = top;
position = "{288, 1010}";
}
);
layerId = "15DD03C9-6E3F-4F53-9575-CC59ABE7D50E";
shapes = (
{
closed = 1;
nodes = (
(178,0,l),
(335.712,1104,l),
(269.712,1104,l),
(112,0,l)
);
}
);
width = 466;
}
);
leftKerningGroup = n;
rightKerningGroup = u;
unicode = 305;
}
